<svg width="242" height="256" viewBox="0 0 242 256" fill="none" xmlns="http://www.w3.org/2000/svg">
<path d="M120.935 242.45C187.605 242.45 241.652 188.385 241.652 121.693C241.652 55.0003 187.605 0.935547 120.935 0.935547C54.2654 0.935547 0.21875 55.0003 0.21875 121.693C0.21875 188.385 54.2654 242.45 120.935 242.45Z" fill="url(#paint0_linear_901_12)"/>
<path d="M120.346 255.409C126.85 255.409 132.123 250.134 132.123 243.628C132.123 237.121 126.85 231.847 120.346 231.847C113.841 231.847 108.568 237.121 108.568 243.628C108.568 250.134 113.841 255.409 120.346 255.409Z" fill="#71BBC4"/>
<path d="M121.478 164.211C119.252 164.211 117.309 166.155 117.309 168.381C117.309 173.659 117.309 178.666 117.309 183.956C117.309 184.793 117.309 185.346 117.309 186.183C117.309 188.409 119.252 190.353 121.478 190.353C123.704 190.353 125.647 188.409 125.647 186.183C125.647 180.905 125.647 175.898 125.647 170.608C125.647 169.772 125.647 169.218 125.647 168.381C125.647 166.155 123.704 164.211 121.478 164.211Z" fill="#213441"/>
<path d="M107.581 164.211C105.355 164.211 103.412 166.155 103.412 168.381C103.412 171.445 103.412 174.496 103.412 177.559C103.412 178.113 103.412 178.395 103.412 178.949C103.412 181.176 105.355 183.12 107.581 183.12C109.807 183.12 111.75 181.176 111.75 178.949C111.75 175.886 111.75 172.835 111.75 169.772C111.75 169.218 111.75 168.935 111.75 168.381C111.75 166.155 109.807 164.211 107.581 164.211Z" fill="#213441"/>
<path d="M135.386 164.211C133.16 164.211 131.217 166.155 131.217 168.381C131.217 171.445 131.217 174.496 131.217 177.559C131.217 178.113 131.217 178.395 131.217 178.949C131.217 181.176 133.16 183.12 135.386 183.12C137.612 183.12 139.555 181.176 139.555 178.949C139.555 175.886 139.555 172.835 139.555 169.772C139.555 169.218 139.555 168.935 139.555 168.381C139.555 166.155 137.6 164.211 135.386 164.211Z" fill="#213441"/>
<path d="M163.452 121.669L154.831 116.109C155.384 112.492 155.667 108.604 155.667 104.987C155.667 82.4617 136.211 63.5647 127.873 56.602C123.986 53.5389 118.698 53.5389 114.812 56.602C106.473 63.5529 87.0173 82.4617 87.0173 104.987C87.0173 108.875 87.3 112.775 87.8536 116.391L80.0688 120.562C77.8429 121.669 76.4531 123.896 76.4531 126.405V155.045C76.4531 160.889 83.9553 163.669 87.8536 159.216L100.361 144.761C100.644 144.761 100.914 145.043 101.197 145.043C102.869 153.667 110.372 160.052 119.263 160.052H123.15C132.042 160.052 139.544 153.655 141.216 145.314L154.831 160.052C158.717 164.223 166.231 161.443 166.231 155.599V127.242C166.514 125.004 165.395 122.777 163.452 121.669ZM120.37 62.9992C120.924 62.4455 122.043 62.4455 122.596 62.9992C130.099 69.3964 147.329 86.0785 147.329 104.987C147.329 117.216 144.549 128.338 138.99 136.961C138.708 137.515 138.154 137.798 137.601 137.798H105.084C104.53 137.798 103.977 137.515 103.694 136.961C98.4177 128.62 95.3556 117.216 95.3556 104.987C95.3556 85.7958 112.868 69.1136 120.37 62.9992ZM84.7915 150.027V127.23L89.514 124.733C90.9038 129.74 92.5762 134.181 94.7904 138.352L84.7915 150.027ZM123.433 151.971H119.546C115.377 151.971 112.044 149.473 110.372 146.127H132.607C130.935 149.473 127.319 151.971 123.433 151.971ZM158.175 151.134L147.34 139.459C149.837 135.006 151.792 130.281 153.182 125.003L158.187 128.067C158.175 128.067 158.175 151.134 158.175 151.134Z" fill="#213441"/>
<path d="M121.477 112.492C128.143 112.492 133.702 106.931 133.702 100.263C133.702 93.5949 128.143 88.0342 121.477 88.0342C114.811 88.0342 109.252 93.5949 109.252 100.263C109.252 106.931 114.528 112.492 121.477 112.492ZM121.477 96.0807C123.703 96.0807 125.363 97.7536 125.363 99.9685C125.363 102.195 123.691 103.856 121.477 103.856C119.263 103.856 117.59 102.183 117.59 99.9685C117.59 97.7536 119.263 96.0807 121.477 96.0807Z" fill="#213441"/>
<defs>
<linearGradient id="paint0_linear_901_12" x1="35.5728" y1="36.3003" x2="206.349" y2="207.019" gradientUnits="userSpaceOnUse">
<stop stop-color="#71BBC4"/>
<stop offset="0.1392" stop-color="#ADD8DD"/>
<stop offset="0.2601" stop-color="#D9EDEF"/>
<stop offset="0.3534" stop-color="#F5FAFB"/>
<stop offset="0.4078" stop-color="white"/>
<stop offset="1" stop-color="white"/>
</linearGradient>
</defs>
</svg>
