<svg id="Livello_1" data-name="Livello 1" xmlns="http://www.w3.org/2000/svg" xmlns:xlink="http://www.w3.org/1999/xlink" viewBox="0 0 921.2 984.03"><defs><style>.cls-1,.cls-14,.cls-6{font-size:24px;fill:#2d2d2d;font-family:Montserrat-ExtraBold, Montserrat;font-weight:800;}.cls-2,.cls-6{letter-spacing:0.02em;}.cls-3{letter-spacing:0.03em;}.cls-4{letter-spacing:0.01em;}.cls-5{letter-spacing:0.01em;}.cls-7{letter-spacing:0em;}.cls-8{letter-spacing:0.01em;}.cls-9{letter-spacing:0.02em;}.cls-10{letter-spacing:0.02em;}.cls-11{letter-spacing:0.04em;}.cls-12{letter-spacing:0.07em;}.cls-13{letter-spacing:0.01em;}.cls-14{letter-spacing:0.01em;}.cls-15{letter-spacing:0em;}.cls-16{letter-spacing:0.01em;}.cls-17{letter-spacing:0em;}.cls-18{fill:url(#linear-gradient);}.cls-19{fill:url(#linear-gradient-2);}.cls-20{fill:url(#linear-gradient-3);}.cls-21{fill:url(#linear-gradient-4);}.cls-22{fill:url(#linear-gradient-5);}.cls-23{fill:url(#linear-gradient-6);}.cls-24{fill:url(#linear-gradient-7);}.cls-25{fill:url(#linear-gradient-8);}.cls-26{fill:none;stroke:#55bcc5;stroke-linecap:round;stroke-linejoin:round;}.cls-27{fill:#55bcc5;}.cls-28,.cls-29{fill:#fff;}.cls-29{fill-rule:evenodd;}</style><linearGradient id="linear-gradient" x1="156.12" y1="767.58" x2="252.29" y2="863.75" gradientUnits="userSpaceOnUse"><stop offset="0" stop-color="#55bcc5"/><stop offset="0" stop-color="#54bbc4"/><stop offset="0.02" stop-color="#4597a1"/><stop offset="0.05" stop-color="#387984"/><stop offset="0.07" stop-color="#2d606c"/><stop offset="0.1" stop-color="#254d59"/><stop offset="0.14" stop-color="#1f3f4c"/><stop offset="0.18" stop-color="#1c3744"/><stop offset="0.26" stop-color="#1b3542"/><stop offset="0.62" stop-color="#17313e"/><stop offset="0.98" stop-color="#0b2634"/><stop offset="1" stop-color="#0a2533"/></linearGradient><linearGradient id="linear-gradient-2" x1="511.12" y1="767.58" x2="607.29" y2="863.75" xlink:href="#linear-gradient"/><linearGradient id="linear-gradient-3" x1="156.12" y1="422.58" x2="252.29" y2="518.75" xlink:href="#linear-gradient"/><linearGradient id="linear-gradient-4" x1="334.12" y1="591.58" x2="430.29" y2="687.75" xlink:href="#linear-gradient"/><linearGradient id="linear-gradient-5" x1="334.12" y1="253.58" x2="430.29" y2="349.75" xlink:href="#linear-gradient"/><linearGradient id="linear-gradient-6" x1="511.12" y1="422.58" x2="607.29" y2="518.75" xlink:href="#linear-gradient"/><linearGradient id="linear-gradient-7" x1="788.12" y1="253.58" x2="884.29" y2="349.75" xlink:href="#linear-gradient"/><linearGradient id="linear-gradient-8" x1="561.12" y1="51.58" x2="657.29" y2="147.75" xlink:href="#linear-gradient"/></defs><text class="cls-1" transform="translate(104.92 921.47)"><tspan class="cls-2">Mini</tspan><tspan class="cls-3" x="56.45" y="0">n</tspan><tspan class="cls-2" x="73.8" y="0">g R</tspan><tspan class="cls-4" x="116.83" y="0">e</tspan><tspan x="132.45" y="0">w</tspan><tspan class="cls-2" x="155.4" y="0">a</tspan><tspan class="cls-5" x="170.93" y="0">r</tspan><tspan class="cls-2" x="181.85" y="0">d </tspan><tspan class="cls-2"><tspan x="69.43" y="29">(MR)</tspan></tspan></text><text class="cls-1" transform="translate(414.62 921.47)"><tspan class="cls-2">Mini</tspan><tspan class="cls-3" x="56.45" y="0">n</tspan><tspan class="cls-2" x="73.8" y="0">g R</tspan><tspan class="cls-4" x="116.83" y="0">e</tspan><tspan x="132.45" y="0">w</tspan><tspan class="cls-2" x="155.4" y="0">a</tspan><tspan class="cls-5" x="170.93" y="0">r</tspan><tspan class="cls-2" x="181.85" y="0">d Bonus </tspan><tspan class="cls-2"><tspan x="105.27" y="29">(MRB)</tspan></tspan></text><text class="cls-6" transform="translate(512.43 567.47)">Bi<tspan class="cls-7" x="26.88" y="0">t</tspan><tspan class="cls-8" x="37.68" y="0">c</tspan><tspan x="52.46" y="0">oin</tspan></text><text class="cls-6" transform="translate(583.7 200.47)">N<tspan class="cls-9" x="19.8" y="0">F</tspan><tspan x="35.78" y="0">T</tspan></text><text class="cls-6" transform="translate(782.8 396.47)">Affilia<tspan class="cls-7" x="80.62" y="0">t</tspan><tspan x="91.42" y="0">e</tspan><tspan x="25.64" y="29">(</tspan><tspan class="cls-10" x="34.96" y="29">C</tspan><tspan class="cls-11" x="53.08" y="29">V</tspan><tspan x="72.32" y="29">)</tspan></text><text class="cls-6" transform="translate(149.78 567.47)">A<tspan class="cls-12" x="19.32" y="0">l</tspan><tspan class="cls-7" x="28.58" y="0">t</tspan><tspan class="cls-13" x="39.38" y="0">c</tspan><tspan x="54.17" y="0">oins</tspan></text><text class="cls-14" transform="translate(316.85 738.47)">S<tspan class="cls-15" x="15.74" y="0">w</tspan><tspan class="cls-2" x="38.69" y="0">appi</tspan><tspan class="cls-3" x="96.46" y="0">n</tspan><tspan class="cls-2" x="113.81" y="0">g</tspan><tspan class="cls-3"><tspan x="29.34" y="29">L</tspan><tspan class="cls-16" x="44.63" y="29">a</tspan><tspan class="cls-17" x="59.92" y="29">y</tspan><tspan class="cls-2" x="74.89" y="29">er</tspan></tspan></text><text class="cls-6" transform="translate(336.85 398.47)">Mini<tspan class="cls-3" x="56.45" y="0">n</tspan><tspan x="73.8" y="0">g</tspan></text><circle class="cls-18" cx="204.2" cy="815.67" r="68"/><circle class="cls-19" cx="559.2" cy="815.67" r="68"/><circle class="cls-20" cx="204.2" cy="470.67" r="68"/><circle class="cls-21" cx="382.2" cy="639.67" r="68"/><circle class="cls-22" cx="382.2" cy="301.67" r="68"/><circle class="cls-23" cx="559.2" cy="470.67" r="68"/><circle class="cls-24" cx="836.2" cy="301.67" r="68"/><circle class="cls-25" cx="609.2" cy="99.67" r="68"/><path class="cls-26" d="M655,172.15H521.15a15,15,0,0,0-15,15V291.41" transform="translate(-123.93 -72.48)"/><polygon class="cls-27" points="375.67 213.63 376.84 212.54 382.21 218.32 387.58 212.54 388.76 213.63 382.21 220.67 375.67 213.63"/><path class="cls-26" d="M811.82,172.65H945.64a15,15,0,0,1,15,15V291.91" transform="translate(-123.93 -72.48)"/><polygon class="cls-27" points="830.16 214.13 831.33 213.04 836.7 218.82 842.07 213.04 843.25 214.13 836.7 221.17 830.16 214.13"/><line class="cls-26" x1="283.2" y1="815.67" x2="477.07" y2="815.67"/><polygon class="cls-27" points="471.77 822.21 470.68 821.04 476.46 815.67 470.68 810.3 471.77 809.13 478.81 815.67 471.77 822.21"/><path class="cls-26" d="M761.38,888.15H945.14a15,15,0,0,0,15-15V519.88" transform="translate(-123.93 -72.48)"/><polygon class="cls-27" points="842.75 452.7 841.58 453.8 836.21 448.02 830.83 453.8 829.66 452.7 836.21 445.67 842.75 452.7"/><path class="cls-26" d="M428.28,723.51H343.14a15,15,0,0,0-15,15v67.1" transform="translate(-123.93 -72.48)"/><polygon class="cls-27" points="197.66 727.83 198.83 726.74 204.2 732.52 209.57 726.74 210.75 727.83 204.2 734.87 197.66 727.83"/><path class="cls-26" d="M428.28,374.15H343.15a15,15,0,0,0-15,15v72.28" transform="translate(-123.93 -72.48)"/><polygon class="cls-27" points="197.67 383.65 198.84 382.56 204.21 388.34 209.59 382.56 210.76 383.65 204.21 390.69 197.67 383.65"/><path class="cls-28" d="M760.62,173.74a3.35,3.35,0,1,0,0-2.24h-6.9v-9.59l2.69-2.7h2a3.35,3.35,0,1,0,0-2.23H756a1.11,1.11,0,0,0-.79.33l-2.77,2.77-6.49-3.44v-6.36h3.55a3.35,3.35,0,1,0,0-2.24h-4.67a1.12,1.12,0,0,0-1.12,1.12v6.29l-8.93-4.73V145.6a3.35,3.35,0,1,0-2.24,0v5.12l-8.94,4.74v-6.3a1.12,1.12,0,0,0-1.11-1.12h-4.68a3.35,3.35,0,1,0,0,2.24h3.56v6.36l-6.5,3.44-2.76-2.77a1.13,1.13,0,0,0-.79-.33h-2.44a3.36,3.36,0,1,0,0,2.23h2l2.7,2.7v9.59h-6.91a3.35,3.35,0,1,0,0,2.24h6.91v9.59L710.8,186h-2a3.35,3.35,0,1,0,0,2.24h2.44a1.13,1.13,0,0,0,.79-.33l2.76-2.77,6.5,3.44V195h-3.56a3.35,3.35,0,1,0,0,2.24h4.68a1.12,1.12,0,0,0,1.11-1.12v-6.29l8.94,4.72v5.12a3.35,3.35,0,1,0,2.24,0v-5.12l8.93-4.73v6.3a1.12,1.12,0,0,0,1.12,1.12h4.67a3.35,3.35,0,1,0,0-2.24H745.9V188.6l6.49-3.44,2.77,2.77a1.11,1.11,0,0,0,.79.33h2.44a3.35,3.35,0,1,0,0-2.24h-2l-2.69-2.69v-9.59Zm3.15-2.24a1.12,1.12,0,1,1-1.12,1.12A1.12,1.12,0,0,1,763.77,171.5ZM761.54,157a1.12,1.12,0,1,1-1.12,1.12A1.12,1.12,0,0,1,761.54,157ZM752.6,148a1.12,1.12,0,1,1-1.12,1.12A1.12,1.12,0,0,1,752.6,148Zm-38,2.24a1.12,1.12,0,1,1,1.11-1.12A1.12,1.12,0,0,1,714.62,150.28Zm-8.94,8.93a1.12,1.12,0,1,1,1.12-1.11A1.12,1.12,0,0,1,705.68,159.21Zm-2.23,14.53a1.12,1.12,0,1,1,1.11-1.12A1.12,1.12,0,0,1,703.45,173.74Zm2.23,14.52a1.12,1.12,0,1,1,1.12-1.12A1.12,1.12,0,0,1,705.68,188.26Zm8.94,8.94a1.12,1.12,0,1,1,1.11-1.12A1.12,1.12,0,0,1,714.62,197.2Zm38-2.24a1.12,1.12,0,1,1-1.12,1.12A1.12,1.12,0,0,1,752.6,195Zm8.94-8.94a1.12,1.12,0,1,1-1.12,1.12A1.12,1.12,0,0,1,761.54,186Zm-27.93-44.68a1.12,1.12,0,1,1-1.12,1.12A1.12,1.12,0,0,1,733.61,141.34Zm0,62.56a1.12,1.12,0,1,1,1.12-1.12A1.12,1.12,0,0,1,733.61,203.9Zm17.87-20.78-17.87,9.46-17.88-9.46v-21l17.88-9.46,17.87,9.46Z" transform="translate(-123.93 -72.48)"/><path class="cls-28" d="M733.11,154.86l-15.64,7.82a1.12,1.12,0,0,0-.62,1v17.88a1.12,1.12,0,0,0,.62,1l15.64,7.82a1.1,1.1,0,0,0,1,0l15.64-7.82a1.1,1.1,0,0,0,.61-1V163.68a1.11,1.11,0,0,0-.61-1l-15.64-7.82A1.17,1.17,0,0,0,733.11,154.86Zm15,9.51v16.5l-14.52,7.26-14.52-7.26v-16.5l14.52-7.26Z" transform="translate(-123.93 -72.48)"/><path class="cls-28" d="M725.79,172.36l-2.35-4.71a1.12,1.12,0,0,0-1.49-.52,1.13,1.13,0,0,0-.63,1v10h2.23v-5.32l2.36,4.71a1.11,1.11,0,0,0,2.11-.5V167h-2.23Z" transform="translate(-123.93 -72.48)"/><path class="cls-28" d="M730.26,168.15v10h2.23v-4.46h3.35V171.5h-3.35v-2.23H737V167h-5.59A1.12,1.12,0,0,0,730.26,168.15Z" transform="translate(-123.93 -72.48)"/><polygon class="cls-28" points="617.5 105.73 619.73 105.73 619.73 96.79 621.96 96.79 621.96 94.56 615.26 94.56 615.26 96.79 617.5 96.79 617.5 105.73"/><path class="cls-28" d="M960.39,357l14.33,8.28a.65.65,0,0,1,.32.57h0v16.56a.66.66,0,0,1-.38.59l-14.29,8.24a.61.61,0,0,1-.64,0L945.38,383a.63.63,0,0,1-.32-.56h0V365.86a.65.65,0,0,1,.38-.58l14.3-8.26a.61.61,0,0,1,.65,0Zm13.36,9.21-13.7-7.91-13.7,7.91v15.83l13.7,7.91,13.7-7.91Zm-34,27.11-4.27,2.45a.63.63,0,0,1-.65,0l-4.25-2.45v4.54l4.58,2.65,4.57-2.65v-4.54Zm-8.52-1.12,3.93,2.28,3.94-2.28L935.16,390Zm4.27-3.58,4.77,2.75,5.56-5.61a.65.65,0,0,1,.92.91L941,392.44v5.81a.69.69,0,0,1-.37.59l-5.17,3a.68.68,0,0,1-.65,0l-5.22-3a.64.64,0,0,1-.33-.56h0v-6a.63.63,0,0,1,.39-.58l5.18-3a.64.64,0,0,1,.63,0Zm4.25-37.5-4.27,2.45a.63.63,0,0,1-.65,0l-4.25-2.45v4.54l4.58,2.65,4.57-2.65v-4.54ZM931.23,350l3.93,2.28L939.1,350l-3.94-2.28Zm4.27-3.58,5.22,3a.63.63,0,0,1,.32.57h0v5.8l5.75,5.79a.64.64,0,0,1-.91.91l-5.61-5.65-4.79,2.77a.63.63,0,0,1-.65,0l-5.22-3a.63.63,0,0,1-.32-.57h0v-6a.69.69,0,0,1,.38-.6l5.18-3a.61.61,0,0,1,.65,0Zm54,46.9-4.27,2.45a.63.63,0,0,1-.65,0l-4.25-2.45v4.54l4.58,2.65,4.57-2.65v-4.54ZM981,392.23l3.93,2.28,3.94-2.28L984.93,390Zm4.27-3.58,5.22,3a.65.65,0,0,1,.32.57h0v6a.65.65,0,0,1-.37.6l-5.17,3a.63.63,0,0,1-.65,0l-5.22-3a.62.62,0,0,1-.33-.57h0v-5.8l-5.84-5.89a.64.64,0,0,1,.91-.91l5.71,5.74,4.77-2.76a.68.68,0,0,1,.65,0Zm4.25-37.5-4.25,2.45a.63.63,0,0,1-.65,0l-4.25-2.45v4.54l4.57,2.65,4.58-2.65v-4.54ZM981,350l3.93,2.28,3.94-2.28-3.94-2.28Zm4.27-3.58,5.22,3a.63.63,0,0,1,.32.57h0v6a.62.62,0,0,1-.37.58l-5.17,3a.61.61,0,0,1-.65,0l-4.77-2.75-5.5,5.55c-.6.6-1.52-.31-.92-.9l5.64-5.68v-5.81a.68.68,0,0,1,.37-.6l5.18-3a.61.61,0,0,1,.65,0ZM959.5,401.38l0-8a.65.65,0,0,1,1.29,0l0,8.08a2.9,2.9,0,1,1-1.29-.05Zm1.29-54.5,0,8.34a.65.65,0,0,1-1.29,0l0-8.31a2.88,2.88,0,1,1,1.29,0Zm.88,57.35a1.61,1.61,0,1,0-1.6,1.6,1.59,1.59,0,0,0,1.6-1.6Zm-.47-59a1.62,1.62,0,1,0-2.3,0,1.64,1.64,0,0,0,2.3,0Zm26.09,29.51-9.3,0a.65.65,0,0,1,0-1.3l9.35,0a2.9,2.9,0,1,1-.05,1.3Zm-54.51-1.28,9.07,0a.65.65,0,0,1,0,1.29l-9,0a2.9,2.9,0,1,1,0-1.29Zm57.37-.89a1.61,1.61,0,1,0,1.13,2.75,1.62,1.62,0,0,0-1.13-2.75Zm-59,.47a1.61,1.61,0,1,0,0,2.29,1.61,1.61,0,0,0,0-2.29Zm36.54-5.44c-.55.23-1.1.44-1.69.63a16.82,16.82,0,0,1,1,5.31h3.12a10,10,0,0,0-2.44-5.94Zm-2.92,1a20,20,0,0,1-4,.57v4.38h5a15.5,15.5,0,0,0-1-4.95Zm-5.32.55a18.65,18.65,0,0,1-4-.57,15.72,15.72,0,0,0-1,5h5Zm-5.25-.91c-.57-.19-1.14-.4-1.69-.63A10.07,10.07,0,0,0,950,373.5h3.11a16.55,16.55,0,0,1,1-5.31Zm-.7-1.63c.39.16.79.31,1.21.44a10.29,10.29,0,0,1,1.31-2,10.09,10.09,0,0,0-2.52,1.6Zm2.48.79a18.83,18.83,0,0,0,3.47.47v-3.65a5.56,5.56,0,0,0-3.47,3.18Zm4.77.46a17.91,17.91,0,0,0,3.47-.47,5.69,5.69,0,0,0-3.47-3.19Zm4.75-.81c.42-.13.81-.28,1.22-.44a9.83,9.83,0,0,0-2.51-1.6,10.21,10.21,0,0,1,1.29,2Zm-13,13.73c.55-.23,1.1-.44,1.69-.63a16.77,16.77,0,0,1-1-5.31H950a10,10,0,0,0,2.44,5.94Zm2.93-1a19.19,19.19,0,0,1,4-.56v-4.39h-5a15,15,0,0,0,.95,4.95Zm5.31-.55a18.65,18.65,0,0,1,4,.57,15.61,15.61,0,0,0,1-4.95h-5Zm5.27.91q.85.28,1.68.63a9.88,9.88,0,0,0,2.44-5.94H967a17.34,17.34,0,0,1-1,5.31Zm.68,1.63c-.39-.16-.79-.29-1.21-.44a10.29,10.29,0,0,1-1.31,2,10.09,10.09,0,0,0,2.52-1.6Zm-2.46-.77a18.23,18.23,0,0,0-3.48-.47v3.65a5.77,5.77,0,0,0,3.48-3.18Zm-4.79-.47a16.49,16.49,0,0,0-3.47.47,5.7,5.7,0,0,0,3.47,3.18Zm-4.75.8c-.41.13-.81.28-1.22.44a9.83,9.83,0,0,0,2.51,1.6,11.19,11.19,0,0,1-1.29-2Zm5.4-18.5a11.36,11.36,0,1,1-8,3.33,11.39,11.39,0,0,1,8-3.33Z" transform="translate(-123.93 -72.48)"/><path class="cls-29" d="M479.08,358.26V357h1.33a2.1,2.1,0,0,1-1.33,1.27M476.46,357h1.18v1.23a2.13,2.13,0,0,1-1.18-1.23m1.18-2.68v1.24h-1.18a2.15,2.15,0,0,1,1.18-1.24m2.77,1.24h-1.33v-1.28a2.09,2.09,0,0,1,1.33,1.28m-2-2.84a3.56,3.56,0,1,0,3.55,3.56,3.56,3.56,0,0,0-3.55-3.56" transform="translate(-123.93 -72.48)"/><path class="cls-29" d="M494.21,358.27V357h1.35a2.1,2.1,0,0,1-1.35,1.28m-2.6-1.28h1.16v1.22a2.14,2.14,0,0,1-1.16-1.22m1.16-2.67v1.23h-1.16a2.13,2.13,0,0,1,1.16-1.23m2.79,1.23h-1.35v-1.29a2.09,2.09,0,0,1,1.35,1.29m-2-2.84a3.56,3.56,0,1,0,3.55,3.56,3.56,3.56,0,0,0-3.55-3.56" transform="translate(-123.93 -72.48)"/><path class="cls-29" d="M479.08,376v-1.28h1.33a2.09,2.09,0,0,1-1.33,1.28m-2.62-1.28h1.18v1.23a2.1,2.1,0,0,1-1.18-1.23m1.18-2.67v1.23h-1.18a2.1,2.1,0,0,1,1.18-1.23m2.77,1.23h-1.33V372a2.09,2.09,0,0,1,1.33,1.28m-2-2.83A3.55,3.55,0,1,0,482,374a3.55,3.55,0,0,0-3.55-3.55" transform="translate(-123.93 -72.48)"/><path class="cls-29" d="M494.21,376v-1.28h1.35a2.08,2.08,0,0,1-1.35,1.28m-2.6-1.28h1.16v1.23a2.16,2.16,0,0,1-1.16-1.23m1.16-2.66v1.22h-1.16a2.11,2.11,0,0,1,1.16-1.22m2.79,1.22h-1.35V372a2.08,2.08,0,0,1,1.35,1.28m-2-2.83a3.55,3.55,0,1,0,3.55,3.55,3.55,3.55,0,0,0-3.55-3.55" transform="translate(-123.93 -72.48)"/><path class="cls-29" d="M479.08,394.74v-1.28h1.33a2.09,2.09,0,0,1-1.33,1.28m-2.62-1.28h1.18v1.23a2.1,2.1,0,0,1-1.18-1.23m1.18-2.67V392h-1.18a2.1,2.1,0,0,1,1.18-1.23m2.77,1.23h-1.33v-1.28a2.09,2.09,0,0,1,1.33,1.28m-2-2.83a3.55,3.55,0,1,0,3.55,3.55,3.55,3.55,0,0,0-3.55-3.55" transform="translate(-123.93 -72.48)"/><path class="cls-29" d="M494.21,394.75v-1.29h1.35a2.09,2.09,0,0,1-1.35,1.29m-2.6-1.29h1.16v1.23a2.16,2.16,0,0,1-1.16-1.23m1.16-2.66V392h-1.16a2.11,2.11,0,0,1,1.16-1.22m2.79,1.22h-1.35v-1.28a2.08,2.08,0,0,1,1.35,1.28m-2-2.83a3.55,3.55,0,1,0,3.55,3.55,3.55,3.55,0,0,0-3.55-3.55" transform="translate(-123.93 -72.48)"/><path class="cls-29" d="M517.77,354.31v1.23h-1.18a2.16,2.16,0,0,1,1.18-1.23m2.77,1.23h-1.33v-1.27a2.1,2.1,0,0,1,1.33,1.27m-1.33,2.72V357h1.33a2.1,2.1,0,0,1-1.33,1.27M516.59,357h1.18v1.23a2.16,2.16,0,0,1-1.18-1.23m2,2.83a3.56,3.56,0,1,0-3.55-3.55,3.56,3.56,0,0,0,3.55,3.55" transform="translate(-123.93 -72.48)"/><path class="cls-29" d="M532.9,354.32v1.22h-1.16a2.14,2.14,0,0,1,1.16-1.22m2.79,1.22h-1.35v-1.28a2.1,2.1,0,0,1,1.35,1.28m-1.35,2.73V357h1.35a2.1,2.1,0,0,1-1.35,1.28m-2.6-1.28h1.16v1.22a2.14,2.14,0,0,1-1.16-1.22m2,2.83a3.56,3.56,0,1,0-3.55-3.55,3.56,3.56,0,0,0,3.55,3.55" transform="translate(-123.93 -72.48)"/><path class="cls-29" d="M513,369.5l1.06-.93h9.3l.46.67v2.94h1.44V369.3h2.16v2.88h1.45v-2.91l.19-.7h9.3l1.32.93v9l-1.32.91h-9.23l-.4-.72h.14v-2.88h-1.45v2.88h-2.16v-2.88h-1.44v2.65l-.54.95h-9.22l-1.06-.91Zm0,18.75,1.06-.92h9.3l.46.66v2.94h1.44v-2.88h2.16v2.88h1.45V388l.19-.69h9.3l1.32.92v9l-1.32.9h-9.23l-.4-.72h.14v-2.88h-1.45v2.88h-2.16v-2.88h-1.44v2.65l-.54.95h-9.22l-1.06-.9Zm-13.7,9-1.07.9H489l-.4-.72h-.12v-2.88h-1.44v2.88h-2.17v-2.88h-1.44v2.65l-.28.95h-9.22l-1.32-.9v-9l1.32-.92h9.3l.2.66v2.94h1.44v-2.88h2.17v2.88h1.44V388l.45-.69h9.3l1.07.92Zm0-18.76-1.07.91H489l-.4-.72h-.12v-2.88h-1.44v2.88h-2.17v-2.88h-1.44v2.65l-.28.95h-9.22l-1.32-.91v-9l1.32-.93h9.3l.2.67v2.94h1.44V369.3h2.17v2.88h1.44v-2.91l.45-.7h9.3l1.07.93Zm0-17.72-1.07,1.32H489l-.4-1.44h-.12v-2.88h-1.44v2.88h-2.17v-2.88h-1.44v2.95l-.28,1.37h-9.22l-1.32-1.32v-9l1.32-1.23h9.3l.2,1v2.63h1.44v-2.88h2.17v2.88h1.44v-2.6l.45-1h9.3l1.07,1.23Zm13.7-9,1.06-1.23h9.3l.46,1v2.63h1.44v-2.88h2.16v2.88h1.45v-2.6l.19-1h9.3l1.32,1.23v9l-1.32,1.32h-9.23l-.4-1.44h.14v-2.88h-1.45v2.88h-2.16v-2.88h-1.44v2.95l-.54,1.37h-9.22L513,360.76Zm.46,11.76H524.3l.41-1.45h3l.4,1.45H539l2.18-2.17V351.17L539,349.1H528.1l-.35.72h-3.06l-.35-.72H513.47l-1.9,2.07v3.7h-4.33v18.75h-2.89V354.87h-3.6v-3.7l-1.92-2.07H488l-.35.72h-3.06l-.35-.72H473.34l-2.16,2.07v10.19l2.16,2.17h10.83l.41-1.45h3l.4,1.45h10.83l1.92-2.17v-5.05h2.16v17.31h-2.16V368.9l-1.92-1.77H488l-.35.72h-3.06l-.35-.72H473.34l-2.16,1.77v10.18l2.16,1.75h10.83l.41-.72h3l.4.72h10.83l1.92-1.75v-4h2.16v16.59h-2.16v-4l-1.92-1.77H488l-.35.72h-3.06l-.35-.72H473.34l-2.16,1.77v10.18l2.16,1.76h10.83l.41-.73h3l.4.73h10.83l1.92-1.76v-4.74h3.6v-18h2.89v18h4.33v4.74l1.9,1.76H524.3l.41-.73h3l.4.73H539l2.18-1.76V387.65L539,385.88H528.1l-.35.72h-3.06l-.35-.72H513.47l-1.9,1.77v4h-2.89V375.06h2.89v4l1.9,1.75H524.3l.41-.72h3l.4.72H539l2.18-1.75V368.9L539,367.13H528.1l-.35.72h-3.06l-.35-.72H513.47l-1.9,1.77v4.72h-2.89V356.31h2.89v5.05Z" transform="translate(-123.93 -72.48)"/><path class="cls-29" d="M517.77,372v1.23h-1.18a2.1,2.1,0,0,1,1.18-1.23m2.77,1.23h-1.33V372a2.09,2.09,0,0,1,1.33,1.28M519.21,376v-1.28h1.33a2.09,2.09,0,0,1-1.33,1.28m-2.62-1.28h1.18v1.23a2.1,2.1,0,0,1-1.18-1.23m2,2.83A3.55,3.55,0,1,0,515,374a3.55,3.55,0,0,0,3.55,3.55" transform="translate(-123.93 -72.48)"/><path class="cls-29" d="M532.9,372.05v1.22h-1.16a2.11,2.11,0,0,1,1.16-1.22m2.79,1.22h-1.35V372a2.08,2.08,0,0,1,1.35,1.28M534.34,376v-1.28h1.35a2.08,2.08,0,0,1-1.35,1.28m-2.6-1.28h1.16v1.23a2.16,2.16,0,0,1-1.16-1.23m2,2.83a3.55,3.55,0,1,0-3.55-3.55,3.55,3.55,0,0,0,3.55,3.55" transform="translate(-123.93 -72.48)"/><path class="cls-29" d="M517.77,390.79V392h-1.18a2.1,2.1,0,0,1,1.18-1.23m2.77,1.23h-1.33v-1.28a2.09,2.09,0,0,1,1.33,1.28m-1.33,2.72v-1.28h1.33a2.09,2.09,0,0,1-1.33,1.28m-2.62-1.28h1.18v1.23a2.1,2.1,0,0,1-1.18-1.23m2,2.83a3.55,3.55,0,1,0-3.55-3.55,3.55,3.55,0,0,0,3.55,3.55" transform="translate(-123.93 -72.48)"/><path class="cls-29" d="M532.9,390.8V392h-1.16a2.11,2.11,0,0,1,1.16-1.22m2.79,1.22h-1.35v-1.28a2.08,2.08,0,0,1,1.35,1.28m-1.35,2.73v-1.29h1.35a2.09,2.09,0,0,1-1.35,1.29m-2.6-1.29h1.16v1.23a2.16,2.16,0,0,1-1.16-1.23m2,2.83a3.55,3.55,0,1,0-3.55-3.55,3.55,3.55,0,0,0,3.55,3.55" transform="translate(-123.93 -72.48)"/><path class="cls-28" d="M352,527.41a1.85,1.85,0,0,0,1.85-1.85V520a1.85,1.85,0,0,0-1.85-1.85h-5.56a1.85,1.85,0,0,0,0,3.7h1.09L334,535.37a1.85,1.85,0,0,0-.54,1.31v2c-2.74-.15-4.87-.17-5.56-.17s-2.82,0-5.56.17v-2a1.89,1.89,0,0,0-.54-1.31l-13.52-13.52h1.09a1.85,1.85,0,0,0,0-3.7h-5.56A1.85,1.85,0,0,0,302,520v5.56a1.86,1.86,0,0,0,3.71,0v-1.09l13,13V539c-7.49.68-16.68,2.45-16.68,7v5.56a3.67,3.67,0,0,0,1.42,2.78,3.71,3.71,0,0,0-1.42,2.78v5.56c0,7.21,23.29,7.42,25.95,7.42s25.94-.21,25.94-7.42v-5.56a3.68,3.68,0,0,0-1.42-2.78,3.64,3.64,0,0,0,1.42-2.78v-5.56c0-4.52-9.18-6.29-16.68-7v-1.52l13-13v1.09A1.85,1.85,0,0,0,352,527.41Zm-1.85,24a4.46,4.46,0,0,1-1.86,1.12v-1.62a16.76,16.76,0,0,0,1.86-.73Zm-5.51,2.22c-1.11.25-2.36.49-3.76.71V552.5c1.25-.18,2.5-.39,3.71-.64v1.5A1.14,1.14,0,0,0,344.67,553.6Zm-7.47,1.17c-1.16.12-2.4.21-3.7.28v-1.69a1,1,0,0,0,0-.17c1.16-.06,2.42-.15,3.74-.27Zm-7.41-1.41v1.83l-1.85,0-1.86,0v-1.86l1.86,0,1.86,0Zm-7.41,0v1.69c-1.3-.07-2.54-.16-3.71-.28v-1.85c1.32.12,2.59.21,3.74.27C322.41,553.25,322.38,553.3,322.38,553.36Zm-7.41.95c-1.42-.22-2.68-.46-3.79-.72a1.69,1.69,0,0,0,.08-.39v-1.34c1.2.25,2.45.46,3.71.64Zm-7.42-1.81a4.4,4.4,0,0,1-1.85-1.12v-1.23a16.58,16.58,0,0,0,1.85.73Zm-1.85,10v-1.23a16.58,16.58,0,0,0,1.85.73v1.62A4.4,4.4,0,0,1,305.7,562.5Zm16.68,3.67c-1.3-.07-2.54-.16-3.71-.28V564c1.32.12,2.59.21,3.74.27,0,.06,0,.11,0,.17Zm-7.41-.74c-1.42-.22-2.68-.46-3.79-.72a1.69,1.69,0,0,0,.08-.39V563c1.2.25,2.45.46,3.71.64Zm11.11.88v-1.86l1.86,0,1.86,0v1.86l-1.85,0ZM344.62,563v1.5a1.14,1.14,0,0,0,.05.24c-1.11.25-2.36.49-3.76.71v-1.81C342.16,563.44,343.41,563.23,344.62,563Zm-7.42,2.91c-1.16.12-2.4.21-3.7.28v-1.69a1,1,0,0,0,0-.17c1.16-.06,2.42-.15,3.74-.27Zm11.12-2.27V562a16.76,16.76,0,0,0,1.86-.73v1.23A4.46,4.46,0,0,1,348.32,563.62Zm1-7.08a3.7,3.7,0,0,1,.78.54c-1.37,1.42-9.32,3.69-22.12,3.69s-20.76-2.27-22.12-3.69a3.44,3.44,0,0,1,.78-.54l.49-.27c7,2.54,19,2.65,20.85,2.65s13.84-.11,20.85-2.65Zm.79-10.6c-1.32,1.42-9.29,3.71-22.13,3.71s-20.81-2.29-22.14-3.71c1-1,5.5-2.53,12.87-3.26v3.26a1.86,1.86,0,1,0,3.71,0v-3.55c1.74-.09,3.58-.15,5.56-.15s3.82.06,5.56.15v3.55a1.85,1.85,0,1,0,3.7,0v-3.26C344.57,543.41,349.1,544.91,350.07,545.94Z" transform="translate(-123.93 -72.48)"/><path class="cls-28" d="M704.3,521.89A29.9,29.9,0,1,0,713.06,543,29.94,29.94,0,0,0,704.3,521.89Zm-1.8,40.49a27.34,27.34,0,1,1,8-19.34A27.38,27.38,0,0,1,702.5,562.38Zm-12.24-20a5.16,5.16,0,0,0,1.54-3.7,5.44,5.44,0,0,0-5.31-5.36v-1.79a1.27,1.27,0,1,0-2.54,0v1.76h-4.11v-1.75a1.28,1.28,0,1,0-2.55,0v1.75h-1.75a1.27,1.27,0,1,0,0,2.54h1.75V550.2h-1.75a1.27,1.27,0,1,0,0,2.54h1.75v1.75a1.28,1.28,0,1,0,2.55,0v-1.75H684v1.75a1.27,1.27,0,0,0,2.54,0v-1.75H687a5.87,5.87,0,0,0,4.39-1.74,5.6,5.6,0,0,0-1.11-8.57Zm-4.48-6.55c2.4,0,3.47,1.43,3.47,2.85s-1.07,2.84-3.47,2.84h-5.94v-5.69Zm3.75,13.36a3.44,3.44,0,0,1-2.55,1h-7.14v-6.07H687a3,3,0,0,1,3.35,3A3,3,0,0,1,689.53,549.24ZM699.24,527A22.73,22.73,0,1,0,705.91,543,22.61,22.61,0,0,0,699.24,527Zm-1.8,30.37A20.19,20.19,0,1,1,703.36,543,20.22,20.22,0,0,1,697.44,557.32Z" transform="translate(-123.93 -72.48)"/><path class="cls-28" d="M524.13,707l-17.92-9a.51.51,0,0,0-.48,0l-17.92,9a.53.53,0,0,0-.24.72.56.56,0,0,0,.24.24l5.47,2.72-5.47,2.75a.53.53,0,0,0-.23.72.59.59,0,0,0,.23.24l5.47,2.74-5.47,2.73a.55.55,0,0,0,0,1c19.07,9.53,18,9,18.16,9s-1,.54,18.16-9a.55.55,0,0,0,.24-.73.59.59,0,0,0-.24-.23l-5.47-2.73,5.47-2.74a.54.54,0,0,0,.24-.72.69.69,0,0,0-.24-.24l-5.47-2.75,5.47-2.74a.54.54,0,0,0,.22-.73A.56.56,0,0,0,524.13,707Zm-1.44,13.35L506,728.72l-16.71-8.34,5.23-2.61,11.24,5.6a.51.51,0,0,0,.48,0l11.24-5.62Zm0-6.44c-12.47,6.23,1.55-.76-16.72,8.35l-16.71-8.35,5.22-2.61,5,2.48-2.68,1.35a.52.52,0,0,0-.24.72.51.51,0,0,0,.24.24l9,4.47a.53.53,0,0,0,.49,0l9-4.47a.54.54,0,0,0,.24-.72.56.56,0,0,0-.24-.24l-2.69-1.35,5-2.49Zm-22,.48c5.49,2.74,5.13,2.58,5.31,2.58s-.22.17,5.3-2.59l2.46,1.23L506,719.51l-7.76-3.87Zm5.31,1.44-16.71-8.37L506,699.15l16.72,8.34Z" transform="translate(-123.93 -72.48)"/><path class="cls-28" d="M505.73,701.07l-11.91,6a.54.54,0,0,0-.24.72.56.56,0,0,0,.24.24c12.86,6.42,12,6,12.15,6s-.54.34,12.15-6a.53.53,0,0,0,.23-.72.51.51,0,0,0-.23-.23l-11.91-6A.57.57,0,0,0,505.73,701.07Zm10.95,6.42L506,712.86l-4.75-2.37,10.71-5.38Zm-5.95-3L500,709.9l-4.75-2.41L506,702.15C511.38,704.86,510.67,704.47,510.73,704.53Z" transform="translate(-123.93 -72.48)"/><path class="cls-28" d="M531.22,693.43a.54.54,0,0,0,.54-.54v-4.21a.54.54,0,0,0-.54-.53H527a.54.54,0,0,0-.54.53v1.57H508.61v-1.57a.53.53,0,0,0-.53-.53h-4.22a.53.53,0,0,0-.53.53v1.57H485.46v-1.57a.54.54,0,0,0-.54-.53h-4.2a.54.54,0,0,0-.54.53v4.21a.54.54,0,0,0,.54.54h1.57v17.86h-1.57a.54.54,0,0,0-.54.54V716a.54.54,0,0,0,.54.54h1.57v17.87h-1.57a.54.54,0,0,0-.54.53v4.21a.54.54,0,0,0,.54.54h4.2a.54.54,0,0,0,.54-.54v-1.57h17.87v1.57a.54.54,0,0,0,.53.54h4.22a.54.54,0,0,0,.53-.54v-1.57h17.87v1.57a.54.54,0,0,0,.54.54h4.2a.54.54,0,0,0,.54-.54V735a.54.54,0,0,0-.54-.53h-1.56V716.58h1.56a.54.54,0,0,0,.54-.54v-4.21a.54.54,0,0,0-.54-.54h-1.56V693.43Zm-26.82-4.21h3.14v3.13H504.4Zm-23.15,3.13v-3.13h3.14v3.13Zm0,23.16v-3.14h3.14v3.14Zm3.14,23.14h-3.14v-3.13h3.14Zm23.15,0H504.4v-3.13h3.14ZM526.48,735v1.57H508.61V735a.53.53,0,0,0-.53-.53h-4.22a.53.53,0,0,0-.53.53v1.57H485.46V735a.54.54,0,0,0-.54-.53h-1.56V716.58h1.56a.54.54,0,0,0,.54-.54v-4.21a.54.54,0,0,0-.54-.54h-1.56V693.43h1.56a.54.54,0,0,0,.54-.54v-1.56h17.87v1.56a.54.54,0,0,0,.53.54h4.22a.54.54,0,0,0,.53-.54v-1.56h17.87v1.56a.54.54,0,0,0,.54.54h1.56v17.86H527a.54.54,0,0,0-.54.54V716a.54.54,0,0,0,.54.54h1.56v17.87H527A.54.54,0,0,0,526.48,735Zm4.21.54v3.13h-3.14v-3.13Zm0-23.15v3.14h-3.14v-3.14Zm-3.14-20v-3.13h3.14v3.13Z" transform="translate(-123.93 -72.48)"/><path class="cls-29" d="M330.52,882.25a3.28,3.28,0,0,0-1.75-.5,1.36,1.36,0,0,1-1.43-1.26,1.15,1.15,0,0,1,.61-1,1.53,1.53,0,0,1,.81-.22,3.38,3.38,0,0,1,1.81.58.88.88,0,0,0,1.22-.23.89.89,0,0,0-.23-1.23,5.12,5.12,0,0,0-1.93-.79V877a.88.88,0,0,0-1.76,0v.56a3,3,0,0,0-2.29,2.92,3.11,3.11,0,0,0,3.2,3,1.37,1.37,0,0,1,1.41,1.26,1.2,1.2,0,0,1-.6,1,2.7,2.7,0,0,1-2.69-.36.87.87,0,0,0-1.21.26.88.88,0,0,0,.25,1.22,5.53,5.53,0,0,0,1.93.78v.53a.88.88,0,0,0,1.76,0v-.55a3,3,0,0,0,.89-5.43Zm21.85,21.48v0a.73.73,0,0,0-.38-.24.75.75,0,0,0-.62.06l-5.18,2.79c-3,1.8-6.27,3.33-10.28,3.33a18.82,18.82,0,0,1-7.29-1.57.88.88,0,0,1,.25-1.69l9.94-1c1.3-.13,1.08-1.63.09-1.64l-7.76,0a2.51,2.51,0,0,1-.7-.19,9.5,9.5,0,0,0-3.92-.53c-3.07,0-7.13.95-8.61,2.71a.88.88,0,0,1-.66.32h-1.72v7H321a25.08,25.08,0,0,1,4,.29c4.91.7,10.49,1.29,14.58-.57L352.1,905c.25-.15.28-.42.27-1.25Zm-38.6.56a.8.8,0,0,0-.8-.8h-8.8a.8.8,0,0,0-.8.8v10.52a.8.8,0,0,0,.8.8H313a.8.8,0,0,0,.8-.8V904.29Zm27.62.94,5.78-3.31a1.26,1.26,0,0,1,1,0,1,1,0,0,0,.1.37.82.82,0,0,1-.33,1.1l-5.39,2.91h0a14.86,14.86,0,0,1-9,1.4l5.48-.55a2.69,2.69,0,0,0,2.4-1.91ZM353,906.48l-12.65,7.85c-4.69,2.12-10.61,1.45-15.61.74a23,23,0,0,0-3.78-.27h-5.46a2.57,2.57,0,0,1-2.56,2.57h-8.8a2.56,2.56,0,0,1-2.56-2.56V904.29a2.56,2.56,0,0,1,2.56-2.56H313a2.57,2.57,0,0,1,2.56,2.53h1.32c2.35-2.38,7.29-3,9.67-3a11.08,11.08,0,0,1,4.48.63l.29.09,7.62,0a2.59,2.59,0,0,1,2.25,1.35l5.14-2.94a2.92,2.92,0,0,1,2.74,0,1.69,1.69,0,0,1,.86,1.23,2.74,2.74,0,0,1,.18.6l.46-.24a2.58,2.58,0,0,1,3.49,1,1.41,1.41,0,0,1,.1.7,2.85,2.85,0,0,1-1.1,2.77Zm-16.94-23.85a7.34,7.34,0,1,1-7.34-7.34,7.34,7.34,0,0,1,7.34,7.34Zm1.76,0a9.1,9.1,0,1,1-9.1-9.1,9.11,9.11,0,0,1,9.1,9.1Zm2.74,2.12a.89.89,0,0,0-.57.62,11.68,11.68,0,0,1-1.29,3.15,1,1,0,0,0-.11,1l1.27,2.48-1.79,1.78-2.48-1.26a.87.87,0,0,0-.84,0,11.59,11.59,0,0,1-3.14,1.33.91.91,0,0,0-.77.62l-.86,2.64h-2.52l-.86-2.64a.88.88,0,0,0-.62-.58,11.37,11.37,0,0,1-3.15-1.29.93.93,0,0,0-1-.1l-2.48,1.26L317.61,892l1.26-2.48a.88.88,0,0,0,0-.85,11.59,11.59,0,0,1-1.33-3.14.91.91,0,0,0-.62-.77l-2.64-.86v-2.52l2.64-.86a.86.86,0,0,0,.58-.62,11.25,11.25,0,0,1,1.29-3.15.91.91,0,0,0,.1-1l-1.26-2.49,1.78-1.78,2.48,1.26a.88.88,0,0,0,.85,0,11.59,11.59,0,0,1,3.14-1.33.91.91,0,0,0,.77-.62l.86-2.64H330l.86,2.64a.86.86,0,0,0,.62.58,11.5,11.5,0,0,1,3.15,1.29.91.91,0,0,0,1,.1l2.48-1.26,1.79,1.78-1.27,2.49a.89.89,0,0,0,0,.84,11.59,11.59,0,0,1,1.33,3.14.92.92,0,0,0,.61.77l2.65.86v2.52l-2.65.86Zm1,1.53a12.89,12.89,0,0,1-1.18,2.85l1.34,2.63a.88.88,0,0,1-.16,1l-2.69,2.69a.88.88,0,0,1-1,.16l-2.63-1.34a13.42,13.42,0,0,1-2.85,1.19l-.91,2.8a.88.88,0,0,1-.84.6h-3.8a.88.88,0,0,1-.84-.6l-.91-2.8a13.72,13.72,0,0,1-2.86-1.19l-2.62,1.34a.88.88,0,0,1-1-.16l-2.69-2.69a.88.88,0,0,1-.16-1l1.34-2.63a12.92,12.92,0,0,1-1.19-2.85l-2.8-.91a.88.88,0,0,1-.6-.84v-3.8a.88.88,0,0,1,.6-.84l2.8-.91a12.92,12.92,0,0,1,1.19-2.85l-1.34-2.63a.88.88,0,0,1,.16-1l2.69-2.69a.88.88,0,0,1,1-.16l2.62,1.34a13.72,13.72,0,0,1,2.86-1.19L326,867a.88.88,0,0,1,.84-.61h3.8a.88.88,0,0,1,.84.61l.91,2.79a13.42,13.42,0,0,1,2.85,1.19l2.63-1.34a.88.88,0,0,1,1,.16l2.69,2.69a.88.88,0,0,1,.16,1l-1.34,2.63a12.89,12.89,0,0,1,1.18,2.85l2.8.91a.88.88,0,0,1,.61.84v3.8a.88.88,0,0,1-.61.84l-2.8.91Zm-39.71,7a.88.88,0,0,1,1.1-.57l4.52,1.42a23.88,23.88,0,1,1,41.65,1.51.88.88,0,0,1-1.21.3.87.87,0,0,1-.29-1.21,22.12,22.12,0,1,0-38.57-1.38l1.44-4.57a.88.88,0,0,1,1.68.53l-2.07,6.57a.88.88,0,0,1-1.11.57l-6.57-2.06A.89.89,0,0,1,301.88,893.23Z" transform="translate(-123.93 -72.48)"/><path class="cls-28" d="M677.84,904.79a16.06,16.06,0,0,1-10.5-11.2h-1.5A1,1,0,0,1,665,892l21-31a1,1,0,0,1,1.83.57v12.79a16,16,0,0,1,10.49,11.21h1.51a1,1,0,0,1,.83,1.56l-21,31a1,1,0,0,1-1.83-.56Zm0-11.2h-8.42a14,14,0,0,0,8.42,9.08Zm10-17.09v9.09h8.42A14,14,0,0,0,687.84,876.5Zm-8,37.83L698,887.59H686.84a1,1,0,0,1-1-1V864.84l-18.12,26.75h11.12a1,1,0,0,1,1,1Zm-29-23.74a1,1,0,0,1,0-2h6a1,1,0,0,1,0,2Zm58,0a1,1,0,0,1,0-2h6a1,1,0,0,1,0,2ZM659,868.25l4.59,3.86a1,1,0,1,1-1.28,1.53l-4.6-3.86A1,1,0,0,1,659,868.25Zm44.43,37.28,4.6,3.86a1,1,0,0,1-1.29,1.53l-4.6-3.86A1,1,0,0,1,703.4,905.53ZM659,910.92a1,1,0,1,1-1.29-1.53l4.6-3.86a1,1,0,1,1,1.28,1.53Zm44.43-37.28a1,1,0,1,1-1.29-1.53l4.6-3.86a1,1,0,0,1,1.29,1.53Z" transform="translate(-123.93 -72.48)"/><path class="cls-26" d="M243.16,890H152.43a28.08,28.08,0,0,1-28-28V101a28.08,28.08,0,0,1,28-28h554.3c15.4,0,28,4.94,28,11v9.47" transform="translate(-123.93 -72.48)"/><polygon class="cls-27" points="605.07 16.31 606.09 15.36 610.79 20.41 615.49 15.36 616.52 16.31 610.79 22.47 605.07 16.31"/><path class="cls-26" d="M682.8,651.48v45.67a15,15,0,0,1-15,15H584.59" transform="translate(-123.93 -72.48)"/><polygon class="cls-27" points="465.96 633.12 467.05 634.29 461.27 639.67 467.05 645.04 465.96 646.21 458.92 639.67 465.96 633.12"/><path class="cls-26" d="M583.16,375.62h87.58a15,15,0,0,1,15,15v71.83" transform="translate(-123.93 -72.48)"/><polygon class="cls-27" points="555.26 384.67 556.43 383.58 561.8 389.36 567.18 383.58 568.35 384.67 561.8 391.71 555.26 384.67"/><path class="cls-26" d="M332.49,649.83V695.5a15,15,0,0,0,15,15H430.7" transform="translate(-123.93 -72.48)"/><polygon class="cls-27" points="301.46 644.57 300.37 643.4 306.15 638.03 300.37 632.65 301.46 631.48 308.5 638.03 301.46 644.57"/></svg>