<svg width="117" height="114" viewBox="0 0 117 114" fill="none" xmlns="http://www.w3.org/2000/svg">
<g clip-path="url(#clip0_676_2157)">
<path d="M91.7155 30.4496H25.2204L-0.0214844 55.6189L56.6475 112.173L58.4679 114L60.299 112.173L116.979 55.6189L91.7155 30.4496ZM58.4679 108.125L53.7092 103.376L5.87646 55.5657L26.945 34.5506H89.9909L111.081 55.5657L63.1734 103.376L58.4679 108.125Z" fill="#55BCC5"/>
<path d="M37.1016 53.5364L53.7307 103.376L56.669 112.173L58.4896 114L60.3206 112.173L63.2483 103.376L79.8774 53.5364H37.1016ZM58.4896 104.481L42.8824 57.7331H74.0966L58.4896 104.481Z" fill="#55BCC5"/>
<path d="M43.681 57.7012H2.94922V53.5471H36.3246L24.3265 33.605L27.8929 31.4589L43.681 57.7012Z" fill="#55BCC5"/>
<path d="M39.7523 59.2524L24.3262 33.605L27.8926 31.4589L40.242 51.9853L56.8711 31.2358L60.1288 33.8281L39.7523 59.2524Z" fill="#55BCC5"/>
<path d="M77.237 59.2524L56.8711 33.8281L60.1288 31.2358L76.7473 51.9853L89.0967 31.4589L92.6631 33.605L77.237 59.2524Z" fill="#55BCC5"/>
<path d="M114.062 57.7012H73.3086L89.0967 31.4589L92.6631 33.605L80.6757 53.5471H114.062V57.7012Z" fill="#55BCC5"/>
<path d="M60.5864 0H56.4238V13.8649H60.5864V0Z" fill="#55BCC5"/>
<path d="M73.522 2.60098L68.2031 15.4094L72.0486 16.9998L77.3674 4.19136L73.522 2.60098Z" fill="#55BCC5"/>
<path d="M88.2614 11.4375L78.4375 21.2415L81.3809 24.1789L91.2049 14.375L88.2614 11.4375Z" fill="#55BCC5"/>
<path d="M43.5157 2.57222L39.6699 4.16195L44.9866 16.9714L48.8323 15.3817L43.5157 2.57222Z" fill="#55BCC5"/>
<path d="M28.7604 11.4846L25.8164 14.4215L35.6386 24.2272L38.5826 21.2903L28.7604 11.4846Z" fill="#55BCC5"/>
</g>
<defs>
<clipPath id="clip0_676_2157">
<rect width="117" height="114" fill="white"/>
</clipPath>
</defs>
</svg>
