<svg width="134" height="121" viewBox="0 0 134 121" fill="none" xmlns="http://www.w3.org/2000/svg">
<g clip-path="url(#clip0_676_2449)">
<path d="M4.61141 79.1185V9.31222C4.62658 8.08209 5.11853 6.90663 5.98227 6.03673C6.846 5.16683 8.01313 4.67137 9.23454 4.65609H120.142C120.749 4.65609 121.35 4.77661 121.91 5.01075C122.47 5.24488 122.979 5.58803 123.407 6.02055C123.836 6.45306 124.175 6.96647 124.406 7.5313C124.637 8.09614 124.755 8.70133 124.754 9.31222V37.2371H129.377V9.31222C129.377 6.8445 128.404 4.47769 126.673 2.73164C124.941 0.985602 122.593 0.00312369 120.142 0H9.23454C6.78431 0.00312369 4.43547 0.985602 2.704 2.73164C0.972524 4.47769 -1.963e-06 6.8445 0 9.31222V88.4308C0 90.8974 0.972903 93.263 2.70471 95.0072C4.43652 96.7514 6.78539 97.7312 9.23454 97.7312H50.0349L44.4872 116.344H39.2672V121.059H90.098V116.344H84.8429L79.2951 97.7312H120.096C122.545 97.7312 124.894 96.7514 126.625 95.0072C128.357 93.263 129.33 90.8974 129.33 88.4308V79.1185H4.61141ZM80.0676 116.344H49.3093L54.857 97.7312H74.5199L80.0676 116.344ZM124.754 88.4308C124.755 89.0411 124.637 89.6457 124.406 90.2099C124.175 90.7741 123.835 91.2867 123.407 91.7183C122.978 92.1498 122.469 92.4919 121.909 92.7247C121.349 92.9576 120.748 93.0767 120.142 93.0751H9.23454C8.62797 93.0767 8.02704 92.9576 7.46621 92.7249C6.90537 92.4922 6.39564 92.1504 5.96619 91.719C5.53675 91.2876 5.19599 90.775 4.96352 90.2108C4.73104 89.6465 4.61141 89.0417 4.61141 88.4308V83.7157H124.754V88.4308Z" fill="#72BBC4"/>
<path d="M104.471 42.8127L104.097 42.6005C100.573 40.5586 96.5919 39.4537 92.5274 39.3897C88.4629 39.3258 84.449 40.305 80.8641 42.2351V37.2371C80.8641 36.6119 80.6175 36.0122 80.1785 35.5701C79.7395 35.128 79.1441 34.8796 78.5233 34.8796H71.6179V27.9013C71.6179 27.2761 71.3713 26.6764 70.9323 26.2343C70.4933 25.7922 69.8979 25.5438 69.2771 25.5438H62.6058L75.7026 23.0095C76.2989 22.8841 76.8232 22.5295 77.1641 22.0211C77.5051 21.5127 77.6357 20.8904 77.5285 20.2865L75.7728 11.1511C75.6484 10.5506 75.2963 10.0225 74.7915 9.67917C74.2866 9.33582 73.6688 9.20421 73.0692 9.31225L50.3867 13.7326C49.7904 13.858 49.2661 14.2125 48.9252 14.721C48.5843 15.2294 48.4536 15.8516 48.5609 16.4555L50.3048 25.5556H46.22C45.5992 25.5556 45.0039 25.804 44.5649 26.2461C44.1259 26.6882 43.8792 27.2879 43.8792 27.9131V37.2253C43.8792 37.8506 44.1259 38.4502 44.5649 38.8924C45.0039 39.3345 45.5992 39.5829 46.22 39.5829H53.1488V46.5847C53.1488 47.21 53.3955 47.8096 53.8345 48.2517C54.2735 48.6939 54.8688 48.9422 55.4897 48.9422H56.309C55.4745 50.6419 55.2711 52.586 55.7355 54.4235L42.978 47.3509C41.2466 46.3861 39.2105 46.1376 37.3004 46.6577C35.3903 47.1779 33.7561 48.4261 32.7434 50.1382C31.7308 51.8502 31.4191 53.8919 31.8744 55.8313C32.3297 57.7706 33.5163 59.4555 35.1831 60.5295L53.1606 72.046C55.7558 73.7098 58.7686 74.5931 61.845 74.5921H134.001V69.8064H108.591V46.5847H134.001V41.8697H106.274C105.922 41.8804 105.578 41.9708 105.266 42.134C104.954 42.2973 104.682 42.5292 104.471 42.8127ZM71.6999 14.3691L72.5777 18.931L54.4363 22.4672L53.5585 17.9054L71.6999 14.3691ZM48.5609 30.2471H67.0416V34.9032H48.5609V30.2471ZM69.359 39.5593H76.2878V44.2272H57.7603V39.5121L69.359 39.5593ZM55.5833 67.9911L37.6059 56.4746C36.9944 56.032 36.57 55.3745 36.4165 54.6321C36.2629 53.8896 36.3915 53.1162 36.7768 52.4646C37.162 51.813 37.7759 51.3306 38.4972 51.1128C39.2184 50.8949 39.9946 50.9574 40.6723 51.288L56.6133 60.2112C56.9723 60.4078 57.3751 60.5092 57.7837 60.5059H80.8641C81.414 60.4175 81.9146 60.1346 82.276 59.7079C82.6374 59.2812 82.836 58.7387 82.836 58.1778C82.836 57.617 82.6374 57.0745 82.276 56.6478C81.9146 56.2212 81.414 55.9382 80.8641 55.8498H63.5304C63.0277 55.9333 62.513 55.9056 62.0221 55.7687C61.5311 55.6318 61.0756 55.389 60.6871 55.057C60.2987 54.725 59.9866 54.3119 59.7726 53.8463C59.5586 53.3807 59.4477 52.8737 59.4477 52.3607C59.4477 51.8476 59.5586 51.3406 59.7726 50.875C59.9866 50.4094 60.2987 49.9963 60.6871 49.6643C61.0756 49.3323 61.5311 49.0895 62.0221 48.9526C62.513 48.8157 63.0277 48.788 63.5304 48.8715H78.5467C78.8355 48.8606 79.1204 48.8009 79.3894 48.6947C79.4762 48.6566 79.5585 48.6091 79.6352 48.5533C79.7621 48.4982 79.8836 48.4311 79.998 48.3529C83.0371 45.8859 86.746 44.4025 90.6375 44.0974C94.5291 43.7924 98.4212 44.68 101.803 46.6436L103.968 47.8931V69.8064H61.8333C59.62 69.8193 57.4499 69.189 55.5833 67.9911Z" fill="#72BBC4"/>
<path d="M117.836 60.5059H113.213V65.162H117.836V60.5059Z" fill="#72BBC4"/>
<path d="M16.1624 34.9036C16.1538 35.4636 16.3435 36.0083 16.6973 36.4403C17.0511 36.8722 17.5461 37.1632 18.0935 37.2612C19.3523 37.4722 20.5142 38.0743 21.4166 38.9831C22.3189 39.8919 22.9167 41.0621 23.1263 42.3299C23.2442 42.8507 23.5342 43.3158 23.9488 43.649C24.3635 43.9821 24.8781 44.1635 25.4086 44.1635C25.939 44.1635 26.4537 43.9821 26.8684 43.649C27.283 43.3158 27.573 42.8507 27.6909 42.3299C27.9005 41.0621 28.4983 39.8919 29.4006 38.9831C30.303 38.0743 31.4648 37.4722 32.7236 37.2612C33.2352 37.1378 33.6906 36.8445 34.0163 36.4285C34.3421 36.0126 34.5193 35.4982 34.5193 34.9685C34.5193 34.4387 34.3421 33.9244 34.0163 33.5084C33.6906 33.0925 33.2352 32.7992 32.7236 32.6758C31.4655 32.463 30.3046 31.8604 29.4026 30.9519C28.5005 30.0434 27.9021 28.8742 27.6909 27.6071C27.573 27.0862 27.283 26.6211 26.8684 26.288C26.4537 25.9549 25.939 25.7734 25.4086 25.7734C24.8781 25.7734 24.3635 25.9549 23.9488 26.288C23.5342 26.6211 23.2442 27.0862 23.1263 27.6071C22.9151 28.8742 22.3167 30.0434 21.4146 30.9519C20.5126 31.8604 19.3516 32.463 18.0935 32.6758C17.5675 32.7695 17.0892 33.0416 16.7379 33.4468C16.3867 33.852 16.1836 34.3661 16.1624 34.9036ZM25.4086 33.383C25.865 33.9389 26.3747 34.4482 26.9302 34.9036C26.3717 35.36 25.8617 35.8736 25.4086 36.436C24.9554 35.8736 24.4455 35.36 23.8871 34.9036C24.4425 34.4482 24.9521 33.9389 25.4086 33.383Z" fill="#72BBC4"/>
<path d="M94.6859 11.2215C94.5634 10.7063 94.2722 10.2477 93.8592 9.91959C93.4462 9.59149 92.9356 9.41309 92.4096 9.41309C91.8836 9.41309 91.3728 9.59149 90.9598 9.91959C90.5468 10.2477 90.2556 10.7063 90.1331 11.2215C89.9202 12.4879 89.3214 13.6562 88.4196 14.5645C87.5178 15.4727 86.3577 16.0758 85.1003 16.2902C84.5888 16.4136 84.1334 16.7069 83.8077 17.1229C83.4819 17.5388 83.3047 18.0531 83.3047 18.5829C83.3047 19.1127 83.4819 19.627 83.8077 20.0429C84.1334 20.4589 84.5888 20.7522 85.1003 20.8756C86.3577 21.09 87.5178 21.6931 88.4196 22.6013C89.3214 23.5095 89.9202 24.6779 90.1331 25.9443C90.2556 26.4595 90.5468 26.9181 90.9598 27.2462C91.3728 27.5743 91.8836 27.7527 92.4096 27.7527C92.9356 27.7527 93.4462 27.5743 93.8592 27.2462C94.2722 26.9181 94.5634 26.4595 94.6859 25.9443C94.8995 24.6762 95.5001 23.5067 96.4042 22.5983C97.3083 21.6899 98.4708 21.0878 99.7304 20.8756C100.242 20.7522 100.697 20.4589 101.023 20.0429C101.349 19.627 101.526 19.1127 101.526 18.5829C101.526 18.0531 101.349 17.5388 101.023 17.1229C100.697 16.7069 100.242 16.4136 99.7304 16.2902C98.4708 16.078 97.3083 15.4759 96.4042 14.5675C95.5001 13.6591 94.8995 12.4896 94.6859 11.2215ZM92.4154 20.1094C91.956 19.5526 91.4467 19.0396 90.8938 18.577C91.4494 18.1217 91.959 17.6124 92.4154 17.0564C92.8687 17.6151 93.3787 18.1247 93.9369 18.577C93.3796 19.0476 92.8698 19.5728 92.4154 20.1448V20.1094Z" fill="#72BBC4"/>
<path d="M13.8692 9.3125H9.24609V13.9686H13.8692V9.3125Z" fill="#72BBC4"/>
<path d="M23.1036 9.3125H18.4805V13.9686H23.1036V9.3125Z" fill="#72BBC4"/>
<path d="M32.3497 9.3125H27.7266V13.9686H32.3497V9.3125Z" fill="#72BBC4"/>
</g>
<defs>
<clipPath id="clip0_676_2449">
<rect width="134" height="121" fill="white"/>
</clipPath>
</defs>
</svg>
