<svg width="81" height="126" viewBox="0 0 81 126" fill="none" xmlns="http://www.w3.org/2000/svg">
<path d="M70.7278 108.197C70.7278 108.818 70.4832 109.413 70.0476 109.851C69.612 110.29 69.0211 110.537 68.4051 110.537C67.7891 110.537 67.1983 110.29 66.7627 109.851C66.3271 109.413 66.0824 108.818 66.0824 108.197V17.791C66.0824 17.0414 65.7875 16.3223 65.2623 15.7913C64.737 15.2602 64.0242 14.9604 63.2799 14.9575H17.7529C17.1368 14.9575 16.5461 14.7111 16.1105 14.2724C15.6749 13.8337 15.4302 13.2387 15.4302 12.6183C15.4302 11.9979 15.6749 11.4029 16.1105 10.9642C16.5461 10.5255 17.1368 10.2791 17.7529 10.2791H63.3127C65.2881 10.2849 67.1807 11.0785 68.5765 12.4863C69.9723 13.8942 70.7576 15.8015 70.7605 17.791L70.7278 108.197ZM73.5413 4.72204C74.2855 4.72204 74.9995 5.01903 75.5268 5.54803C76.0541 6.07703 76.3517 6.7949 76.3546 7.54447V97.7971C76.3546 98.4174 76.5994 99.0125 77.035 99.4512C77.4706 99.8899 78.0613 100.136 78.6773 100.136C79.2934 100.136 79.8841 99.8899 80.3197 99.4512C80.7553 99.0125 81 98.4174 81 97.7971V7.48957C80.9943 5.5011 80.2058 3.59604 78.8076 2.19204C77.4095 0.788031 75.5157 -0.000376642 73.5413 -0.000368142H27.9924C27.6747 -0.0223284 27.356 0.0217302 27.0559 0.129068C26.7559 0.236406 26.4809 0.404729 26.2482 0.623587C26.0154 0.842445 25.8298 1.10718 25.7029 1.40131C25.5761 1.69544 25.5106 2.01268 25.5106 2.33337C25.5106 2.65406 25.5761 2.97134 25.7029 3.26547C25.8298 3.5596 26.0154 3.8243 26.2482 4.04316C26.4809 4.26201 26.7559 4.43034 27.0559 4.53768C27.356 4.64501 27.6747 4.68907 27.9924 4.66711L73.5413 4.72204ZM51.9499 126H8.50571C6.24887 125.997 4.08537 125.092 2.49056 123.484C0.895753 121.875 -1.84999e-06 119.695 0 117.422V29.2565C-1.84999e-06 26.9836 0.895753 24.8036 2.49056 23.1954C4.08537 21.5872 6.24887 20.6822 8.50571 20.6793H51.9499C54.2069 20.6851 56.3698 21.5906 57.9658 23.1979C59.5617 24.8052 60.4608 26.9835 60.4666 29.2565V117.422C60.4666 119.697 59.5692 121.879 57.972 123.487C56.3748 125.096 54.2087 126 51.9499 126ZM51.9499 121.321C52.9766 121.321 53.9613 120.91 54.6873 120.179C55.4133 119.448 55.8212 118.456 55.8212 117.422V29.2565C55.8212 28.2225 55.4133 27.2308 54.6873 26.4997C53.9613 25.7685 52.9766 25.3578 51.9499 25.3578H8.50571C7.47901 25.3578 6.49434 25.7685 5.76835 26.4997C5.04237 27.2308 4.63449 28.2225 4.63449 29.2565V117.422C4.63449 118.456 5.04237 119.448 5.76835 120.179C6.49434 120.91 7.47901 121.321 8.50571 121.321H51.9499ZM38.7007 115.325H21.6785C21.0885 115.326 20.5208 115.098 20.0926 114.689C19.6644 114.281 19.4084 113.722 19.3776 113.128C19.3155 111.45 18.6089 109.862 17.4066 108.698C16.2044 107.535 14.6004 106.886 12.9329 106.89C12.3097 106.891 11.7108 106.647 11.263 106.21C10.8153 105.774 10.5538 105.179 10.534 104.551V42.1278C10.5343 41.8168 10.5961 41.509 10.7159 41.2223C10.8358 40.9357 11.0112 40.676 11.2319 40.4584C11.4559 40.2402 11.7205 40.0686 12.0106 39.9537C12.3007 39.8387 12.6104 39.7826 12.922 39.7885C14.593 39.801 16.2029 39.1559 17.4086 37.9908C18.6144 36.8257 19.3209 35.2325 19.3776 33.5506C19.4084 32.9572 19.6644 32.3984 20.0926 31.9896C20.5208 31.5808 21.0885 31.3533 21.6785 31.3541H38.7007C39.2929 31.353 39.8633 31.5798 40.295 31.988C40.7268 32.3963 40.9873 32.9553 41.0234 33.5506C41.0855 35.225 41.7892 36.81 42.9867 37.9731C44.1843 39.1362 45.7826 39.7869 47.4463 39.7885C48.0542 39.7616 48.6482 39.977 49.0993 40.3882C49.5505 40.7994 49.8223 41.3732 49.8562 41.985V104.474C49.8562 105.092 49.6127 105.684 49.1792 106.121C48.7456 106.557 48.1575 106.803 47.5444 106.803H47.3045C45.6647 106.838 44.1004 107.504 42.9325 108.664C41.7646 109.824 41.0815 111.39 41.0234 113.04C41.012 113.652 40.7619 114.235 40.3272 114.662C39.8926 115.09 39.3082 115.328 38.7007 115.325ZM36.7052 110.646C37.2104 108.607 38.2783 106.754 39.7853 105.3C41.2924 103.846 43.1771 102.852 45.2217 102.432V44.2913C43.1799 43.8726 41.2971 42.8814 39.7903 41.4319C38.2835 39.9823 37.214 38.1335 36.7052 36.0985H23.7504C23.2436 38.1327 22.1762 39.9811 20.6712 41.4307C19.1663 42.8803 17.2851 43.872 15.2447 44.2913V102.443C17.286 102.864 19.1674 103.858 20.6723 105.309C22.1772 106.761 23.2442 108.611 23.7504 110.646H36.7052ZM35.1567 82.312C33.8475 83.6079 32.0852 84.3339 30.2496 84.3339C28.4139 84.3339 26.6517 83.6079 25.3425 82.312L21.3624 78.3035C20.0757 76.9849 19.3546 75.2102 19.3546 73.3615C19.3546 71.5127 20.0757 69.738 21.3624 68.4194L25.3425 64.4328C26.6462 63.1264 28.4105 62.393 30.2496 62.393C32.0887 62.393 33.853 63.1264 35.1567 64.4328L39.126 68.4194C40.4232 69.7324 41.1515 71.5093 41.1515 73.3615C41.1515 75.2137 40.4232 76.9905 39.126 78.3035L35.1567 82.312ZM31.8853 79.0173L35.8764 75.0308C36.2977 74.5872 36.5328 73.9972 36.5328 73.3834C36.5328 72.7697 36.2977 72.1796 35.8764 71.7361L31.8853 67.7165C31.4489 67.2846 30.8615 67.0425 30.2496 67.0425C29.6377 67.0425 29.0503 67.2846 28.6139 67.7165L24.6555 71.7251C24.4327 71.9358 24.2565 72.1914 24.1382 72.4752C24.0198 72.759 23.962 73.0647 23.9685 73.3724C23.9664 73.6812 24.0261 73.9872 24.1442 74.2721C24.2622 74.557 24.4361 74.8151 24.6555 75.0308L28.6139 79.0283C28.8279 79.2461 29.0827 79.4191 29.3634 79.5371C29.6442 79.6551 29.9453 79.7159 30.2496 79.7159C30.5538 79.7159 30.8551 79.6551 31.1359 79.5371C31.4166 79.4191 31.6713 79.2461 31.8853 79.0283V79.0173ZM32.5614 52.8685V46.0375C32.5832 45.7175 32.5395 45.3965 32.4329 45.0943C32.3263 44.7921 32.1592 44.5152 31.9419 44.2808C31.7246 44.0464 31.4617 43.8595 31.1697 43.7318C30.8776 43.604 30.5625 43.538 30.2441 43.538C29.9257 43.538 29.6108 43.604 29.3187 43.7318C29.0267 43.8595 28.7638 44.0464 28.5465 44.2808C28.3292 44.5152 28.1621 44.7921 28.0555 45.0943C27.9489 45.3965 27.9051 45.7175 27.9269 46.0375V52.8575C27.9051 53.1774 27.9489 53.4984 28.0555 53.8006C28.1621 54.1028 28.3292 54.3797 28.5465 54.6141C28.7638 54.8485 29.0267 55.0354 29.3187 55.1632C29.6108 55.2909 29.9257 55.3569 30.2441 55.3569C30.5625 55.3569 30.8776 55.2909 31.1697 55.1632C31.4617 55.0354 31.7246 54.8485 31.9419 54.6141C32.1592 54.3797 32.3263 54.1028 32.4329 53.8006C32.5395 53.4984 32.5832 53.1774 32.5614 52.8575V52.8685ZM32.5614 100.707V93.8764C32.5832 93.5564 32.5395 93.2354 32.4329 92.9332C32.3263 92.6311 32.1592 92.3541 31.9419 92.1198C31.7246 91.8854 31.4617 91.6985 31.1697 91.5707C30.8776 91.4429 30.5625 91.377 30.2441 91.377C29.9257 91.377 29.6108 91.4429 29.3187 91.5707C29.0267 91.6985 28.7638 91.8854 28.5465 92.1198C28.3292 92.3541 28.1621 92.6311 28.0555 92.9332C27.9489 93.2354 27.9051 93.5564 27.9269 93.8764V100.707C27.9051 101.027 27.9489 101.348 28.0555 101.651C28.1621 101.953 28.3292 102.23 28.5465 102.464C28.7638 102.698 29.0267 102.885 29.3187 103.013C29.6108 103.141 29.9257 103.207 30.2441 103.207C30.5625 103.207 30.8776 103.141 31.1697 103.013C31.4617 102.885 31.7246 102.698 31.9419 102.464C32.1592 102.23 32.3263 101.953 32.4329 101.651C32.5395 101.348 32.5832 101.027 32.5614 100.707Z" fill="#72BBC4"/>
</svg>
