<svg width="126" height="126" viewBox="0 0 126 126" fill="none" xmlns="http://www.w3.org/2000/svg">
<g clip-path="url(#clip0_676_2420)">
<path d="M50.81 38.6081H54.8733V56.8992C54.8523 57.1788 54.8893 57.4598 54.9818 57.7246C55.0744 57.9893 55.2205 58.2321 55.4112 58.4377C55.602 58.6434 55.8332 58.8074 56.0902 58.9196C56.3472 59.0318 56.6246 59.0896 56.9051 59.0896C57.1855 59.0896 57.463 59.0318 57.72 58.9196C57.9771 58.8074 58.2082 58.6434 58.3989 58.4377C58.5896 58.2321 58.7359 57.9893 58.8284 57.7246C58.921 57.4598 58.9578 57.1788 58.9368 56.8992V38.6081H67.0636V56.8992C67.0426 57.1788 67.0794 57.4598 67.172 57.7246C67.2645 57.9893 67.4107 58.2321 67.6014 58.4377C67.7921 58.6434 68.0233 58.8074 68.2804 58.9196C68.5374 59.0318 68.8148 59.0896 69.0952 59.0896C69.3757 59.0896 69.6532 59.0318 69.9102 58.9196C70.1673 58.8074 70.3985 58.6434 70.5892 58.4377C70.7799 58.2321 70.9261 57.9893 71.0186 57.7246C71.1112 57.4598 71.148 57.1788 71.1269 56.8992V38.6081H75.1904C76.7977 38.6081 78.369 38.1315 79.7054 37.2385C81.0419 36.3455 82.0835 35.0763 82.6986 33.5913C83.3137 32.1063 83.4746 30.4723 83.161 28.8958C82.8474 27.3194 82.0735 25.8713 80.9369 24.7348C79.8004 23.5982 78.3523 22.8242 76.7758 22.5106C75.1994 22.1971 73.5653 22.358 72.0803 22.9731C70.5954 23.5882 69.3262 24.6298 68.4333 25.9663C67.5403 27.3027 67.0636 28.874 67.0636 30.4813V34.5792H58.9368V30.5158C58.9391 28.9052 58.4634 27.3302 57.57 25.9901C56.6766 24.65 55.4058 23.6051 53.9183 22.9877C52.4307 22.3703 50.7934 22.2082 49.2136 22.5218C47.6339 22.8355 46.1827 23.6108 45.0438 24.7497C43.905 25.8885 43.1296 27.3397 42.816 28.9194C42.5023 30.4992 42.6645 32.1365 43.2819 33.624C43.8993 35.1116 44.9442 36.3825 46.2843 37.2759C47.6244 38.1692 49.1995 38.6449 50.81 38.6426V38.6081ZM71.1269 30.4813C71.1269 29.6776 71.3653 28.892 71.8118 28.2238C72.2583 27.5556 72.8929 27.0348 73.6354 26.7272C74.3779 26.4197 75.1949 26.3392 75.9832 26.496C76.7714 26.6527 77.4954 27.0398 78.0636 27.608C78.6319 28.1763 79.0189 28.9004 79.1757 29.6886C79.3325 30.4768 79.2521 31.2938 78.9445 32.0363C78.637 32.7788 78.1161 33.4134 77.4479 33.8599C76.7797 34.3064 75.994 34.5447 75.1904 34.5447H71.1269V30.4813ZM50.81 26.4179C51.8868 26.4209 52.9186 26.85 53.6799 27.6114C54.4413 28.3728 54.8703 29.4046 54.8733 30.4813V34.5792H50.81C49.7324 34.5792 48.6988 34.1511 47.9368 33.3891C47.1747 32.6271 46.7466 31.5935 46.7466 30.5158C46.7466 29.4382 47.1747 28.4046 47.9368 27.6426C48.6988 26.8805 49.7324 26.4524 50.81 26.4524V26.4179Z" fill="#72BBC4"/>
<path d="M87.391 38.6198C88.5162 38.6198 89.4284 37.7076 89.4284 36.5824C89.4284 35.4571 88.5162 34.5449 87.391 34.5449C86.2657 34.5449 85.3535 35.4571 85.3535 36.5824C85.3535 37.7076 86.2657 38.6198 87.391 38.6198Z" fill="#72BBC4"/>
<path d="M38.6078 38.6198C39.733 38.6198 40.6452 37.7076 40.6452 36.5824C40.6452 35.4571 39.733 34.5449 38.6078 34.5449C37.4825 34.5449 36.5703 35.4571 36.5703 36.5824C36.5703 37.7076 37.4825 38.6198 38.6078 38.6198Z" fill="#72BBC4"/>
<path d="M123.962 87.3808H118.494C118.209 86.5742 117.882 85.7827 117.516 85.0095L121.384 81.1418C121.765 80.7599 121.979 80.2424 121.979 79.703C121.979 79.1635 121.765 78.646 121.384 78.2641L112.762 69.6423C112.372 69.2773 111.857 69.0743 111.323 69.0743C110.789 69.0743 110.274 69.2773 109.884 69.6423L106.016 73.51C105.245 73.1532 104.462 72.8193 103.645 72.5316V67.0638C103.645 66.5234 103.43 66.0052 103.048 65.6231C102.666 65.241 102.148 65.0264 101.608 65.0264H89.4174C89.1504 65.0264 88.8861 65.0791 88.6395 65.1817C88.393 65.2842 88.1691 65.4345 87.9808 65.6238C87.7925 65.8132 87.6435 66.0378 87.5424 66.285C87.4413 66.5321 87.39 66.7968 87.3915 67.0638V73.9704C87.3704 74.2501 87.4074 74.5311 87.5 74.7959C87.5925 75.0606 87.7387 75.3034 87.9294 75.509C88.1201 75.7146 88.3513 75.8787 88.6084 75.9908C88.8654 76.103 89.1427 76.1609 89.4232 76.1609C89.7037 76.1609 89.9811 76.103 90.2382 75.9908C90.4952 75.8787 90.7263 75.7146 90.917 75.509C91.1077 75.3034 91.254 75.0606 91.3466 74.7959C91.4391 74.5311 91.476 74.2501 91.4549 73.9704V69.1128H99.5818V74.0395C99.5801 74.4818 99.7231 74.9125 99.9891 75.2659C100.255 75.6192 100.63 75.8758 101.055 75.9964C102.573 76.4278 104.036 77.0302 105.418 77.7921C105.804 78.0095 106.25 78.0946 106.689 78.0343C107.127 77.974 107.534 77.7717 107.847 77.4583L111.3 74.005L117.055 79.7605L113.602 83.2138C113.287 83.5255 113.084 83.9325 113.023 84.3716C112.963 84.8107 113.049 85.2575 113.268 85.6426C114.037 87.0168 114.64 88.4775 115.064 89.9938C115.185 90.4194 115.441 90.7938 115.795 91.0598C116.148 91.3258 116.579 91.4689 117.021 91.4672H121.948V99.6055H117.021C116.579 99.6039 116.148 99.747 115.795 100.013C115.441 100.279 115.185 100.653 115.064 101.079C114.635 102.594 114.032 104.054 113.268 105.43C113.049 105.815 112.963 106.262 113.023 106.701C113.084 107.14 113.287 107.547 113.602 107.859L117.055 111.312L111.3 117.068L107.847 113.614C107.534 113.301 107.127 113.099 106.689 113.039C106.25 112.978 105.804 113.063 105.418 113.281C104.036 114.043 102.573 114.645 101.055 115.076C100.63 115.197 100.255 115.454 99.9891 115.807C99.7231 116.16 99.5801 116.591 99.5818 117.033V121.96H91.4664V117.033C91.4655 116.59 91.32 116.159 91.0521 115.806C90.7841 115.453 90.4082 115.197 89.9815 115.076C88.4668 114.647 87.0069 114.045 85.6304 113.281C85.2447 113.063 84.7983 112.978 84.3597 113.039C83.9211 113.099 83.5142 113.301 83.2014 113.614L79.7481 117.068L73.9926 111.312L77.4459 107.859C77.7595 107.547 77.9628 107.141 78.0251 106.702C78.0874 106.264 78.0054 105.818 77.7913 105.43C77.0189 104.056 76.4123 102.596 75.9841 101.079C75.8657 100.654 75.6113 100.28 75.2599 100.014C74.9085 99.748 74.4795 99.6045 74.0387 99.6055H69.1119V97.5451C69.1119 97.0047 68.8973 96.4865 68.5152 96.1044C68.1331 95.7223 67.615 95.5076 67.0746 95.5076C66.5342 95.5076 66.016 95.7223 65.6339 96.1044C65.2518 96.4865 65.0371 97.0047 65.0371 97.5451V101.608C65.0371 102.149 65.2518 102.667 65.6339 103.049C66.016 103.431 66.5342 103.646 67.0746 103.646H72.5423C72.8301 104.452 73.1639 105.246 73.5208 106.017L69.6646 109.885C69.2836 110.267 69.0696 110.784 69.0696 111.324C69.0696 111.863 69.2836 112.381 69.6646 112.763L78.2863 121.384C78.6734 121.751 79.1863 121.956 79.7195 121.956C80.2527 121.956 80.7656 121.751 81.1526 121.384L85.0203 117.517C85.7915 117.874 86.5857 118.207 87.3915 118.495V123.963C87.3915 124.503 87.6062 125.022 87.9883 125.404C88.3704 125.786 88.8886 126 89.429 126H101.619C102.16 126 102.678 125.786 103.06 125.404C103.442 125.022 103.657 124.503 103.657 123.963V118.495C104.462 118.207 105.257 117.874 106.028 117.517L109.896 121.384C110.286 121.749 110.8 121.952 111.335 121.952C111.869 121.952 112.383 121.749 112.773 121.384L121.395 112.763C121.776 112.381 121.99 111.863 121.99 111.324C121.99 110.784 121.776 110.267 121.395 109.885L117.527 106.017C117.894 105.244 118.22 104.453 118.506 103.646H123.974C124.514 103.646 125.032 103.431 125.414 103.049C125.796 102.667 126.011 102.149 126.011 101.608V89.4183C126.011 89.1498 125.958 88.8839 125.855 88.6359C125.752 88.388 125.601 88.1629 125.41 87.9735C125.22 87.7842 124.994 87.6343 124.745 87.5326C124.497 87.4309 124.231 87.3793 123.962 87.3808Z" fill="#72BBC4"/>
<path d="M42.6713 62.4824V81.2915C42.6713 81.5585 42.724 81.8229 42.8266 82.0695C42.9291 82.316 43.0794 82.5399 43.2688 82.7282C43.4581 82.9164 43.6828 83.0654 43.9299 83.1666C44.177 83.2677 44.4418 83.319 44.7088 83.3175H81.2909C81.8283 83.3175 82.3436 83.104 82.7235 82.7241C83.1034 82.3441 83.3169 81.8288 83.3169 81.2915V62.4824C89.2109 58.1922 93.596 52.1468 95.8442 45.2121C98.0923 38.2773 98.0882 30.8089 95.8324 23.8766C93.5765 16.9443 89.1847 10.9038 83.286 6.62009C77.3872 2.33639 70.2842 0.0292969 62.9941 0.0292969C55.704 0.0292969 48.601 2.33639 42.7022 6.62009C36.8035 10.9038 32.4117 16.9443 30.1558 23.8766C27.9 30.8089 27.8959 38.2773 30.144 45.2121C32.3922 52.1468 36.7773 58.1922 42.6713 62.4824ZM62.9999 4.06382C69.5158 4.06635 75.8593 6.15684 81.1001 10.0286C86.3409 13.9004 90.2032 19.3497 92.1202 25.5772C94.0373 31.8047 93.9082 38.4826 91.7521 44.6314C89.5959 50.7803 85.5263 56.0763 80.1398 59.7428C79.8674 59.9305 79.6445 60.1815 79.4901 60.4742C79.3357 60.7668 79.2545 61.0925 79.2535 61.4234V63.0004H77.2275C76.9478 62.9794 76.6669 63.0163 76.4021 63.1088C76.1374 63.2014 75.8945 63.3476 75.6889 63.5383C75.4832 63.729 75.3192 63.9602 75.207 64.2172C75.0949 64.4742 75.037 64.7517 75.037 65.0321C75.037 65.3126 75.0949 65.59 75.207 65.8471C75.3192 66.1041 75.4832 66.3353 75.6889 66.526C75.8945 66.7167 76.1374 66.8629 76.4021 66.9555C76.6669 67.048 76.9478 67.0849 77.2275 67.0638H79.2535V71.1272H56.9335C56.4211 71.1658 55.9422 71.3966 55.5927 71.7734C55.2433 72.1502 55.0491 72.6451 55.0491 73.159C55.0491 73.6728 55.2433 74.1677 55.5927 74.5445C55.9422 74.9212 56.4211 75.152 56.9335 75.1906H79.288V79.254H46.7808V75.1906H48.8066C49.0863 75.2117 49.3674 75.1748 49.6322 75.0823C49.8969 74.9897 50.1397 74.8435 50.3453 74.6528C50.5509 74.4621 50.7149 74.2309 50.8271 73.9739C50.9393 73.7168 50.9971 73.4394 50.9971 73.159C50.9971 72.8785 50.9393 72.6011 50.8271 72.344C50.7149 72.087 50.5509 71.8558 50.3453 71.6651C50.1397 71.4744 49.8969 71.3282 49.6322 71.2356C49.3674 71.1431 49.0863 71.1062 48.8066 71.1272H46.7808V67.0638H69.1352C69.6476 67.0252 70.1266 66.7944 70.476 66.4177C70.8255 66.0409 71.0197 65.546 71.0197 65.0321C71.0197 64.5182 70.8255 64.0234 70.476 63.6466C70.1266 63.2698 69.6476 63.039 69.1352 63.0004H46.7808V61.4234C46.7805 61.0911 46.6984 60.7641 46.5418 60.471C46.3852 60.1779 46.1589 59.9278 45.8829 59.7428C40.4957 56.0758 36.4254 50.7786 34.2696 44.6287C32.1137 38.4788 31.9857 31.7998 33.9042 25.5717C35.8227 19.3436 39.6868 13.8944 44.9295 10.0235C50.1722 6.15261 56.5176 4.06389 63.0344 4.06382H62.9999Z" fill="#72BBC4"/>
<path d="M95.5187 109.735C98.3326 109.735 101.083 108.9 103.423 107.337C105.763 105.773 107.586 103.551 108.663 100.952C109.74 98.3519 110.022 95.4912 109.473 92.7313C108.924 89.9714 107.569 87.4363 105.579 85.4465C103.589 83.4567 101.054 82.1017 98.2943 81.5527C95.5344 81.0037 92.6737 81.2855 90.074 82.3623C87.4742 83.4392 85.2521 85.2628 83.6888 87.6025C82.1254 89.9422 81.291 92.693 81.291 95.507C81.2941 99.2794 82.794 102.897 85.4615 105.564C88.1291 108.232 91.7462 109.732 95.5187 109.735ZM95.5187 85.3542C97.5295 85.3542 99.4951 85.9506 101.167 87.068C102.839 88.1854 104.141 89.7735 104.91 91.6315C105.679 93.4894 105.88 95.5337 105.487 97.5056C105.094 99.4776 104.124 101.289 102.702 102.71C101.279 104.131 99.4669 105.098 97.4945 105.489C95.522 105.88 93.478 105.677 91.6209 104.906C89.7638 104.135 88.1772 102.83 87.0617 101.157C85.9462 99.484 85.352 97.5177 85.3543 95.507C85.3574 92.8132 86.4297 90.2308 88.3355 88.3272C90.2413 86.4235 92.8249 85.3542 95.5187 85.3542Z" fill="#72BBC4"/>
<path d="M58.9364 95.5069C58.396 95.5069 57.8778 95.7216 57.4957 96.1037C57.1136 96.4858 56.8989 97.004 56.8989 97.5444V99.5818H51.9721C51.5303 99.582 51.1006 99.7259 50.7477 99.9916C50.3947 100.257 50.1376 100.631 50.0153 101.055C49.5911 102.572 48.9883 104.032 48.2197 105.406C48.0069 105.795 47.9245 106.242 47.9846 106.682C48.0447 107.121 48.244 107.529 48.5534 107.847L52.0067 111.3L46.2512 117.056L42.7979 113.602C42.4851 113.289 42.0784 113.087 41.6397 113.026C41.2011 112.966 40.7547 113.051 40.369 113.268C38.9916 114.03 37.5317 114.633 36.0178 115.064C35.5911 115.184 35.2154 115.441 34.9474 115.794C34.6794 116.147 34.5339 116.578 34.533 117.021V121.948H26.4061V117.021C26.4071 116.577 26.2624 116.145 25.9941 115.792C25.7259 115.438 25.3488 115.183 24.9212 115.064C23.4073 114.633 21.9476 114.03 20.5701 113.268C20.1844 113.051 19.738 112.966 19.2994 113.026C18.8608 113.087 18.454 113.289 18.1413 113.602L14.688 117.056L8.93243 111.3L12.3857 107.847C12.6958 107.532 12.8958 107.126 12.956 106.688C13.0161 106.25 12.9331 105.805 12.7195 105.418C11.9508 104.044 11.3481 102.583 10.9238 101.067C10.8015 100.642 10.5444 100.269 10.1914 100.003C9.83848 99.7374 9.40868 99.5935 8.96685 99.5933H4.04023V91.4435H8.96685C9.40868 91.4433 9.83848 91.2995 10.1914 91.0337C10.5444 90.768 10.8015 90.3947 10.9238 89.9701C11.3481 88.4537 11.9508 86.9932 12.7195 85.619C12.9378 85.2315 13.0234 84.7832 12.9631 84.3426C12.9028 83.902 12.7001 83.4931 12.3857 83.1785L8.93243 79.7253L14.688 73.9697L18.1413 77.4231C18.454 77.7365 18.8608 77.9388 19.2994 77.9991C19.738 78.0594 20.1844 77.9743 20.5701 77.7569C21.9516 76.995 23.4151 76.3925 24.9327 75.9612C25.3582 75.8405 25.7326 75.584 25.9986 75.2306C26.2647 74.8773 26.4078 74.4466 26.4061 74.0043V69.1121H34.533V74.0388C34.5119 74.3185 34.5488 74.5995 34.6413 74.8642C34.7339 75.129 34.8802 75.3718 35.0709 75.5774C35.2616 75.783 35.4927 75.947 35.7497 76.0592C36.0068 76.1714 36.2843 76.2293 36.5647 76.2293C36.8452 76.2293 37.1225 76.1714 37.3796 76.0592C37.6366 75.947 37.8678 75.783 38.0585 75.5774C38.2493 75.3718 38.3954 75.129 38.488 74.8642C38.5805 74.5995 38.6174 74.3185 38.5963 74.0388V67.1322C38.5978 66.8652 38.5467 66.6005 38.4455 66.3533C38.3444 66.1062 38.1954 65.8815 38.0071 65.6922C37.8188 65.5028 37.5949 65.3526 37.3484 65.25C37.1018 65.1475 36.8375 65.0947 36.5705 65.0947H24.3686C24.1016 65.0947 23.8373 65.1475 23.5908 65.25C23.3442 65.3526 23.1203 65.5028 22.932 65.6922C22.7437 65.8815 22.5947 66.1062 22.4936 66.3533C22.3925 66.6005 22.3412 66.8652 22.3427 67.1322V72.5654C21.5364 72.8517 20.7451 73.1782 19.9715 73.5438L16.1038 69.6761C15.7136 69.3111 15.1992 69.1081 14.6649 69.1081C14.1306 69.1081 13.6163 69.3111 13.226 69.6761L4.60426 78.2979C4.22327 78.6799 4.00931 79.1973 4.00931 79.7368C4.00931 80.2763 4.22327 80.7937 4.60426 81.1756L8.47196 85.0434C8.1055 85.8166 7.77896 86.6081 7.49354 87.4147H2.01427C1.74725 87.4147 1.48279 87.4674 1.23623 87.5699C0.989682 87.6725 0.765915 87.8227 0.577637 88.0121C0.38936 88.2014 0.240362 88.4261 0.139228 88.6733C0.0380941 88.9204 -0.0132032 89.1851 -0.0116861 89.4521V101.642C-0.0132032 101.909 0.0380941 102.174 0.139228 102.421C0.240362 102.668 0.38936 102.893 0.577637 103.082C0.765915 103.272 0.989682 103.422 1.23623 103.524C1.48279 103.627 1.74725 103.68 2.01427 103.68H7.49354C7.77896 104.486 8.1055 105.278 8.47196 106.051L4.60426 109.919C4.22327 110.301 4.00931 110.818 4.00931 111.358C4.00931 111.897 4.22327 112.415 4.60426 112.797L13.226 121.418C13.6163 121.783 14.1306 121.986 14.6649 121.986C15.1992 121.986 15.7136 121.783 16.1038 121.418L19.9715 117.551C20.7451 117.916 21.5364 118.243 22.3427 118.529V123.997C22.3412 124.264 22.3925 124.528 22.4936 124.776C22.5947 125.023 22.7437 125.247 22.932 125.437C23.1203 125.626 23.3442 125.776 23.5908 125.879C23.8373 125.981 24.1016 126.034 24.3686 126.034H36.5705C36.8375 126.034 37.1018 125.981 37.3484 125.879C37.5949 125.776 37.8188 125.626 38.0071 125.437C38.1954 125.247 38.3444 125.023 38.4455 124.776C38.5467 124.528 38.5978 124.264 38.5963 123.997V118.495C39.4026 118.208 40.1941 117.882 40.9676 117.516L44.8353 121.384C45.2256 121.749 45.7399 121.952 46.2742 121.952C46.8085 121.952 47.3229 121.749 47.7131 121.384L56.3349 112.762C56.7159 112.38 56.9298 111.863 56.9298 111.323C56.9298 110.784 56.7159 110.266 56.3349 109.884L52.4672 106.017C52.8473 105.245 53.1855 104.453 53.4801 103.645H58.9594C59.2264 103.645 59.4908 103.592 59.7373 103.49C59.9839 103.387 60.2078 103.237 60.3961 103.048C60.5843 102.858 60.7333 102.634 60.8345 102.387C60.9356 102.14 60.9869 101.875 60.9854 101.608V97.5444C60.9854 97.2759 60.9322 97.0099 60.8291 96.762C60.726 96.514 60.5749 96.289 60.3845 96.0996C60.1941 95.9103 59.9681 95.7604 59.7196 95.6587C59.4711 95.557 59.2049 95.5054 58.9364 95.5069Z" fill="#72BBC4"/>
<path d="M30.4582 81.291C27.6437 81.291 24.8924 82.1258 22.5525 83.6896C20.2125 85.2535 18.389 87.4762 17.3125 90.0766C16.236 92.6771 15.9548 95.5383 16.5047 98.2986C17.0546 101.059 18.4108 103.594 20.4017 105.583C22.3927 107.572 24.9289 108.927 27.6896 109.474C30.4502 110.022 33.3113 109.739 35.9109 108.66C38.5104 107.581 40.7317 105.756 42.2937 103.415C43.8556 101.073 44.6881 98.3216 44.6858 95.5071C44.6797 91.7367 43.1784 88.1225 40.5112 85.4574C37.844 82.7924 34.2286 81.2941 30.4582 81.291ZM30.4582 105.671C28.4479 105.671 26.4828 105.075 24.8113 103.958C23.1398 102.842 21.8369 101.254 21.0676 99.3968C20.2983 97.5396 20.0971 95.4959 20.4893 93.5242C20.8815 91.5525 21.8494 89.7414 23.2709 88.3199C24.6924 86.8984 26.5035 85.9304 28.4752 85.5382C30.4469 85.146 32.4906 85.3473 34.3479 86.1166C36.2052 86.8859 37.7926 88.1887 38.9095 89.8602C40.0263 91.5317 40.6224 93.4968 40.6224 95.5071C40.6193 98.2019 39.5475 100.786 37.642 102.691C35.7365 104.597 33.153 105.668 30.4582 105.671Z" fill="#72BBC4"/>
<path d="M58.9359 91.4558C60.0612 91.4558 60.9734 90.5436 60.9734 89.4183C60.9734 88.2931 60.0612 87.3809 58.9359 87.3809C57.8106 87.3809 56.8984 88.2931 56.8984 89.4183C56.8984 90.5436 57.8106 91.4558 58.9359 91.4558Z" fill="#72BBC4"/>
<path d="M67.0628 91.4558C68.1881 91.4558 69.1003 90.5436 69.1003 89.4183C69.1003 88.2931 68.1881 87.3809 67.0628 87.3809C65.9376 87.3809 65.0254 88.2931 65.0254 89.4183C65.0254 90.5436 65.9376 91.4558 67.0628 91.4558Z" fill="#72BBC4"/>
</g>
<defs>
<clipPath id="clip0_676_2420">
<rect width="126" height="126" fill="white"/>
</clipPath>
</defs>
</svg>
