<svg width="242" height="257" viewBox="0 0 242 257" fill="none" xmlns="http://www.w3.org/2000/svg">
<path d="M120.748 242.484C187.418 242.484 241.465 188.419 241.465 121.727C241.465 55.0345 187.418 0.969727 120.748 0.969727C54.0779 0.969727 0.03125 55.0345 0.03125 121.727C0.03125 188.419 54.0779 242.484 120.748 242.484Z" fill="url(#paint0_linear_527_557)"/>
<path d="M120.369 256.409C126.873 256.409 132.146 251.134 132.146 244.628C132.146 238.121 126.873 232.847 120.369 232.847C113.865 232.847 108.592 238.121 108.592 244.628C108.592 251.134 113.865 256.409 120.369 256.409Z" fill="#71BBC4"/>
<path d="M159.446 141.543C156.985 140.989 154.417 141.472 152.321 142.886L135.291 154.444C134.325 151.863 132.146 149.931 129.473 149.283L105.023 142.733L102.821 142.144L102.668 142.097L93.7762 139.717C87.6521 138.091 81.2217 140.954 78.3481 146.597C76.8288 145.678 74.9797 145.49 73.3074 146.079L59.7165 150.921C58.7978 151.251 58.315 152.264 58.6448 153.183L68.0901 179.726C68.4198 180.645 69.4327 181.128 70.3514 180.798L83.9423 175.956C85.438 175.426 86.651 174.318 87.3341 172.881C87.3694 172.799 87.393 172.704 87.4283 172.622H94.742C97.5921 173.352 100.207 174.012 102.597 174.636C113.856 177.546 120.499 179.231 125.704 179.231C133.018 179.231 137.517 175.909 147.999 167.968C151.744 165.129 156.396 161.595 162.296 157.401C166.1 154.585 167.113 149.33 164.652 145.29C163.509 143.381 161.625 142.014 159.446 141.543ZM84.1307 171.373C83.8598 171.962 83.3652 172.41 82.7527 172.622L70.8342 176.863L62.5665 153.654L74.4969 149.401C75.7688 148.953 77.1586 149.613 77.6179 150.886L84.2485 169.5C84.4487 170.112 84.4133 170.784 84.1307 171.373ZM160.223 154.538C154.288 158.744 149.612 162.313 145.843 165.164C129.108 177.864 129.108 177.864 103.469 171.22C101.019 170.584 98.334 169.889 95.3897 169.146L95.1777 169.087H87.7581C87.711 168.828 87.6403 168.569 87.5697 168.31L80.9391 149.696C80.9273 149.672 80.9155 149.649 80.9155 149.637C82.5408 144.642 87.7934 141.779 92.8694 143.134L101.761 145.513L128.566 152.7C131.381 153.454 133.053 156.352 132.3 159.168C131.546 161.983 128.649 163.656 125.834 162.902L99.0289 155.704C98.0867 155.457 97.1209 156.01 96.8618 156.953C96.6145 157.895 97.1681 158.861 98.1102 159.121L124.915 166.307C127.176 166.92 129.579 166.602 131.593 165.424C134.196 163.951 135.845 161.229 135.986 158.249L154.311 145.82C155.595 144.971 157.161 144.677 158.657 145.007C159.882 145.266 160.93 146.02 161.566 147.092C163.144 149.531 162.567 152.794 160.223 154.538ZM130.097 74.5907C115.647 74.5907 103.928 86.313 103.928 100.768C103.928 115.224 115.647 126.946 130.097 126.946C144.548 126.946 156.266 115.224 156.266 100.768C156.254 86.3248 144.548 74.6143 130.097 74.5907ZM130.097 123.424C117.59 123.424 107.461 113.28 107.461 100.78C107.461 88.2687 117.602 78.1369 130.097 78.1369C142.593 78.1369 152.733 88.2805 152.733 100.78C152.721 113.28 142.593 123.4 130.097 123.424ZM95.4839 115.401C87.4165 96.2799 96.379 74.2373 115.493 66.179C117.342 65.4014 119.262 64.7652 121.217 64.294L120.287 63.6578C119.474 63.1041 119.274 62.0084 119.816 61.1955C120.357 60.3826 121.465 60.1824 122.277 60.7243L126.741 63.7638C126.764 63.7756 126.764 63.7992 126.788 63.811C126.894 63.8934 126.976 63.9877 127.059 64.0937C127.129 64.1644 127.188 64.2351 127.247 64.3175C127.294 64.4118 127.33 64.5178 127.365 64.6121C127.412 64.7299 127.459 64.8359 127.483 64.9655C127.483 64.9891 127.494 65.0009 127.506 65.0244C127.506 65.1069 127.494 65.2011 127.483 65.2836C127.483 65.4132 127.471 65.531 127.459 65.6606C127.424 65.7784 127.377 65.8962 127.318 66.0022C127.294 66.0847 127.259 66.1672 127.224 66.2379L124.185 70.703C123.632 71.5159 122.536 71.7161 121.724 71.1742C120.911 70.6205 120.711 69.5248 121.253 68.7119L121.888 67.7812C103.646 72.317 92.5514 90.7898 97.0856 109.039C97.5096 110.747 98.0632 112.42 98.7463 114.034C99.1349 114.929 98.7109 115.966 97.8158 116.355H97.8041C97.5921 116.449 97.3565 116.496 97.121 116.496C96.4026 116.485 95.7666 116.06 95.4839 115.401ZM168.75 114.14L163.804 116.331C163.757 116.355 163.709 116.343 163.662 116.355C163.521 116.402 163.38 116.437 163.227 116.449C163.18 116.449 163.132 116.473 163.085 116.473C162.873 116.473 162.661 116.426 162.461 116.343C162.438 116.343 162.402 116.331 162.379 116.331C162.343 116.32 162.32 116.284 162.296 116.273C162.167 116.202 162.049 116.119 161.931 116.025C161.872 115.978 161.813 115.931 161.766 115.884C161.66 115.754 161.566 115.613 161.495 115.471C161.472 115.424 161.436 115.377 161.425 115.318L159.281 110.5C158.869 109.616 159.258 108.568 160.141 108.155C161.024 107.743 162.072 108.132 162.485 109.015C162.496 109.027 162.496 109.051 162.508 109.062L162.861 109.852C167.914 91.7912 157.373 73.0592 139.319 68.0051C137.646 67.5338 135.951 67.2039 134.231 66.9919C133.265 66.874 132.57 65.9905 132.688 65.0244C132.806 64.0584 133.689 63.3633 134.655 63.4811C155.253 66.014 169.893 84.7579 167.372 105.363C167.125 107.425 166.701 109.463 166.112 111.454L167.313 110.924C168.197 110.512 169.245 110.9 169.657 111.784C170.069 112.667 169.681 113.716 168.797 114.128C168.785 114.128 168.774 114.14 168.75 114.14ZM99.712 122.081C99.712 122.069 99.7237 122.057 99.7237 122.057C99.7473 121.927 99.7944 121.798 99.8415 121.668C99.8651 121.574 99.9004 121.492 99.9358 121.409C99.9946 121.315 100.065 121.232 100.148 121.162C100.207 121.067 100.289 120.973 100.372 120.903C100.383 120.903 100.395 120.903 100.395 120.891C100.407 120.879 100.407 120.879 100.419 120.867C100.501 120.82 100.584 120.785 100.666 120.749C100.772 120.679 100.901 120.632 101.019 120.584C101.137 120.561 101.267 120.549 101.384 120.549C101.479 120.537 101.573 120.526 101.667 120.526L107.037 121.103C108.003 121.209 108.71 122.092 108.592 123.058C108.486 124.025 107.626 124.72 106.661 124.625L105.707 124.519C118.803 137.997 140.343 138.303 153.817 125.203C155.089 123.966 156.254 122.634 157.314 121.221C157.868 120.408 158.963 120.207 159.776 120.749C160.588 121.291 160.789 122.399 160.247 123.212C160.212 123.259 160.176 123.306 160.141 123.341C147.681 139.941 124.138 143.299 107.544 130.834C105.836 129.55 104.246 128.136 102.786 126.581L102.656 127.842C102.562 128.737 101.808 129.42 100.901 129.42C100.843 129.42 100.772 129.42 100.713 129.409C99.7473 129.302 99.0406 128.431 99.1466 127.465L99.712 122.081Z" fill="#213441"/>
<defs>
<linearGradient id="paint0_linear_527_557" x1="35.3925" y1="36.3426" x2="206.169" y2="207.062" gradientUnits="userSpaceOnUse">
<stop stop-color="#71BBC4"/>
<stop offset="0.1392" stop-color="#ADD8DD"/>
<stop offset="0.2601" stop-color="#D9EDEF"/>
<stop offset="0.3534" stop-color="#F5FAFB"/>
<stop offset="0.4078" stop-color="white"/>
<stop offset="1" stop-color="white"/>
</linearGradient>
</defs>
</svg>
