<svg id="Livello_1" data-name="Livello 1" xmlns="http://www.w3.org/2000/svg" viewBox="0 0 134.83 100.44"><defs><style>.cls-1{fill:#55bcc5;fill-rule:evenodd;}</style></defs><path class="cls-1" d="M309.8,471.4a22.3,22.3,0,0,1-8.42-1.64l-31.92-13a19.84,19.84,0,0,0-11.94-1l-6.66,1.51a1.54,1.54,0,0,1-.68-3l6.66-1.51a22.9,22.9,0,0,1,13.78,1.13l31.92,13a19.29,19.29,0,0,0,15.66-.51l40.87-19.76a4.64,4.64,0,0,0,2.41-2.71A4.71,4.71,0,0,0,357,437.7a4.64,4.64,0,0,0-1.27.18l-34.31,9.56a1.54,1.54,0,0,1-.83-3l34.32-9.57a7.91,7.91,0,0,1,2.09-.28,7.78,7.78,0,0,1,3.39,14.79l-40.88,19.76A22.25,22.25,0,0,1,309.8,471.4Z" transform="translate(-229.99 -370.96)"/><path class="cls-1" d="M315.55,453.65a7,7,0,0,1-2.1-.32l-25.4-7.8a1.54,1.54,0,0,1,.91-2.95l25.4,7.8a4,4,0,0,0,5.16-3.82c0-.14,0-.29,0-.43a4,4,0,0,0-1.91-3l-31.18-12.7a46.38,46.38,0,0,0-21.92-3.19l-13.84,1.34a1.55,1.55,0,0,1-.3-3.08l13.84-1.34a49.54,49.54,0,0,1,23.38,3.41l31.29,12.74.18.09a7.05,7.05,0,0,1,3.52,5.35,6.66,6.66,0,0,1,.05.78,6.86,6.86,0,0,1-.42,2.38A7,7,0,0,1,315.55,453.65Z" transform="translate(-229.99 -370.96)"/><path class="cls-1" d="M248,462.28h-5.12a1.55,1.55,0,0,1,0-3.09H248a1,1,0,0,0,1-1V425.59a1,1,0,0,0-1-1h-5.12a1.55,1.55,0,0,1,0-3.09H248a4.08,4.08,0,0,1,4.08,4.08V458.2A4.08,4.08,0,0,1,248,462.28Z" transform="translate(-229.99 -370.96)"/><path class="cls-1" d="M233.07,462.31h7.21a1,1,0,0,0,1.05-1.05V422.52a1,1,0,0,0-1.05-1h-7.21Zm7.21,3.09h-8.75a1.54,1.54,0,0,1-1.54-1.54V419.93a1.54,1.54,0,0,1,1.54-1.54h8.75a4.14,4.14,0,0,1,4.14,4.13v38.74A4.15,4.15,0,0,1,240.28,465.4Z" transform="translate(-229.99 -370.96)"/><path class="cls-1" d="M315.47,381a16.79,16.79,0,1,0,16.79,16.79A16.81,16.81,0,0,0,315.47,381Zm0,36.67a19.88,19.88,0,1,1,19.88-19.88A19.9,19.9,0,0,1,315.47,417.69Z" transform="translate(-229.99 -370.96)"/><path class="cls-1" d="M315.47,374.05a23.76,23.76,0,1,0,23.76,23.76A23.79,23.79,0,0,0,315.47,374.05Zm0,50.61a26.85,26.85,0,1,1,26.85-26.85A26.88,26.88,0,0,1,315.47,424.66Z" transform="translate(-229.99 -370.96)"/><path class="cls-1" d="M237.2,457.81a1.56,1.56,0,0,1-1.09-.45,1.43,1.43,0,0,1-.19-.24,1.35,1.35,0,0,1-.15-.26,1.77,1.77,0,0,1-.11-.6,1,1,0,0,1,0-.3,1.57,1.57,0,0,1,.08-.29,1.35,1.35,0,0,1,.15-.26,1.12,1.12,0,0,1,.19-.24,2.11,2.11,0,0,1,.23-.19,2.29,2.29,0,0,1,.27-.14,1.4,1.4,0,0,1,.29-.09,1.52,1.52,0,0,1,.6,0,1.4,1.4,0,0,1,.29.09l.27.14a2.11,2.11,0,0,1,.23.19,1.56,1.56,0,0,1,0,2.19,2.11,2.11,0,0,1-.23.19l-.27.14a1.4,1.4,0,0,1-.29.09A1.53,1.53,0,0,1,237.2,457.81Z" transform="translate(-229.99 -370.96)"/><path class="cls-1" d="M316.18,388.21h0Zm3.32,3.41h0Zm.6.42h0Zm-13.53,2.14Zm16,5.56Zm-14.26,0h0Zm14.05.69h0Zm-13.83,0h0Zm-.86-5.15,3,2.94a2.32,2.32,0,0,1,.66,2l-.71,4.15,3.73-2a2.31,2.31,0,0,1,2.14,0l3.74,2-.72-4.15a2.3,2.3,0,0,1,.67-2l3-2.94-4.18-.61a2.27,2.27,0,0,1-1.74-1.27l-1.86-3.76-1.86,3.77a2.31,2.31,0,0,1-1.74,1.26Zm8.13,9.91Zm5.48,3a2.3,2.3,0,0,1-1.07-.27l-4.77-2.51-4.76,2.51a2.32,2.32,0,0,1-3.36-2.43l.92-5.31-3.86-3.76a2.32,2.32,0,0,1,1.28-3.94l5.33-.77,2.38-4.83a2.27,2.27,0,0,1,2.06-1.28h0a2.29,2.29,0,0,1,2.07,1.28h0l2.38,4.83,5.33.77a2.31,2.31,0,0,1,1.28,3.94l-3.86,3.76.92,5.31a2.33,2.33,0,0,1-2.28,2.7Z" transform="translate(-229.99 -370.96)"/><path class="cls-1" d="M281.53,399.35h-4.47a1.54,1.54,0,0,1,0-3.08h4.47a1.54,1.54,0,0,1,0,3.08Z" transform="translate(-229.99 -370.96)"/><path class="cls-1" d="M284.63,391.86a1.55,1.55,0,0,1-1.09-.45l-3.16-3.16a1.55,1.55,0,0,1,2.19-2.18l3.16,3.15a1.55,1.55,0,0,1-1.1,2.64Z" transform="translate(-229.99 -370.96)"/><path class="cls-1" d="M281.48,410a1.55,1.55,0,0,1-1.1-2.64l3.16-3.16a1.55,1.55,0,1,1,2.19,2.18l-3.16,3.16A1.56,1.56,0,0,1,281.48,410Z" transform="translate(-229.99 -370.96)"/><path class="cls-1" d="M353.87,399.35H349.4a1.54,1.54,0,1,1,0-3.08h4.47a1.54,1.54,0,1,1,0,3.08Z" transform="translate(-229.99 -370.96)"/><path class="cls-1" d="M346.3,391.86a1.53,1.53,0,0,1-1.09-.45,1.56,1.56,0,0,1,0-2.19l3.16-3.16a1.55,1.55,0,0,1,2.18,2.19l-3.16,3.16A1.55,1.55,0,0,1,346.3,391.86Z" transform="translate(-229.99 -370.96)"/><path class="cls-1" d="M349.46,410a1.51,1.51,0,0,1-1.09-.46l-3.16-3.16a1.54,1.54,0,1,1,2.18-2.18l3.16,3.16a1.53,1.53,0,0,1,0,2.18A1.5,1.5,0,0,1,349.46,410Z" transform="translate(-229.99 -370.96)"/></svg>