<svg width="142" height="106" viewBox="0 0 142 106" fill="none" xmlns="http://www.w3.org/2000/svg">
<g clip-path="url(#clip0_1078_576)">
<path fill-rule="evenodd" clip-rule="evenodd" d="M84.0479 106C81.0116 106 78.0035 105.416 75.1869 104.28L41.5707 90.5892C37.5898 88.9596 33.2048 88.5983 29.0118 89.5544L22.0345 91.1485C21.8266 91.1962 21.6112 91.2025 21.4008 91.1668C21.1904 91.1312 20.9891 91.0544 20.8083 90.9407C20.4433 90.7113 20.1841 90.3458 20.0879 89.9249C19.9917 89.5039 20.0663 89.0619 20.2953 88.6961C20.5242 88.3302 20.8889 88.0706 21.3089 87.9741L28.2861 86.3799C33.1351 85.2706 38.2075 85.6856 42.8127 87.5685L76.4288 101.259C79.0609 102.327 81.8868 102.832 84.725 102.74C87.5632 102.649 90.3508 101.963 92.909 100.728L135.958 79.8633C137.081 79.3312 137.963 78.3947 138.428 77.2403C138.893 76.0859 138.907 74.7984 138.467 73.6343C138.027 72.4702 137.165 71.5149 136.054 70.9588C134.942 70.4028 133.663 70.2867 132.47 70.6337L96.3557 80.7164C96.1504 80.7733 95.936 80.7892 95.7247 80.763C95.5133 80.7369 95.3092 80.6694 95.1239 80.5642C94.9386 80.459 94.7757 80.3182 94.6447 80.15C94.5137 79.9817 94.417 79.7893 94.3602 79.5836C94.3034 79.378 94.2876 79.1631 94.3136 78.9513C94.3397 78.7395 94.4071 78.5349 94.5121 78.3492C94.617 78.1635 94.7575 78.0003 94.9254 77.869C95.0932 77.7377 95.2853 77.6408 95.4905 77.5839L131.632 67.4873C132.351 67.2882 133.092 67.1848 133.837 67.1797C135.692 67.1851 137.49 67.82 138.938 68.9809C140.387 70.1418 141.4 71.7602 141.813 73.5723C142.226 75.3843 142.014 77.2829 141.211 78.9587C140.409 80.6345 139.064 81.9885 137.396 82.8L94.3463 103.65C91.138 105.212 87.6148 106.016 84.0479 106Z" fill="#8FFEDB"/>
<path fill-rule="evenodd" clip-rule="evenodd" d="M90.1028 87.2757C89.3554 87.2728 88.6125 87.1597 87.898 86.9401L61.1474 78.7034C60.7366 78.5773 60.3926 78.2928 60.1911 77.9125C59.9896 77.5322 59.9471 77.0873 60.0729 76.6757C60.1987 76.264 60.4826 75.9193 60.862 75.7173C61.2415 75.5154 61.6855 75.4728 62.0963 75.5989L88.8469 83.8216C89.8816 84.1436 91.0007 84.0511 91.9688 83.5634C92.9368 83.0758 93.6785 82.2309 94.0379 81.2065C94.2039 80.7591 94.289 80.2855 94.2891 79.8081C94.2891 79.6543 94.2891 79.5004 94.2891 79.3466C94.2174 78.7047 93.9987 78.0881 93.6502 77.5447C93.3017 77.0014 92.8326 76.546 92.2796 76.2142L59.4449 62.8174C52.1328 59.8355 44.2084 58.6742 36.3504 59.4332L21.7681 60.8316C21.3606 60.8332 20.9673 60.6821 20.6653 60.408C20.3634 60.1338 20.1747 59.7564 20.1362 59.3499C20.0977 58.9435 20.2123 58.5372 20.4575 58.2111C20.7026 57.8849 21.0606 57.6624 21.4611 57.5872L36.0295 56.1888C44.4083 55.3832 52.8573 56.6161 60.659 59.7828L93.5634 73.2215L93.7588 73.3194C94.7686 73.8972 95.6292 74.7042 96.2714 75.6757C96.9136 76.6471 97.3196 77.7559 97.4567 78.9131C97.478 79.1877 97.478 79.4636 97.4567 79.7382C97.4538 80.5956 97.3076 81.4464 97.0241 82.2553C96.5252 83.7036 95.593 84.9626 94.3546 85.8609C93.1161 86.7592 91.6314 87.2532 90.1028 87.2757Z" fill="#8FFEDB"/>
<path fill-rule="evenodd" clip-rule="evenodd" d="M18.9508 96.3788H13.5784C13.3522 96.3998 13.1242 96.3732 12.9088 96.3009C12.6935 96.2286 12.4956 96.1121 12.3277 95.9587C12.1599 95.8054 12.0258 95.6186 11.934 95.4104C11.8423 95.2022 11.7949 94.9771 11.7949 94.7495C11.7949 94.5219 11.8423 94.2969 11.934 94.0887C12.0258 93.8805 12.1599 93.6937 12.3277 93.5404C12.4956 93.387 12.6935 93.2705 12.9088 93.1982C13.1242 93.1259 13.3522 93.0994 13.5784 93.1204H18.9508C19.2284 93.1204 19.4946 93.0099 19.6909 92.8132C19.8871 92.6166 19.9974 92.3498 19.9974 92.0716V57.6566C19.9974 57.5195 19.9702 57.3838 19.9175 57.2573C19.8647 57.1308 19.7874 57.0161 19.69 56.9198C19.5927 56.8236 19.4772 56.7476 19.3503 56.6965C19.2234 56.6453 19.0876 56.6198 18.9508 56.6217H13.5784C13.3522 56.6427 13.1242 56.6163 12.9088 56.5439C12.6935 56.4716 12.4956 56.3551 12.3277 56.2018C12.1599 56.0484 12.0258 55.8617 11.934 55.6535C11.8423 55.4452 11.7949 55.2202 11.7949 54.9926C11.7949 54.765 11.8423 54.5399 11.934 54.3317C12.0258 54.1235 12.1599 53.9367 12.3277 53.7834C12.4956 53.63 12.6935 53.5135 12.9088 53.4412C13.1242 53.3689 13.3522 53.3424 13.5784 53.3634H18.9508C20.0896 53.3671 21.1806 53.8221 21.9859 54.6291C22.7911 55.436 23.2451 56.5293 23.2488 57.6705V92.0716C23.2488 93.2139 22.7959 94.3094 21.9899 95.1172C21.1839 95.9249 20.0907 96.3788 18.9508 96.3788Z" fill="#8FFEDB"/>
<path fill-rule="evenodd" clip-rule="evenodd" d="M3.25138 96.421H10.8426C11.1362 96.4173 11.4166 96.2979 11.623 96.0885C11.8293 95.8791 11.945 95.5966 11.945 95.3023V54.4266C11.945 54.1336 11.8288 53.8526 11.6221 53.6454C11.4153 53.4382 11.135 53.3218 10.8426 53.3218H3.25138V96.421ZM10.8426 99.6794H1.61872C1.18813 99.6757 0.776425 99.5017 0.473252 99.1952C0.17008 98.8888 -1.57273e-05 98.4747 1.09071e-09 98.0432V51.6857C1.09071e-09 51.2555 0.170537 50.8428 0.474104 50.5386C0.777671 50.2344 1.18941 50.0635 1.61872 50.0635H10.8426C11.9973 50.0635 13.1047 50.5232 13.9212 51.3415C14.7377 52.1597 15.1963 53.2695 15.1963 54.4266V95.3023C15.1963 96.4608 14.7381 97.572 13.922 98.3924C13.1059 99.2129 11.9986 99.6757 10.8426 99.6794Z" fill="#8FFEDB"/>
<path fill-rule="evenodd" clip-rule="evenodd" d="M90.0195 10.6838C86.5193 10.681 83.097 11.7186 80.1853 13.6654C77.2737 15.6121 75.0036 18.3805 73.6623 21.6203C72.3209 24.8601 71.9685 28.4258 72.6497 31.8664C73.3308 35.307 75.0149 38.4679 77.4889 40.9491C79.963 43.4304 83.1157 45.1205 86.5485 45.8059C89.9812 46.4912 93.5396 46.1409 96.7736 44.7992C100.008 43.4575 102.772 41.1848 104.717 38.2685C106.662 35.3522 107.7 31.9233 107.7 28.4157C107.696 23.7165 105.833 19.2105 102.518 15.8864C99.2036 12.5622 94.7088 10.6912 90.0195 10.6838ZM90.0195 49.3919C85.8796 49.3919 81.8327 48.1617 78.3905 45.8568C74.9484 43.5519 72.2655 40.2758 70.6812 36.4429C69.097 32.61 68.6824 28.3925 69.4901 24.3235C70.2977 20.2545 72.2913 16.5168 75.2186 13.5832C78.146 10.6497 81.8756 8.65189 85.936 7.84252C89.9963 7.03315 94.2049 7.44853 98.0297 9.03617C101.854 10.6238 105.123 13.3124 107.423 16.7619C109.723 20.2114 110.951 24.267 110.951 28.4157C110.933 33.9668 108.719 39.2842 104.796 43.2029C100.872 47.1216 95.5589 49.3221 90.0195 49.322V49.3919Z" fill="#8FFEDB"/>
<path fill-rule="evenodd" clip-rule="evenodd" d="M90.0202 3.25865C85.0684 3.25589 80.2269 4.72492 76.1082 7.4799C71.9895 10.2349 68.7786 14.152 66.8817 18.7359C64.9848 23.3199 64.487 28.3646 65.4514 33.232C66.4158 38.0994 68.799 42.5709 72.2995 46.0809C75.8 49.5909 80.2607 51.9816 85.1172 52.9508C89.9738 53.9199 95.008 53.424 99.5832 51.5255C104.158 49.6271 108.069 46.4115 110.82 42.2856C113.572 38.1597 115.04 33.3087 115.04 28.3463C115.018 21.7018 112.376 15.3356 107.689 10.636C103.002 5.93632 96.6505 3.28446 90.0202 3.25865ZM90.0202 56.6782C84.4247 56.681 78.954 55.0204 74.3004 51.9068C69.6467 48.7932 66.0191 44.3663 63.8765 39.1862C61.7339 34.0061 61.1726 28.3055 62.2635 22.8057C63.3545 17.3058 66.0487 12.2538 70.0054 8.2887C73.962 4.32361 79.0033 1.6236 84.4915 0.530317C89.9796 -0.562971 95.6681 -0.000443892 100.837 2.14672C106.006 4.29389 110.424 7.92925 113.531 12.5929C116.638 17.2565 118.295 22.7388 118.292 28.3463C118.284 35.8581 115.303 43.0601 110.003 48.3718C104.703 53.6834 97.5161 56.6708 90.0202 56.6782Z" fill="#8FFEDB"/>
<path fill-rule="evenodd" clip-rule="evenodd" d="M7.59133 91.6521C7.16465 91.6527 6.75443 91.4872 6.44708 91.1906L6.23775 90.9389L6.09822 90.6592C6.05317 90.5611 6.02035 90.4577 6.00053 90.3515C5.9868 90.2447 5.9868 90.1367 6.00053 90.0299C5.98725 89.9231 5.98725 89.8151 6.00053 89.7083C6.02033 89.6066 6.05317 89.5078 6.09822 89.4146C6.13628 89.3129 6.18295 89.2147 6.23775 89.121L6.44708 88.8832C6.52133 88.8026 6.60576 88.7321 6.69825 88.6735C6.78378 88.6131 6.87785 88.566 6.97733 88.5336C7.0704 88.4884 7.1689 88.4555 7.27038 88.4357C7.48232 88.3938 7.70034 88.3938 7.91228 88.4357C8.01823 88.4555 8.12134 88.4884 8.21927 88.5336C8.31875 88.566 8.41282 88.6131 8.49836 88.6735L8.74955 88.8832C9.05187 89.1881 9.2223 89.6 9.22399 90.0299C9.21865 90.4631 9.04903 90.8781 8.74955 91.1906L8.49836 91.3864L8.21927 91.5402C8.12091 91.5811 8.01774 91.6093 7.91228 91.6241C7.80811 91.6542 7.69911 91.6637 7.59133 91.6521Z" fill="#8FFEDB"/>
<path fill-rule="evenodd" clip-rule="evenodd" d="M81.843 25.7305L85.0107 28.835C85.293 29.1104 85.505 29.4499 85.6289 29.8247C85.7527 30.1995 85.7848 30.5987 85.7223 30.9886L84.9688 35.3795L88.89 33.2959C89.2399 33.1167 89.6273 33.0233 90.0203 33.0233C90.4133 33.0233 90.8007 33.1167 91.1506 33.2959L95.0857 35.3656L94.3322 30.9886C94.2625 30.5965 94.291 30.1931 94.4152 29.8148C94.5394 29.4365 94.7555 29.095 95.0439 28.821L98.2115 25.7305L93.8159 25.0872C93.4187 25.0261 93.0432 24.866 92.7239 24.6217C92.4045 24.3774 92.1514 24.0566 91.9879 23.6888L90.0203 19.7173L88.0667 23.7028C87.9 24.0684 87.646 24.3873 87.3272 24.6312C87.0084 24.8751 86.6345 25.0365 86.2387 25.1012L81.843 25.7305ZM96.1742 39.3091C95.7799 39.3126 95.3912 39.2165 95.0439 39.0295L90.0203 36.3865L85.0107 39.0295C84.6099 39.2423 84.1577 39.3384 83.7052 39.3069C83.2528 39.2753 82.8182 39.1174 82.4507 38.851C82.0832 38.5846 81.7975 38.2204 81.626 37.7996C81.4544 37.3789 81.4039 36.9184 81.4802 36.4704L82.4431 30.8767L78.3823 26.9051C78.0547 26.5915 77.823 26.1909 77.7143 25.7501C77.6055 25.3093 77.6243 24.8465 77.7683 24.416C77.9066 23.9836 78.1628 23.5985 78.5081 23.3045C78.8533 23.0104 79.2738 22.819 79.7219 22.7519L85.3037 21.9408L87.8155 16.8506C88.0049 16.4347 88.3093 16.0819 88.6927 15.834C89.076 15.5862 89.5222 15.4537 89.9784 15.4521C90.4366 15.4527 90.8851 15.5847 91.2708 15.8325C91.6566 16.0803 91.9635 16.4336 92.1553 16.8506L94.6671 21.9408L100.249 22.7519C100.699 22.8181 101.122 23.009 101.469 23.303C101.817 23.597 102.076 23.9825 102.216 24.416C102.36 24.8465 102.379 25.3093 102.271 25.7501C102.162 26.1909 101.93 26.5915 101.602 26.9051L97.5417 30.8767L98.5046 36.4704C98.5826 36.9172 98.5338 37.3771 98.3635 37.7974C98.1933 38.2178 97.9085 38.5818 97.5417 38.8477C97.1352 39.1139 96.6598 39.2549 96.1742 39.2532V39.3091Z" fill="#8FFEDB"/>
<path fill-rule="evenodd" clip-rule="evenodd" d="M54.283 29.9684H49.5803C49.3542 29.9894 49.1261 29.9629 48.9108 29.8906C48.6954 29.8183 48.4975 29.7018 48.3297 29.5484C48.1618 29.3951 48.0277 29.2083 47.936 29.0001C47.8443 28.7919 47.7969 28.5668 47.7969 28.3392C47.7969 28.1116 47.8443 27.8866 47.936 27.6784C48.0277 27.4702 48.1618 27.2834 48.3297 27.1301C48.4975 26.9767 48.6954 26.8602 48.9108 26.7879C49.1261 26.7156 49.3542 26.6891 49.5803 26.7101H54.2969C54.7021 26.7478 55.0786 26.9356 55.3527 27.237C55.6268 27.5384 55.7788 27.9315 55.7788 28.3392C55.7788 28.747 55.6268 29.1401 55.3527 29.4415C55.0786 29.7429 54.7021 29.9307 54.2969 29.9684H54.283Z" fill="#8FFEDB"/>
<path fill-rule="evenodd" clip-rule="evenodd" d="M57.5478 22.067C57.334 22.0666 57.1225 22.023 56.9259 21.9389C56.7293 21.8548 56.5516 21.7319 56.4035 21.5775L53.0963 18.2493C52.8276 17.9364 52.6869 17.5333 52.7023 17.1209C52.7177 16.7084 52.8881 16.317 53.1794 16.0251C53.4706 15.7332 53.8612 15.5625 54.2728 15.547C54.6844 15.5316 55.0866 15.6727 55.3988 15.9419L58.7199 19.2841C58.9489 19.5121 59.1053 19.803 59.1694 20.1201C59.2335 20.4371 59.2023 20.7661 59.0798 21.0655C58.9574 21.3648 58.7491 21.621 58.4814 21.8018C58.2137 21.9825 57.8985 22.0797 57.5757 22.081L57.5478 22.067Z" fill="#8FFEDB"/>
<path fill-rule="evenodd" clip-rule="evenodd" d="M54.2272 41.2109C54.0123 41.2127 53.7992 41.1715 53.6003 41.0899C53.4015 41.0082 53.2208 40.8877 53.0689 40.7354C52.7681 40.4271 52.5996 40.0129 52.5996 39.5817C52.5996 39.1504 52.7681 38.7364 53.0689 38.4281L56.404 35.0998C56.7076 34.7958 57.1192 34.625 57.5483 34.625C57.9775 34.625 58.389 34.7958 58.6926 35.0998C58.9968 35.4064 59.1675 35.8211 59.1675 36.2534C59.1675 36.6858 58.9968 37.1006 58.6926 37.4072L55.3575 40.7494C55.2087 40.8971 55.0322 41.0139 54.8382 41.0931C54.6443 41.1723 54.4366 41.2123 54.2272 41.2109Z" fill="#8FFEDB"/>
<path fill-rule="evenodd" clip-rule="evenodd" d="M130.474 29.9682H125.757C125.352 29.9306 124.976 29.7427 124.701 29.4413C124.427 29.14 124.275 28.7469 124.275 28.3391C124.275 27.9313 124.427 27.5382 124.701 27.2368C124.976 26.9355 125.352 26.7476 125.757 26.71H130.474C130.879 26.7476 131.256 26.9355 131.53 27.2368C131.804 27.5382 131.956 27.9313 131.956 28.3391C131.956 28.7469 131.804 29.14 131.53 29.4413C131.256 29.7427 130.879 29.9306 130.474 29.9682Z" fill="#8FFEDB"/>
<path fill-rule="evenodd" clip-rule="evenodd" d="M122.491 22.067C122.056 22.0637 121.639 21.8877 121.333 21.5775C121.03 21.2733 120.859 20.8608 120.859 20.4308C120.859 20.0007 121.03 19.5883 121.333 19.2841L124.654 15.9419C124.966 15.6727 125.369 15.5316 125.78 15.547C126.192 15.5625 126.582 15.7332 126.874 16.0251C127.165 16.317 127.335 16.7084 127.351 17.1209C127.366 17.5333 127.225 17.9364 126.957 18.2493L123.622 21.5775C123.475 21.7303 123.3 21.8522 123.106 21.9363C122.912 22.0203 122.703 22.0647 122.491 22.067Z" fill="#8FFEDB"/>
<path fill-rule="evenodd" clip-rule="evenodd" d="M125.827 41.2112C125.613 41.213 125.399 41.1718 125.201 41.0902C125.002 41.0085 124.821 40.888 124.669 40.7357L121.348 37.3935C121.192 37.2443 121.067 37.0653 120.98 36.8669C120.894 36.6686 120.848 36.455 120.846 36.2386C120.843 36.0223 120.884 35.8076 120.965 35.6072C121.047 35.4068 121.167 35.2248 121.32 35.0718C121.472 34.9188 121.654 34.798 121.854 34.7164C122.054 34.6348 122.268 34.5942 122.484 34.5968C122.7 34.5994 122.913 34.6453 123.111 34.7317C123.309 34.8182 123.488 34.9435 123.637 35.1001L126.972 38.4284C127.273 38.7367 127.441 39.1507 127.441 39.582C127.441 40.0132 127.273 40.4274 126.972 40.7357C126.668 41.04 126.257 41.211 125.827 41.2112Z" fill="#8FFEDB"/>
</g>
<defs>
<clipPath id="clip0_1078_576">
<rect width="142" height="106" fill="white"/>
</clipPath>
</defs>
</svg>
