<svg width="161" height="262" viewBox="0 0 161 262" fill="none" xmlns="http://www.w3.org/2000/svg">
<path d="M149.703 261.298H11.5577C5.5071 261.298 0.556641 256.344 0.556641 250.29V11.8372C0.556641 5.78302 5.5071 0.82959 11.5577 0.82959H149.703C155.753 0.82959 160.704 5.78302 160.704 11.8372V250.29C160.704 256.344 155.753 261.298 149.703 261.298Z" fill="url(#paint0_linear_901_35)"/>
<path d="M122.567 120.336L127.756 132.527L122.567 144.755H110.548L98.3281 132.527L110.512 120.336H122.567Z" fill="white"/>
<path d="M114.069 99.4579L119.047 111.796L110.512 120.336H93.2769H93.2402V103.045L101.775 94.5137L114.069 99.4579Z" fill="white"/>
<path d="M98.3287 132.527L93.2773 137.618V127.473L98.3287 132.527Z" fill="white"/>
<path d="M93.2769 144.754H110.549L119.047 153.258L114.069 165.595L101.775 170.54L93.2402 162.009V144.754H93.2769Z" fill="white"/>
<path d="M93.2393 162.009V174.062L81.0556 179.291L68.8262 174.062V162.045L81.0556 149.809L93.2393 162.009Z" fill="white"/>
<path d="M93.2393 90.9913V103.045L81.0556 115.245L68.8262 103.017V90.9913L81.0556 85.7627L93.2393 90.9913Z" fill="white"/>
<path d="M86.0993 120.336H76.0059L81.0572 115.281L86.0993 120.336Z" fill="white"/>
<path d="M76.0059 144.754H86.0993L81.0572 149.809L76.0059 144.754Z" fill="white"/>
<path d="M68.8262 127.473V120.336H76.0043H86.0977H93.2393H93.276V127.473V137.618V144.755H93.2393H86.0977H76.0043H68.8262V137.618V127.473Z" fill="white"/>
<path d="M68.8265 144.754V162.046L60.3282 170.54L48.0071 165.595L43.0566 153.258L51.5549 144.754H68.8265Z" fill="white"/>
<path d="M68.8267 127.473V137.618L63.7754 132.564V132.527L68.8267 127.473Z" fill="white"/>
<path d="M68.8265 103.017V120.336H51.5915L43.0566 111.796L48.0071 99.4579L60.3282 94.5137L68.8265 103.017Z" fill="white"/>
<path d="M63.7756 132.527V132.564L51.5553 144.755H39.5092L34.3203 132.527L39.5092 120.336H51.5919L63.7756 132.527Z" fill="white"/>
<defs>
<linearGradient id="paint0_linear_901_35" x1="-21.2533" y1="29.1186" x2="182.638" y2="232.887" gradientUnits="userSpaceOnUse">
<stop stop-color="#8FFEDB"/>
<stop offset="0.0155" stop-color="#77D4BB"/>
<stop offset="0.0337" stop-color="#5FAB9B"/>
<stop offset="0.0536" stop-color="#4A877E"/>
<stop offset="0.0748" stop-color="#386867"/>
<stop offset="0.098" stop-color="#2A4F53"/>
<stop offset="0.1238" stop-color="#1F3C44"/>
<stop offset="0.1538" stop-color="#172E3A"/>
<stop offset="0.1915" stop-color="#122634"/>
<stop offset="0.2626" stop-color="#112432"/>
<stop offset="0.6434" stop-color="#11202F"/>
<stop offset="1" stop-color="#101528"/>
</linearGradient>
</defs>
</svg>
