<svg width="161" height="262" viewBox="0 0 161 262" fill="none" xmlns="http://www.w3.org/2000/svg">
<path d="M149.568 261.113H11.4229C5.37233 261.113 0.421875 256.16 0.421875 250.105V11.6527C0.421875 5.59845 5.37233 0.64502 11.4229 0.64502H149.568C155.619 0.64502 160.569 5.59845 160.569 11.6527V250.105C160.569 256.16 155.619 261.113 149.568 261.113Z" fill="url(#paint0_linear_481_657)"/>
<path d="M98.8538 133.966C97.2494 133.966 95.5168 133.966 93.9125 134.085V104.309H93.7933C93.9124 103.942 93.9125 103.447 93.9125 103.071C93.9125 95.4114 77.2459 91.9531 61.8078 91.9531C46.3697 91.9531 29.7031 95.4114 29.7031 103.071C29.7031 103.438 29.7031 103.933 29.8223 104.309H29.7031V152.495C29.7031 160.155 46.3697 163.613 61.8078 163.613C63.4121 163.613 65.1448 163.613 66.7491 163.494V169.795C66.7491 177.455 83.4157 180.913 98.8538 180.913C114.292 180.913 130.958 177.455 130.958 169.795V145.083C130.958 137.424 114.283 133.966 98.8538 133.966ZM88.1094 134.58C88.4761 134.461 88.7236 134.333 88.9711 134.085V134.452C88.7328 134.461 88.3569 134.461 88.1094 134.58ZM61.8078 96.8974C79.4644 96.8974 88.9711 101.218 88.9711 103.071C88.9711 104.924 79.4644 109.244 61.8078 109.244C44.1511 109.244 34.6444 104.924 34.6444 103.071C34.6444 101.218 44.1511 96.8974 61.8078 96.8974ZM34.6444 109.382C40.695 112.721 51.5585 114.198 61.8078 114.198C72.0571 114.198 82.9206 112.712 88.9711 109.382V115.436C88.9711 117.289 79.4644 121.61 61.8078 121.61C44.1511 121.61 34.6444 117.289 34.6444 115.436V109.382ZM34.6444 121.729C40.695 125.068 51.5585 126.545 61.8078 126.545C72.0571 126.545 82.9206 125.059 88.9711 121.729V127.783C88.9711 129.636 79.4644 133.956 61.8078 133.956C44.1511 133.956 34.6444 129.636 34.6444 127.783V121.729ZM34.6444 134.085C40.695 137.424 51.5585 138.901 61.8078 138.901C65.3923 138.901 69.096 138.653 72.5521 138.286C68.9676 140.02 66.7491 142.24 66.7491 145.083V146.193C65.1448 146.312 63.4121 146.312 61.8078 146.312C44.1511 146.312 34.6444 141.992 34.6444 140.139V134.085ZM61.8078 158.669C44.1511 158.669 34.6444 154.348 34.6444 152.495V146.441C40.695 149.78 51.5585 151.257 61.8078 151.257C63.4121 151.257 65.1448 151.257 66.7491 151.138V158.549C65.1448 158.669 63.4213 158.669 61.8078 158.669ZM98.8538 175.969C81.1971 175.969 71.6904 171.648 71.6904 169.795V163.741C77.741 167.08 88.6045 168.557 98.8538 168.557C109.103 168.557 119.967 167.071 126.017 163.741V169.795C126.017 171.648 116.51 175.969 98.8538 175.969ZM98.8538 163.613C81.1971 163.613 71.6904 159.292 71.6904 157.439V151.385C77.741 154.724 88.6045 156.201 98.8538 156.201C109.103 156.201 119.967 154.715 126.017 151.385V157.439C126.017 159.292 116.51 163.613 98.8538 163.613ZM98.8538 151.257C81.1971 151.257 71.6904 146.936 71.6904 145.083C71.6904 143.23 81.1971 138.91 98.8538 138.91C116.51 138.91 126.017 143.23 126.017 145.083C126.017 146.936 116.51 151.257 98.8538 151.257Z" fill="white"/>
<defs>
<linearGradient id="paint0_linear_481_657" x1="-21.388" y1="28.934" x2="182.503" y2="232.703" gradientUnits="userSpaceOnUse">
<stop stop-color="#8FFEDB"/>
<stop offset="0.0155" stop-color="#77D4BB"/>
<stop offset="0.0337" stop-color="#5FAB9B"/>
<stop offset="0.0536" stop-color="#4A877E"/>
<stop offset="0.0748" stop-color="#386867"/>
<stop offset="0.098" stop-color="#2A4F53"/>
<stop offset="0.1238" stop-color="#1F3C44"/>
<stop offset="0.1538" stop-color="#172E3A"/>
<stop offset="0.1915" stop-color="#122634"/>
<stop offset="0.2626" stop-color="#112432"/>
<stop offset="0.6434" stop-color="#11202F"/>
<stop offset="1" stop-color="#101528"/>
</linearGradient>
</defs>
</svg>
