<svg width="161" height="262" viewBox="0 0 161 262" fill="none" xmlns="http://www.w3.org/2000/svg">
<path d="M149.568 261.298H11.4229C5.37233 261.298 0.421875 256.344 0.421875 250.29V11.8372C0.421875 5.78302 5.37233 0.82959 11.4229 0.82959H149.568C155.619 0.82959 160.569 5.78302 160.569 11.8372V250.29C160.569 256.344 155.619 261.298 149.568 261.298Z" fill="url(#paint0_linear_901_34)"/>
<path fill-rule="evenodd" clip-rule="evenodd" d="M62.5607 119.501C62.1298 119.07 62.1298 118.373 62.5607 117.951L83.4626 96.8803C83.6643 96.6693 83.9485 96.5592 84.2419 96.5592C84.5352 96.5592 84.8103 96.6785 85.0211 96.8803L94.8578 106.723L106.904 94.6604L103.448 94.798C102.843 94.8347 102.32 94.3668 102.284 93.7614C102.247 93.156 102.714 92.6332 103.319 92.5965C103.329 92.5965 103.347 92.5965 103.356 92.5965L109.618 92.3488C110.223 92.3213 110.736 92.7983 110.764 93.4037C110.764 93.4312 110.764 93.4679 110.764 93.4954L110.507 99.7514C110.479 100.339 110.003 100.806 109.407 100.806H109.361C108.756 100.779 108.279 100.274 108.307 99.6597L108.444 96.2107L95.6188 109.053C95.1879 109.484 94.4911 109.484 94.0694 109.053L84.2419 99.2194L64.11 119.51C63.6883 119.923 62.9916 119.923 62.5607 119.501ZM121.022 139.461L102.577 160.495C101.018 162.339 98.7174 163.385 96.2971 163.339H65.9802C64.9626 163.33 63.9725 163.642 63.1474 164.247L58.967 167.228L47.3243 147.048C56.4185 139.425 69.5739 134.242 80.0523 142.002C80.2448 142.14 80.474 142.213 80.7032 142.213H96.7372C98.7999 142.213 100.478 143.892 100.478 145.956C100.478 148.02 98.7999 149.699 96.7372 149.699H80.7032C80.0981 149.717 79.6214 150.221 79.6398 150.827C79.6581 151.405 80.1256 151.873 80.7032 151.891H96.7372C100.019 151.891 102.678 149.231 102.678 145.956C102.678 145.222 102.54 144.497 102.274 143.809L114.596 133.04C116.328 131.233 119.198 131.169 121.013 132.903C122.828 134.636 122.883 137.508 121.15 139.324C121.104 139.379 121.068 139.425 121.022 139.461ZM59.3062 172.686C59.3612 172.484 59.3337 172.264 59.2329 172.081L44.959 147.341L44.2807 146.158C44.134 145.91 43.8773 145.763 43.5931 145.763C43.4556 145.763 43.3181 145.8 43.1989 145.864L33.3988 151.524C33.0229 151.744 32.8946 152.23 33.1054 152.606L48.0668 178.529C48.2869 178.905 48.7727 179.034 49.1486 178.823L58.9487 173.163C59.1229 173.062 59.2512 172.888 59.3062 172.686ZM61.5248 129.591V136.921C61.7356 136.866 61.9373 136.81 62.1481 136.765C63.8533 136.343 65.5952 136.095 67.3462 136.012V129.591H61.5248ZM76.7337 115.456V137.599C78.2647 138.232 79.7223 139.049 81.0791 140.012H82.5642V115.456H76.7337ZM91.9334 121.216V140.012H96.7555C97.0947 140.012 97.4248 140.039 97.764 140.094V121.207H91.9334V121.216ZM107.142 105.907V136.664L112.973 131.573V105.907H107.142ZM115.164 130.132V104.806C115.164 104.2 114.669 103.705 114.064 103.705H106.042C105.437 103.705 104.942 104.191 104.942 104.806V138.581L101.101 141.92C100.762 141.553 100.368 141.223 99.9459 140.957V120.116C99.9459 119.51 99.4508 119.015 98.8457 119.015H90.8242C90.2191 119.015 89.724 119.501 89.724 120.116V140.021H84.7461V114.355C84.7461 113.749 84.251 113.254 83.646 113.254H75.6244C75.0193 113.254 74.5243 113.749 74.5243 114.355V136.838C72.9016 136.37 71.2332 136.095 69.5463 136.012V128.481C69.5463 127.876 69.0513 127.381 68.4462 127.381H60.4155C59.8104 127.381 59.3154 127.876 59.3154 128.481V137.581C54.53 139.296 50.0929 141.846 46.1967 145.112L46.1692 145.066C45.3441 143.635 43.5197 143.149 42.0896 143.975L32.2895 149.634C30.8594 150.46 30.3735 152.295 31.1986 153.726L46.1508 179.648C46.9759 181.079 48.8002 181.566 50.2304 180.74L60.0304 175.08C61.4606 174.255 61.9465 172.429 61.1214 170.998L60.058 169.155L64.4125 166.054C64.8618 165.715 65.4118 165.54 65.971 165.559H96.288C99.3316 165.595 102.238 164.284 104.218 161.972L122.663 140.929C125.175 138.269 125.147 134.095 122.617 131.463C120.637 129.518 117.667 128.995 115.136 130.151L115.164 130.132Z" fill="white"/>
<defs>
<linearGradient id="paint0_linear_901_34" x1="-21.388" y1="29.1186" x2="182.503" y2="232.887" gradientUnits="userSpaceOnUse">
<stop stop-color="#8FFEDB"/>
<stop offset="0.0155" stop-color="#77D4BB"/>
<stop offset="0.0337" stop-color="#5FAB9B"/>
<stop offset="0.0536" stop-color="#4A877E"/>
<stop offset="0.0748" stop-color="#386867"/>
<stop offset="0.098" stop-color="#2A4F53"/>
<stop offset="0.1238" stop-color="#1F3C44"/>
<stop offset="0.1538" stop-color="#172E3A"/>
<stop offset="0.1915" stop-color="#122634"/>
<stop offset="0.2626" stop-color="#112432"/>
<stop offset="0.6434" stop-color="#11202F"/>
<stop offset="1" stop-color="#101528"/>
</linearGradient>
</defs>
</svg>
