<svg width="161" height="262" viewBox="0 0 161 262" fill="none" xmlns="http://www.w3.org/2000/svg">
<path d="M149.701 261.113H11.5557C5.50515 261.113 0.554688 256.16 0.554688 250.105V11.6527C0.554688 5.59845 5.50515 0.64502 11.5557 0.64502H149.701C155.752 0.64502 160.702 5.59845 160.702 11.6527V250.105C160.702 256.16 155.752 261.113 149.701 261.113Z" fill="url(#paint0_linear_901_32)"/>
<path d="M89.5979 134.424L86.9852 132.801V132.691C86.9852 131.782 86.2518 131.039 85.335 131.039H84.6383V130.342C84.6383 128.141 82.8506 126.352 80.6504 126.352C78.4502 126.352 76.6626 128.141 76.6626 130.342V131.039H75.9659C75.0583 131.039 74.3157 131.773 74.3157 132.691V132.801L71.7029 134.424C63.553 134.608 56.384 139.58 53.3404 147.184C53.0653 147.872 53.2854 148.652 53.863 149.101C54.1563 149.33 54.5138 149.441 54.8622 149.441C55.2106 149.441 55.5589 149.33 55.8523 149.11L60.2527 145.808C63.1772 143.616 66.7983 142.405 70.4562 142.405H74.3799C74.5357 143.157 75.1683 143.726 75.9567 143.726H76.6534V181.95C76.6534 184.151 78.4411 185.94 80.6413 185.94C82.8415 185.94 84.6291 184.151 84.6291 181.95V143.726H85.3259C86.1234 143.726 86.7468 143.148 86.9026 142.405H90.8264C94.4842 142.405 98.1054 143.616 101.03 145.808L105.43 149.11C105.724 149.33 106.072 149.441 106.42 149.441C106.429 149.441 106.448 149.441 106.457 149.441C107.41 149.56 108.135 148.716 108.135 147.789C108.135 147.404 108.006 147.056 107.786 146.771C104.66 139.405 97.6012 134.617 89.5979 134.424ZM77.6068 140.433V134.342H78.3035H82.9881H83.6848V140.433H82.9881H78.3035H77.6068ZM79.9537 130.351C79.9537 129.581 81.3472 129.581 81.3472 130.351V131.049H79.9537V130.351ZM62.4071 140.781C65.194 138.827 68.5768 137.717 72.1705 137.717C72.473 137.717 72.7755 137.635 73.0414 137.47L74.3157 136.681V139.112H70.4562C67.6876 139.112 64.9373 139.69 62.4071 140.781ZM81.338 181.959C81.338 182.729 79.9445 182.729 79.9445 181.959V143.735H81.338V181.959ZM90.8355 139.112H86.976V136.681L88.2502 137.47C88.5069 137.635 88.8095 137.717 89.1212 137.717C92.7149 137.717 96.0886 138.827 98.8846 140.781C96.3544 139.69 93.6041 139.112 90.8355 139.112Z" fill="white"/>
<path d="M59.2346 103.236V121.665C59.2346 122.573 59.968 123.316 60.8847 123.316H72.4175V124.967C72.4175 125.875 73.1509 126.618 74.0676 126.618C74.9844 126.618 75.7178 125.884 75.7178 124.967V121.674C75.7178 120.766 74.9844 120.023 74.0676 120.023H62.5349V103.236C64.4509 102.557 65.826 100.741 65.826 98.5947C65.826 95.8703 63.6075 93.6504 60.8847 93.6504C58.162 93.6504 55.9434 95.8703 55.9434 98.5947C55.9342 100.741 57.3186 102.557 59.2346 103.236ZM60.8755 96.9527C61.7831 96.9527 62.5257 97.6865 62.5257 98.6038C62.5257 99.5211 61.7923 100.255 60.8755 100.255C59.9588 100.255 59.2254 99.5211 59.2254 98.6038C59.2346 97.6865 59.9679 96.9527 60.8755 96.9527Z" fill="white"/>
<path d="M79.0001 102.832V121.665C79.0001 122.573 79.7336 123.316 80.6503 123.316C81.5579 123.316 82.3004 122.582 82.3004 121.665V102.832C84.2164 102.154 85.5916 100.337 85.5916 98.1908C85.5916 95.4665 83.3731 93.2466 80.6503 93.2466C77.9276 93.2466 75.709 95.4665 75.709 98.1908C75.6999 100.337 77.0841 102.154 79.0001 102.832ZM80.6412 96.5489C81.5487 96.5489 82.2912 97.2827 82.2912 98.2C82.2912 99.1081 81.5579 99.8512 80.6412 99.8512C79.7336 99.8512 78.991 99.1173 78.991 98.2C79.0001 97.2827 79.7336 96.5489 80.6412 96.5489Z" fill="white"/>
<path d="M125.122 98.5947C125.122 95.8703 122.903 93.6504 120.18 93.6504C117.458 93.6504 115.239 95.8703 115.239 98.5947C115.239 100.741 116.623 102.557 118.53 103.236V129.911H97.1149C96.2073 129.911 95.4648 130.645 95.4648 131.563C95.4648 132.471 96.1982 133.214 97.1149 133.214H120.171C121.079 133.214 121.821 132.48 121.821 131.563V103.245C123.737 102.557 125.122 100.741 125.122 98.5947ZM120.18 100.246C119.273 100.246 118.53 99.512 118.53 98.5947C118.53 97.6865 119.264 96.9435 120.18 96.9435C121.088 96.9435 121.831 97.6773 121.831 98.5947C121.821 99.512 121.088 100.246 120.18 100.246Z" fill="white"/>
<path d="M62.5265 131.563C62.5265 130.654 61.7931 129.911 60.8763 129.911H42.7613V103.236C44.6773 102.557 46.0525 100.741 46.0525 98.5947C46.0525 95.8703 43.834 93.6504 41.1112 93.6504C38.3885 93.6504 36.1699 95.8703 36.1699 98.5947C36.1699 100.741 37.5542 102.557 39.461 103.236V131.553C39.461 132.461 40.1945 133.204 41.1112 133.204H60.8763C61.7931 133.204 62.5265 132.471 62.5265 131.563ZM41.1112 96.9527C42.0188 96.9527 42.7613 97.6865 42.7613 98.6038C42.7613 99.5211 42.028 100.255 41.1112 100.255C40.1945 100.255 39.461 99.5211 39.461 98.6038C39.4702 97.6865 40.2036 96.9527 41.1112 96.9527Z" fill="white"/>
<path d="M85.582 124.967C85.582 125.875 86.3154 126.618 87.2321 126.618C88.1397 126.618 88.8823 125.884 88.8823 124.967V123.316H100.415C101.323 123.316 102.065 122.582 102.065 121.665V103.236C103.981 102.557 105.356 100.741 105.356 98.5947C105.356 95.8703 103.138 93.6504 100.415 93.6504C97.6923 93.6504 95.4737 95.8703 95.4737 98.5947C95.4737 100.741 96.8581 102.557 98.7649 103.236V120.023H87.2321C86.3245 120.023 85.582 120.757 85.582 121.674V124.967ZM100.415 96.9527C101.323 96.9527 102.065 97.6865 102.065 98.6038C102.065 99.5211 101.332 100.255 100.415 100.255C99.5074 100.255 98.7649 99.5211 98.7649 98.6038C98.7649 97.6865 99.4983 96.9527 100.415 96.9527Z" fill="white"/>
<defs>
<linearGradient id="paint0_linear_901_32" x1="-21.2553" y1="28.934" x2="182.636" y2="232.703" gradientUnits="userSpaceOnUse">
<stop stop-color="#8FFEDB"/>
<stop offset="0.0155" stop-color="#77D4BB"/>
<stop offset="0.0337" stop-color="#5FAB9B"/>
<stop offset="0.0536" stop-color="#4A877E"/>
<stop offset="0.0748" stop-color="#386867"/>
<stop offset="0.098" stop-color="#2A4F53"/>
<stop offset="0.1238" stop-color="#1F3C44"/>
<stop offset="0.1538" stop-color="#172E3A"/>
<stop offset="0.1915" stop-color="#122634"/>
<stop offset="0.2626" stop-color="#112432"/>
<stop offset="0.6434" stop-color="#11202F"/>
<stop offset="1" stop-color="#101528"/>
</linearGradient>
</defs>
</svg>
