<svg width="161" height="262" viewBox="0 0 161 262" fill="none" xmlns="http://www.w3.org/2000/svg">
<path d="M149.433 261.113H11.2881C5.23757 261.113 0.287109 256.16 0.287109 250.105V11.6527C0.287109 5.59845 5.23757 0.64502 11.2881 0.64502H149.433C155.484 0.64502 160.434 5.59845 160.434 11.6527V250.105C160.434 256.16 155.484 261.113 149.433 261.113Z" fill="url(#paint0_linear_481_747)"/>
<path d="M84.4434 102.658C80.4005 102.658 77.1094 105.942 77.1094 109.997C77.1094 114.042 80.3913 117.335 84.4434 117.335C88.4771 117.335 91.7774 114.051 91.7774 109.997C91.7774 105.942 88.4771 102.658 84.4434 102.658ZM84.4434 115.023C81.6656 115.023 79.4013 112.758 79.4013 109.978C79.4013 107.199 81.6656 104.933 84.4434 104.933C87.2211 104.933 89.4855 107.199 89.4855 109.978C89.4855 112.758 87.2303 115.023 84.4434 115.023Z" fill="white"/>
<path d="M111.937 121.61H107.766V110.061C107.766 109.437 107.244 108.914 106.62 108.914H101.046V108.428C101.046 107.236 100.157 106.227 98.9837 106.071L96.6001 105.75C96.4443 105.291 96.261 104.851 96.0501 104.42L97.4986 102.512C98.2136 101.567 98.122 100.218 97.2877 99.3835L95.0692 97.1545C94.2258 96.3106 92.8873 96.2188 91.943 96.9435L90.0362 98.3929C89.5962 98.1819 89.147 97.9984 88.6886 97.8425L88.3677 95.4575C88.2119 94.2833 87.1943 93.3936 86.0117 93.3936H82.8672C81.6754 93.3936 80.667 94.2833 80.502 95.4575L80.1811 97.8425C79.7227 97.9984 79.2827 98.1819 78.8518 98.3929L76.945 96.9435C76.0007 96.228 74.6531 96.3197 73.8189 97.1545L71.6003 99.3744C70.7569 100.218 70.6652 101.558 71.3895 102.502L72.8379 104.41C72.6363 104.841 72.4529 105.282 72.2879 105.74L69.9043 106.062C68.7309 106.217 67.8416 107.236 67.8416 108.419V108.905H62.2678C61.6444 108.905 61.1219 109.428 61.1219 110.052V121.601H56.9506C56.3272 121.601 55.8047 122.123 55.8047 122.747V133.379C55.8047 134.003 56.3272 134.525 56.9506 134.525H67.5758C68.1992 134.525 68.7217 134.003 68.7217 133.379V122.747C68.7217 122.123 68.1992 121.601 67.5758 121.601H63.4046V111.208H67.8325V111.556C67.8325 112.749 68.7217 113.758 69.8952 113.914L72.2787 114.235C72.4346 114.693 72.6179 115.134 72.8288 115.565L71.3803 117.473C70.6652 118.418 70.7569 119.766 71.5912 120.601L73.8189 122.83C74.6623 123.674 76.0007 123.765 76.945 123.041L78.8427 121.591C79.2735 121.793 79.7136 121.977 80.172 122.142L80.4928 124.527C80.6487 125.701 81.6663 126.591 82.858 126.591H83.2889V130.59H79.1177C78.4943 130.59 77.9718 131.113 77.9718 131.737V142.368C77.9718 142.992 78.4943 143.515 79.1177 143.515H89.7428C90.3662 143.515 90.8888 142.992 90.8888 142.368V131.737C90.8888 131.113 90.3662 130.59 89.7428 130.59H85.5716V126.591H86.0025C87.1943 126.591 88.2027 125.701 88.3586 124.527L88.6794 122.142C89.1378 121.986 89.5778 121.802 90.0087 121.591L91.9155 123.041C92.8598 123.756 94.2074 123.665 95.0417 122.83L97.2694 120.601C98.1128 119.757 98.2045 118.418 97.4802 117.473L96.0318 115.565C96.2334 115.134 96.4168 114.693 96.5818 114.235L98.9654 113.914C100.139 113.758 101.028 112.739 101.028 111.556V111.208H105.456V121.61H101.285C100.661 121.61 100.139 122.133 100.139 122.756V133.388C100.139 134.012 100.661 134.535 101.285 134.535H111.91C112.533 134.535 113.056 134.012 113.056 133.388V122.756C113.083 122.114 112.561 121.61 111.937 121.61ZM66.439 132.241H58.0966V123.894H66.439V132.241ZM88.6152 141.24H80.2728V132.893H88.6152V141.24ZM95.5642 112.07C95.1058 112.134 94.7391 112.455 94.62 112.895C94.3908 113.693 94.0882 114.436 93.6849 115.143C93.4557 115.537 93.5015 116.033 93.7765 116.399L95.6742 119.014L93.3365 121.243L90.8429 119.344C90.4762 119.069 89.9904 119.041 89.587 119.252C88.8994 119.638 88.1385 119.959 87.341 120.17C86.9009 120.289 86.58 120.674 86.5159 121.114L86.0117 124.288L82.7755 124.215L82.363 121.114C82.2988 120.674 81.978 120.289 81.5379 120.17C80.7403 119.94 79.9978 119.638 79.2919 119.252C79.1269 119.161 78.9252 119.115 78.7235 119.115C78.476 119.115 78.2376 119.188 78.0359 119.344L75.4232 121.243L73.1955 118.904L75.0932 116.409C75.3682 116.042 75.3957 115.556 75.1848 115.152C74.7998 114.446 74.4789 113.703 74.2497 112.905C74.1306 112.464 73.7455 112.143 73.3055 112.079L70.1335 111.574L70.2069 108.336L73.3055 107.905C73.7639 107.841 74.1306 107.52 74.2497 107.08C74.4789 106.282 74.7815 105.539 75.1665 104.832C75.3957 104.438 75.3498 103.943 75.0748 103.576L73.1771 100.961L75.5149 98.7322L78.0084 100.631C78.3751 100.906 78.861 100.934 79.2644 100.723C79.9703 100.338 80.7128 100.016 81.5104 99.7871C81.9505 99.6679 82.2713 99.2826 82.3355 98.8423L82.8397 95.6685L86.0758 95.7418L86.4884 98.8423C86.5525 99.2826 86.8734 99.6679 87.3135 99.7871C88.111 100.016 88.8536 100.319 89.5595 100.723C89.9537 100.934 90.4487 100.906 90.8154 100.631L93.4282 98.7322L95.6559 101.071L93.7582 103.566C93.4832 103.933 93.4557 104.42 93.6665 104.823C94.0516 105.511 94.3724 106.272 94.5833 107.071C94.7025 107.511 95.0875 107.832 95.5275 107.896L98.6262 108.327L98.782 107.199L98.6262 111.657L95.5642 112.07ZM110.791 132.241H102.449V123.894H110.791V132.241Z" fill="white"/>
<path d="M107.51 150.661H61.3881C60.7647 150.661 60.2422 151.184 60.2422 151.807C60.2422 152.431 60.7647 152.954 61.3881 152.954H107.519C108.142 152.954 108.665 152.431 108.665 151.807C108.665 151.174 108.152 150.661 107.51 150.661Z" fill="white"/>
<path d="M107.51 157.385H61.3881C60.7647 157.385 60.2422 157.908 60.2422 158.531C60.2422 159.155 60.7647 159.678 61.3881 159.678H107.519C108.142 159.678 108.665 159.155 108.665 158.531C108.665 157.898 108.152 157.385 107.51 157.385Z" fill="white"/>
<path d="M95.4088 164.118H61.3881C60.7647 164.118 60.2422 164.641 60.2422 165.264C60.2422 165.888 60.7647 166.411 61.3881 166.411H95.4271C96.0505 166.411 96.5731 165.888 96.5731 165.264C96.5731 164.641 96.0505 164.118 95.4088 164.118Z" fill="white"/>
<path d="M112.047 86.8257H56.859C52.6878 86.8257 49.2958 90.2197 49.2958 94.3934V94.8704H48.8191C44.6478 94.8704 41.2559 98.2645 41.2559 102.438V176.309C41.2559 180.482 44.6478 183.876 48.8191 183.876H104.008C108.179 183.876 111.571 180.482 111.571 176.309V175.85H112.029C116.2 175.85 119.592 172.456 119.592 168.282V94.4026C119.601 90.2197 116.209 86.8257 112.047 86.8257ZM109.279 176.299C109.279 179.207 106.914 181.574 104.008 181.574H48.8191C45.913 181.574 43.5477 179.207 43.5477 176.299V102.429C43.5477 99.5211 45.913 97.1545 48.8191 97.1545H49.2958V168.255C49.2958 172.428 52.6878 175.822 56.859 175.822H109.288V176.299H109.279ZM117.31 168.264C117.31 171.172 114.944 173.538 112.038 173.538H56.8498C53.9437 173.538 51.5785 171.172 51.5785 168.264V94.3934C51.5785 91.4856 53.9437 89.1189 56.8498 89.1189H112.038C114.944 89.1189 117.31 91.4856 117.31 94.3934V168.264Z" fill="white"/>
<defs>
<linearGradient id="paint0_linear_481_747" x1="-21.5229" y1="28.934" x2="182.369" y2="232.703" gradientUnits="userSpaceOnUse">
<stop stop-color="#8FFEDB"/>
<stop offset="0.0155" stop-color="#77D4BB"/>
<stop offset="0.0337" stop-color="#5FAB9B"/>
<stop offset="0.0536" stop-color="#4A877E"/>
<stop offset="0.0748" stop-color="#386867"/>
<stop offset="0.098" stop-color="#2A4F53"/>
<stop offset="0.1238" stop-color="#1F3C44"/>
<stop offset="0.1538" stop-color="#172E3A"/>
<stop offset="0.1915" stop-color="#122634"/>
<stop offset="0.2626" stop-color="#112432"/>
<stop offset="0.6434" stop-color="#11202F"/>
<stop offset="1" stop-color="#101528"/>
</linearGradient>
</defs>
</svg>
