<svg width="161" height="262" viewBox="0 0 161 262" fill="none" xmlns="http://www.w3.org/2000/svg">
<path d="M149.433 261.298H11.2881C5.23757 261.298 0.287109 256.344 0.287109 250.29V11.8372C0.287109 5.78302 5.23757 0.82959 11.2881 0.82959H149.433C155.484 0.82959 160.434 5.78302 160.434 11.8372V250.29C160.434 256.344 155.484 261.298 149.433 261.298Z" fill="url(#paint0_linear_901_33)"/>
<path d="M125.462 99.8245V87.0098H112.783L106.32 93.596V106.282H118.999L125.462 99.8245ZM119.732 102.145V94.5775L123.143 91.1652V98.7329L119.732 102.145ZM113.874 89.5782H121.438L118.027 92.8713H110.464L113.874 89.5782ZM108.759 95.3113H117.294V103.851H108.759V95.3113Z" fill="white"/>
<path d="M49.2433 99.8245V87.0098H36.5647L30.1016 93.596V106.282H42.7802L49.2433 99.8245ZM43.5136 102.145V94.5775L46.924 91.1652V98.7329L43.5136 102.145ZM37.5364 89.5782H45.0996L41.6893 92.9906H34.1261L37.5364 89.5782ZM32.5401 95.3113H41.0751V103.851H32.5401V95.3113Z" fill="white"/>
<path d="M55.4597 95.4307H50.8301V97.8707H55.4597V95.4307Z" fill="white"/>
<path d="M104.606 95.4307H99.9766V97.8707H104.606V95.4307Z" fill="white"/>
<path d="M77.6632 172.182C78.1491 172.548 78.7633 172.796 79.6159 172.796C80.4685 172.796 81.5686 172.548 83.0262 171.824C85.0981 170.851 87.5367 169.017 89.6085 166.944C93.7522 162.797 96.805 157.422 94.8523 154.863L94.6048 154.615L92.1663 152.175C91.3137 151.322 89.7277 150.707 86.5557 152.294C84.4839 153.267 82.0453 155.101 79.9735 157.174C77.7824 159.367 76.0681 161.688 75.0963 163.761C73.5104 166.934 74.2438 168.521 74.9772 169.375L77.6632 172.182ZM88.0225 165.228C86.0698 167.182 83.8788 168.769 82.0453 169.741C80.3402 170.595 79.3592 170.475 79.24 170.356L78.9925 170.108C79.4784 169.989 79.9643 169.741 80.5785 169.494C82.6504 168.521 85.0889 166.687 87.1608 164.614C89.8469 161.926 91.9187 158.881 92.7713 156.312L93.0188 156.56C93.5139 157.055 92.4138 160.834 88.0225 165.228ZM77.2965 164.981C78.1491 163.146 79.7351 160.954 81.807 159C83.7596 157.046 85.9507 155.459 87.7842 154.487C89.4893 153.634 90.4703 153.753 90.5894 153.872C91.0753 154.358 89.9752 158.147 85.5931 162.66C83.6405 164.614 81.4494 166.201 79.6159 167.173C77.9108 168.026 76.9298 167.907 76.8107 167.788C76.6823 167.668 76.444 166.815 77.2965 164.981Z" fill="white"/>
<path d="M75.344 144.855C76.3158 145.222 77.0492 145.341 77.6634 145.341C78.516 145.341 79.0019 145.093 79.4969 144.726L82.0547 141.919C82.6689 141.305 83.0264 139.965 81.8071 137.645C81.0737 136.177 79.7353 134.59 78.1493 133.251C76.5633 131.783 74.8582 130.692 73.3914 130.077C70.9528 129.105 69.7335 129.71 69.1193 130.325L66.6807 133.012L66.5616 133.132C66.0757 133.865 65.709 135.085 66.9283 137.159C67.6617 138.626 69.0001 140.213 70.5861 141.552C72.0529 143.139 73.758 144.24 75.344 144.855ZM76.4441 135.214C79.2494 137.654 80.102 139.727 80.102 140.342C79.4877 140.461 77.2967 139.727 74.4915 137.287C71.6862 134.847 70.8336 132.774 70.8336 132.159C71.567 132.04 73.7581 132.645 76.4441 135.214ZM68.3951 134.719L69.0093 134.104C69.7427 135.81 71.3287 137.645 73.0338 139.103C74.739 140.562 76.5725 141.91 78.3968 142.396L77.7826 143.011C77.2967 143.13 74.9773 142.525 72.1721 139.956C69.2476 137.287 68.3951 135.085 68.3951 134.719Z" fill="white"/>
<path d="M60.3457 106.053H67.0563L62.4267 110.685H77.0581L80.9635 106.053H86.3265L92.7895 98.7329H86.8123V87.0098L74.1337 87.129L67.6706 93.596V98.5953H66.818L60.3457 106.053ZM70.0999 95.3113H78.6349V103.851H70.0999V95.3113ZM84.3646 91.2844V98.8522L81.0735 102.145V94.5775L84.3646 91.2844ZM75.8296 108.245H68.2664L70.2191 106.291H77.5348L75.8296 108.245ZM85.2172 103.613H83.0261L85.4647 101.173H87.4174L85.2172 103.613ZM75.0962 89.5782H82.6595L79.2491 92.9906H71.6859L75.0962 89.5782ZM67.6614 103.613H65.8279L67.6614 101.54V103.613Z" fill="white"/>
<path d="M93.5708 116.348L91.2715 117.161L93.7076 124.063L96.0069 123.25L93.5708 116.348Z" fill="white"/>
<path d="M98.3835 129.844L96.084 130.657L99.2091 139.514L101.509 138.702L98.3835 129.844Z" fill="white"/>
<path d="M103.087 143.021L100.787 143.833L105.456 157.068L107.756 156.256L103.087 143.021Z" fill="white"/>
<path d="M110.03 162.748L107.73 163.56L110.857 172.417L113.156 171.604L110.03 162.748Z" fill="white"/>
<path d="M114.661 176.031L112.361 176.843L114.796 183.746L117.096 182.934L114.661 176.031Z" fill="white"/>
<path d="M62.0311 116.257L59.5957 123.16L61.8952 123.972L64.3306 117.07L62.0311 116.257Z" fill="white"/>
<path d="M57.1915 129.796L54.0664 138.653L56.3659 139.466L59.4911 130.608L57.1915 129.796Z" fill="white"/>
<path d="M45.585 162.767L42.459 171.624L44.7583 172.437L47.8843 163.58L45.585 162.767Z" fill="white"/>
<path d="M52.5307 142.937L47.8613 156.171L50.1609 156.984L54.8303 143.749L52.5307 142.937Z" fill="white"/>
<path d="M40.8599 175.983L38.4238 182.885L40.7232 183.697L43.1593 176.795L40.8599 175.983Z" fill="white"/>
<path d="M98.5105 95.4307H93.8809V97.8707H98.5105V95.4307Z" fill="white"/>
<path d="M61.5554 95.4307H56.9258V97.8707H61.5554V95.4307Z" fill="white"/>
<path d="M77.1677 184.996C90.033 184.996 100.462 184.174 100.462 183.161C100.462 182.148 90.033 181.327 77.1677 181.327C64.3024 181.327 53.873 182.148 53.873 183.161C53.873 184.174 64.3024 184.996 77.1677 184.996Z" fill="white"/>
<path d="M66.0753 157.293C68.3947 157.293 70.2191 155.459 70.2191 153.147C70.2191 150.836 68.3856 149.001 66.0753 149.001C63.7651 149.001 61.9316 150.836 61.9316 153.147C61.9316 155.459 63.756 157.293 66.0753 157.293ZM66.0753 151.441C67.0471 151.441 67.7805 152.175 67.7805 153.147C67.7805 154.12 67.0471 154.853 66.0753 154.853C65.1036 154.853 64.3702 154.12 64.3702 153.147C64.3702 152.175 65.1036 151.441 66.0753 151.441Z" fill="white"/>
<path d="M88.389 121.913C88.389 119.592 86.5555 117.767 84.2453 117.767C81.9259 117.767 80.1016 119.602 80.1016 121.913C80.1016 124.225 81.9351 126.059 84.2453 126.059C86.5647 126.179 88.389 124.234 88.389 121.913ZM82.4118 121.913C82.4118 120.941 83.1452 120.207 84.1169 120.207C85.0887 120.207 85.8221 120.941 85.8221 121.913C85.8221 122.886 85.0887 123.619 84.1169 123.619C83.1452 123.619 82.4118 122.886 82.4118 121.913Z" fill="white"/>
<path d="M111.316 123.372H107.658V125.812H111.316V123.372Z" fill="white"/>
<path d="M114.36 126.426H111.922V130.086H114.36V126.426Z" fill="white"/>
<path d="M118.632 123.372H114.975V125.812H118.632V123.372Z" fill="white"/>
<path d="M114.36 119.106H111.922V122.766H114.36V119.106Z" fill="white"/>
<path d="M30.7067 163.155H27.0488V165.595H30.7067V163.155Z" fill="white"/>
<path d="M33.7589 166.201H31.3203V169.861H33.7589V166.201Z" fill="white"/>
<path d="M38.0309 163.155H34.373V165.595H38.0309V163.155Z" fill="white"/>
<path d="M33.7589 158.88H31.3203V162.54H33.7589V158.88Z" fill="white"/>
<path d="M40.4703 132.407H36.8125V134.847H40.4703V132.407Z" fill="white"/>
<path d="M43.5128 135.453H41.0742V139.113H43.5128V135.453Z" fill="white"/>
<path d="M47.7848 132.407H44.127V134.847H47.7848V132.407Z" fill="white"/>
<path d="M43.5128 128.132H41.0742V131.792H43.5128V128.132Z" fill="white"/>
<path d="M121.07 157.055H117.412V159.495H121.07V157.055Z" fill="white"/>
<path d="M124.124 160.101H121.686V163.761H124.124V160.101Z" fill="white"/>
<path d="M128.386 157.055H124.729V159.495H128.386V157.055Z" fill="white"/>
<path d="M124.124 152.78H121.686V156.44H124.124V152.78Z" fill="white"/>
<defs>
<linearGradient id="paint0_linear_901_33" x1="-21.5229" y1="29.1186" x2="182.369" y2="232.887" gradientUnits="userSpaceOnUse">
<stop stop-color="#8FFEDB"/>
<stop offset="0.0155" stop-color="#77D4BB"/>
<stop offset="0.0337" stop-color="#5FAB9B"/>
<stop offset="0.0536" stop-color="#4A877E"/>
<stop offset="0.0748" stop-color="#386867"/>
<stop offset="0.098" stop-color="#2A4F53"/>
<stop offset="0.1238" stop-color="#1F3C44"/>
<stop offset="0.1538" stop-color="#172E3A"/>
<stop offset="0.1915" stop-color="#122634"/>
<stop offset="0.2626" stop-color="#112432"/>
<stop offset="0.6434" stop-color="#11202F"/>
<stop offset="1" stop-color="#101528"/>
</linearGradient>
</defs>
</svg>
