<svg xmlns="http://www.w3.org/2000/svg" viewBox="0 0 821.29 841.89"><defs><style>.cls-1,.cls-2,.cls-3,.cls-4{fill:none;stroke-miterlimit:10;}.cls-1{stroke:#000;}.cls-2,.cls-3,.cls-4{stroke:#71bbc4;}.cls-2{stroke-width:1.2px;}.cls-3{stroke-width:0.5px;}.cls-4{stroke-width:0.25px;}</style></defs><g id="Layer_1" data-name="Layer 1"><polygon class="cls-1" points="520.92 419.94 509.13 392.32 442.82 392.32 442.82 326.01 415.19 314.22 387.57 326.01 387.57 392.32 321.26 392.32 309.47 419.94 321.26 447.57 387.57 447.57 387.57 513.88 415.19 525.67 442.82 513.88 442.82 447.57 509.13 447.57 520.92 419.94"/><polyline class="cls-1" points="387.57 392.32 403.76 392.32 415.19 380.89 426.62 392.32 426.62 392.32 442.82 392.32"/><polyline class="cls-1" points="442.82 447.61 426.62 447.61 415.19 459.04 403.76 447.61 403.76 447.61 387.56 447.61"/><polyline class="cls-1" points="442.84 392.33 442.84 408.54 454.27 419.96 442.84 431.39 442.84 431.39 442.84 447.59"/><polyline class="cls-1" points="387.55 447.59 387.55 431.39 376.12 419.96 387.55 408.54 387.55 408.54 387.55 392.33"/><polygon class="cls-1" points="489.95 345.19 462.08 333.99 415.19 380.87 368.31 333.99 340.44 345.19 329.24 373.06 376.12 419.94 329.24 466.83 340.44 494.7 368.31 505.9 415.19 459.02 462.08 505.9 489.95 494.7 501.15 466.83 454.26 419.94 501.15 373.06 489.95 345.19"/><polygon class="cls-2" points="520.92 419.94 509.13 392.32 442.82 392.32 442.82 326.01 415.19 314.22 387.57 326.01 387.57 392.32 321.26 392.32 309.47 419.94 321.26 447.57 387.57 447.57 387.57 513.88 415.19 525.67 442.82 513.88 442.82 447.57 509.13 447.57 520.92 419.94"/><polyline class="cls-2" points="387.57 392.32 403.76 392.32 415.19 380.89 426.62 392.32 426.62 392.32 442.82 392.32"/><polyline class="cls-2" points="442.82 447.61 426.62 447.61 415.19 459.04 403.76 447.61 403.76 447.61 387.56 447.61"/><polyline class="cls-2" points="442.84 392.33 442.84 408.54 454.27 419.96 442.84 431.39 442.84 431.39 442.84 447.59"/><polyline class="cls-2" points="387.55 447.59 387.55 431.39 376.12 419.96 387.55 408.54 387.55 408.54 387.55 392.33"/><polygon class="cls-2" points="489.95 345.19 462.08 333.99 415.19 380.87 368.31 333.99 340.44 345.19 329.24 373.06 376.12 419.94 329.24 466.83 340.44 494.7 368.31 505.9 415.19 459.02 462.08 505.9 489.95 494.7 501.15 466.83 454.26 419.94 501.15 373.06 489.95 345.19"/></g><g id="_2_peri" data-name="2 peri"><polygon class="cls-3" points="383.66 238.09 370.59 269.62 383.66 301.16 415.19 314.22 446.73 301.16 459.79 269.62 446.73 238.09 415.19 225.02 383.66 238.09"/><polygon class="cls-3" points="383.66 538.73 370.59 570.27 383.66 601.8 415.19 614.87 446.73 601.8 459.79 570.27 446.73 538.73 415.19 525.67 383.66 538.73"/><polygon class="cls-3" points="233.33 451.48 264.87 464.54 296.41 451.48 309.47 419.94 296.41 388.41 264.87 375.34 233.33 388.41 220.27 419.94 233.33 451.48"/><polygon class="cls-3" points="533.98 451.48 565.52 464.54 597.05 451.48 610.12 419.94 597.05 388.41 565.52 375.34 533.98 388.41 520.92 419.94 533.98 451.48"/><polygon class="cls-3" points="264.3 313.65 277.36 345.19 308.9 358.25 340.44 345.19 353.5 313.65 340.44 282.11 308.9 269.05 277.36 282.11 264.3 313.65"/><polygon class="cls-3" points="476.89 526.24 489.95 557.77 521.49 570.84 553.02 557.77 566.09 526.24 553.02 494.7 521.49 481.64 489.95 494.7 476.89 526.24"/><polygon class="cls-3" points="308.9 570.84 340.44 557.77 353.5 526.24 340.44 494.7 308.9 481.64 277.36 494.7 264.3 526.24 277.36 557.77 308.9 570.84"/><polygon class="cls-3" points="521.49 358.25 553.02 345.19 566.09 313.65 553.02 282.11 521.49 269.05 489.95 282.11 476.89 313.65 489.95 345.19 521.49 358.25"/></g><g id="peri"><polygon class="cls-4" points="414.62 163.13 402.83 135.5 336.53 135.5 336.53 69.2 308.9 57.41 281.27 69.2 281.27 135.5 214.96 135.5 203.18 163.13 214.96 190.76 281.27 190.76 281.27 257.07 308.9 268.86 336.53 257.07 336.53 190.76 402.83 190.76 414.62 163.13"/><polyline class="cls-4" points="281.27 135.5 297.47 135.5 308.9 124.08 320.33 135.5 320.33 135.5 336.53 135.5"/><polyline class="cls-4" points="336.53 190.8 320.33 190.8 308.9 202.23 297.47 190.8 297.47 190.8 281.27 190.8"/><polyline class="cls-4" points="336.55 135.52 336.55 151.72 347.98 163.15 336.55 174.58 336.55 174.58 336.55 190.78"/><polyline class="cls-4" points="281.25 190.78 281.25 174.58 269.82 163.15 281.25 151.72 281.25 151.72 281.25 135.52"/><polygon class="cls-4" points="383.66 88.37 355.79 77.17 308.9 124.06 262.01 77.17 234.14 88.37 222.94 116.25 269.83 163.13 222.94 210.02 234.14 237.89 262.01 249.09 308.9 202.2 355.79 249.09 383.66 237.89 394.86 210.02 347.97 163.13 394.86 116.25 383.66 88.37"/><polygon class="cls-4" points="627.21 163.13 615.42 135.5 549.12 135.5 549.12 69.2 521.49 57.41 493.86 69.2 493.86 135.5 427.55 135.5 415.76 163.13 427.55 190.76 493.86 190.76 493.86 257.07 521.49 268.86 549.12 257.07 549.12 190.76 615.42 190.76 627.21 163.13"/><polyline class="cls-4" points="493.86 135.5 510.06 135.5 521.49 124.08 532.92 135.5 532.92 135.5 549.12 135.5"/><polyline class="cls-4" points="549.12 190.8 532.92 190.8 521.49 202.23 510.06 190.8 510.06 190.8 493.86 190.8"/><polyline class="cls-4" points="549.13 135.52 549.13 151.72 560.56 163.15 549.13 174.58 549.13 174.58 549.13 190.78"/><polyline class="cls-4" points="493.84 190.78 493.84 174.58 482.41 163.15 493.84 151.72 493.84 151.72 493.84 135.52"/><polygon class="cls-4" points="596.25 88.37 568.37 77.17 521.49 124.06 474.6 77.17 446.73 88.37 435.53 116.25 482.42 163.13 435.53 210.02 446.73 237.89 474.6 249.09 521.49 202.2 568.37 249.09 596.25 237.89 607.45 210.02 560.56 163.13 607.45 116.25 596.25 88.37"/><polygon class="cls-4" points="414.62 676.64 402.83 649.01 336.53 649.01 336.53 582.71 308.9 570.92 281.27 582.71 281.27 649.01 214.96 649.01 203.18 676.64 214.96 704.27 281.27 704.27 281.27 770.58 308.9 782.36 336.53 770.58 336.53 704.27 402.83 704.27 414.62 676.64"/><polyline class="cls-4" points="281.27 649.01 297.47 649.01 308.9 637.58 320.33 649.01 320.33 649.01 336.53 649.01"/><polyline class="cls-4" points="336.53 704.31 320.33 704.31 308.9 715.74 297.47 704.31 297.47 704.31 281.27 704.31"/><polyline class="cls-4" points="336.55 649.03 336.55 665.23 347.98 676.66 336.55 688.09 336.55 688.09 336.55 704.29"/><polyline class="cls-4" points="281.25 704.29 281.25 688.09 269.82 676.66 281.25 665.23 281.25 665.23 281.25 649.03"/><polygon class="cls-4" points="383.66 601.88 355.79 590.68 308.9 637.57 262.01 590.68 234.14 601.88 222.94 629.75 269.83 676.64 222.94 723.53 234.14 751.4 262.01 762.6 308.9 715.71 355.79 762.6 383.66 751.4 394.86 723.53 347.97 676.64 394.86 629.75 383.66 601.88"/><polygon class="cls-4" points="627.21 676.64 615.42 649.01 549.12 649.01 549.12 582.71 521.49 570.92 493.86 582.71 493.86 649.01 427.55 649.01 415.76 676.64 427.55 704.27 493.86 704.27 493.86 770.58 521.49 782.36 549.12 770.58 549.12 704.27 615.42 704.27 627.21 676.64"/><polyline class="cls-4" points="493.86 649.01 510.06 649.01 521.49 637.58 532.92 649.01 532.92 649.01 549.12 649.01"/><polyline class="cls-4" points="549.12 704.31 532.92 704.31 521.49 715.74 510.06 704.31 510.06 704.31 493.86 704.31"/><polyline class="cls-4" points="549.13 649.03 549.13 665.23 560.56 676.66 549.13 688.09 549.13 688.09 549.13 704.29"/><polyline class="cls-4" points="493.84 704.29 493.84 688.09 482.41 676.66 493.84 665.23 493.84 665.23 493.84 649.03"/><polygon class="cls-4" points="596.25 601.88 568.37 590.68 521.49 637.57 474.6 590.68 446.73 601.88 435.53 629.75 482.42 676.64 435.53 723.53 446.73 751.4 474.6 762.6 521.49 715.71 568.37 762.6 596.25 751.4 607.45 723.53 560.56 676.64 607.45 629.75 596.25 601.88"/><polygon class="cls-4" points="158.44 420.46 130.81 432.25 130.81 498.55 64.5 498.55 52.72 526.18 64.5 553.81 130.81 553.81 130.81 620.12 158.44 631.9 186.07 620.12 186.07 553.81 252.38 553.81 264.16 526.18 252.38 498.55 186.07 498.55 186.07 432.25 158.44 420.46"/><polyline class="cls-4" points="130.81 553.81 130.81 537.61 119.38 526.18 130.81 514.75 130.81 514.75 130.81 498.55"/><polyline class="cls-4" points="186.11 498.55 186.11 514.75 197.53 526.18 186.11 537.61 186.11 537.61 186.11 553.81"/><polyline class="cls-4" points="130.83 498.53 147.03 498.53 158.46 487.11 169.89 498.53 169.89 498.53 186.09 498.53"/><polyline class="cls-4" points="186.09 553.83 169.89 553.83 158.46 565.26 147.03 553.83 147.03 553.83 130.83 553.83"/><polygon class="cls-4" points="83.68 451.42 72.48 479.29 119.37 526.18 72.48 573.07 83.68 600.94 111.55 612.14 158.44 565.25 205.33 612.14 233.2 600.94 244.4 573.07 197.51 526.18 244.4 479.29 233.2 451.42 205.33 440.22 158.44 487.11 111.55 440.22 83.68 451.42"/><polygon class="cls-4" points="158.44 207.87 130.81 219.66 130.81 285.96 64.5 285.96 52.72 313.59 64.5 341.22 130.81 341.22 130.81 407.53 158.44 419.31 186.07 407.53 186.07 341.22 252.38 341.22 264.16 313.59 252.38 285.96 186.07 285.96 186.07 219.66 158.44 207.87"/><polyline class="cls-4" points="130.81 341.22 130.81 325.02 119.38 313.59 130.81 302.16 130.81 302.16 130.81 285.96"/><polyline class="cls-4" points="186.11 285.96 186.11 302.16 197.53 313.59 186.11 325.02 186.11 325.02 186.11 341.22"/><polyline class="cls-4" points="130.83 285.94 147.03 285.94 158.46 274.52 169.89 285.94 169.89 285.94 186.09 285.94"/><polyline class="cls-4" points="186.09 341.24 169.89 341.24 158.46 352.67 147.03 341.24 147.03 341.24 130.83 341.24"/><polygon class="cls-4" points="83.68 238.83 72.48 266.71 119.37 313.59 72.48 360.48 83.68 388.35 111.55 399.55 158.44 352.66 205.33 399.55 233.2 388.35 244.4 360.48 197.51 313.59 244.4 266.71 233.2 238.83 205.33 227.63 158.44 274.52 111.55 227.63 83.68 238.83"/><polygon class="cls-4" points="671.95 420.46 644.32 432.25 644.32 498.55 578.01 498.55 566.23 526.18 578.01 553.81 644.32 553.81 644.32 620.12 671.95 631.9 699.58 620.12 699.58 553.81 765.88 553.81 777.67 526.18 765.88 498.55 699.58 498.55 699.58 432.25 671.95 420.46"/><polyline class="cls-4" points="644.32 553.81 644.32 537.61 632.89 526.18 644.32 514.75 644.32 514.75 644.32 498.55"/><polyline class="cls-4" points="699.62 498.55 699.62 514.75 711.04 526.18 699.62 537.61 699.62 537.61 699.62 553.81"/><polyline class="cls-4" points="644.34 498.53 660.54 498.53 671.97 487.11 683.4 498.53 683.4 498.53 699.6 498.53"/><polyline class="cls-4" points="699.6 553.83 683.39 553.83 671.97 565.26 660.54 553.83 660.54 553.83 644.34 553.83"/><polygon class="cls-4" points="597.19 451.42 585.99 479.29 632.88 526.18 585.99 573.07 597.19 600.94 625.06 612.14 671.95 565.25 718.83 612.14 746.71 600.94 757.91 573.07 711.02 526.18 757.91 479.29 746.71 451.42 718.83 440.22 671.95 487.11 625.06 440.22 597.19 451.42"/><polygon class="cls-4" points="671.95 207.87 644.32 219.66 644.32 285.96 578.01 285.96 566.23 313.59 578.01 341.22 644.32 341.22 644.32 407.53 671.95 419.31 699.58 407.53 699.58 341.22 765.88 341.22 777.67 313.59 765.88 285.96 699.58 285.96 699.58 219.66 671.95 207.87"/><polyline class="cls-4" points="644.32 341.22 644.32 325.02 632.89 313.59 644.32 302.16 644.32 302.16 644.32 285.96"/><polyline class="cls-4" points="699.62 285.96 699.62 302.16 711.04 313.59 699.62 325.02 699.62 325.02 699.62 341.22"/><polyline class="cls-4" points="644.34 285.94 660.54 285.94 671.97 274.52 683.4 285.94 683.4 285.94 699.6 285.94"/><polyline class="cls-4" points="699.6 341.24 683.39 341.24 671.97 352.67 660.54 341.24 660.54 341.24 644.34 341.24"/><polygon class="cls-4" points="597.19 238.83 585.99 266.71 632.88 313.59 585.99 360.48 597.19 388.35 625.06 399.55 671.95 352.66 718.83 399.55 746.71 388.35 757.91 360.48 711.02 313.59 757.91 266.71 746.71 238.83 718.83 227.63 671.95 274.52 625.06 227.63 597.19 238.83"/></g></svg>