<svg width="1296" height="1487" viewBox="0 0 1296 1487" fill="none" xmlns="http://www.w3.org/2000/svg">
<path d="M135.618 1387H131.25L131.202 1378.1L126.882 1385.34H124.77L120.474 1378.34V1387H116.082V1370.2H119.994L125.898 1379.9L131.658 1370.2H135.57L135.618 1387ZM141.045 1372.55C139.365 1372.55 138.261 1371.5 138.261 1370.13C138.261 1368.76 139.365 1367.7 141.045 1367.7C142.725 1367.7 143.829 1368.69 143.829 1370.06C143.829 1371.5 142.725 1372.55 141.045 1372.55ZM138.765 1387V1373.99H143.325V1387H138.765ZM154.76 1373.78C157.808 1373.78 160.136 1375.53 160.136 1379.56V1387H155.576V1380.3C155.576 1378.43 154.76 1377.64 153.44 1377.64C151.976 1377.64 150.848 1378.55 150.848 1380.71V1387H146.288V1373.99H150.632V1375.41C151.664 1374.33 153.128 1373.78 154.76 1373.78ZM165.279 1372.55C163.599 1372.55 162.495 1371.5 162.495 1370.13C162.495 1368.76 163.599 1367.7 165.279 1367.7C166.959 1367.7 168.063 1368.69 168.063 1370.06C168.063 1371.5 166.959 1372.55 165.279 1372.55ZM162.999 1387V1373.99H167.559V1387H162.999ZM178.995 1373.78C182.043 1373.78 184.371 1375.53 184.371 1379.56V1387H179.811V1380.3C179.811 1378.43 178.995 1377.64 177.675 1377.64C176.211 1377.64 175.083 1378.55 175.083 1380.71V1387H170.523V1373.99H174.867V1375.41C175.899 1374.33 177.363 1373.78 178.995 1373.78ZM197.069 1373.99H201.413V1384.62C201.413 1389.54 198.629 1391.87 193.781 1391.87C191.285 1391.87 188.909 1391.3 187.325 1390.17L188.981 1386.98C190.061 1387.84 191.837 1388.37 193.373 1388.37C195.821 1388.37 196.853 1387.26 196.853 1385.22V1384.79C195.965 1385.82 194.645 1386.33 192.989 1386.33C189.533 1386.33 186.605 1383.88 186.605 1380.04C186.605 1376.22 189.533 1373.78 192.989 1373.78C194.789 1373.78 196.181 1374.35 197.069 1375.58V1373.99ZM194.069 1382.7C195.701 1382.7 196.901 1381.62 196.901 1380.04C196.901 1378.46 195.701 1377.4 194.069 1377.4C192.437 1377.4 191.213 1378.46 191.213 1380.04C191.213 1381.62 192.437 1382.7 194.069 1382.7ZM221.935 1387L218.887 1382.54H216.295V1387H211.543V1370.2H219.223C223.807 1370.2 226.687 1372.58 226.687 1376.42C226.687 1378.89 225.487 1380.71 223.399 1381.72L227.023 1387H221.935ZM221.887 1376.42C221.887 1374.86 220.903 1373.94 218.935 1373.94H216.295V1378.86H218.935C220.903 1378.86 221.887 1377.95 221.887 1376.42ZM242.389 1380.52C242.389 1380.86 242.341 1381.29 242.317 1381.65H232.861C233.245 1382.97 234.373 1383.74 236.053 1383.74C237.325 1383.74 238.165 1383.38 239.053 1382.61L241.453 1385.1C240.205 1386.5 238.381 1387.22 235.909 1387.22C231.277 1387.22 228.277 1384.36 228.277 1380.47C228.277 1376.56 231.325 1373.78 235.429 1373.78C239.269 1373.78 242.389 1376.22 242.389 1380.52ZM235.453 1377.02C234.037 1377.02 233.053 1377.88 232.789 1379.25H238.117C237.877 1377.88 236.869 1377.02 235.453 1377.02ZM261.801 1373.99H265.809L261.177 1387H256.761L254.313 1379.92L251.769 1387H247.353L242.721 1373.99H247.041L249.705 1381.86L252.465 1373.99H256.353L259.041 1381.94L261.801 1373.99ZM272.301 1373.78C276.525 1373.78 278.949 1375.65 278.949 1379.78V1387H274.701V1385.32C274.053 1386.57 272.757 1387.22 270.861 1387.22C267.741 1387.22 266.013 1385.46 266.013 1383.21C266.013 1380.81 267.765 1379.32 271.797 1379.32H274.389C274.317 1378 273.429 1377.26 271.629 1377.26C270.381 1377.26 268.989 1377.69 268.101 1378.38L266.565 1375.29C268.053 1374.3 270.261 1373.78 272.301 1373.78ZM272.133 1384.34C273.141 1384.34 274.029 1383.86 274.389 1382.82V1381.7H272.421C270.957 1381.7 270.429 1382.22 270.429 1383.02C270.429 1383.78 271.053 1384.34 272.133 1384.34ZM286.171 1375.55C287.107 1374.38 288.619 1373.78 290.539 1373.78V1377.88C290.131 1377.83 289.843 1377.81 289.507 1377.81C287.659 1377.81 286.387 1378.74 286.387 1381.02V1387H281.827V1373.99H286.171V1375.55ZM301.568 1369.19H306.128V1387H301.784V1385.7C300.92 1386.74 299.648 1387.22 297.968 1387.22C294.416 1387.22 291.56 1384.62 291.56 1380.47C291.56 1376.34 294.416 1373.78 297.968 1373.78C299.48 1373.78 300.704 1374.21 301.568 1375.12V1369.19ZM298.928 1383.59C300.464 1383.59 301.64 1382.46 301.64 1380.47C301.64 1378.5 300.464 1377.4 298.928 1377.4C297.368 1377.4 296.192 1378.5 296.192 1380.47C296.192 1382.46 297.368 1383.59 298.928 1383.59ZM179.36 1420.66C177.368 1417.78 176.264 1413.82 176.264 1409.42C176.264 1405.03 177.368 1401.07 179.36 1398.19H183.728C181.616 1401.91 180.728 1405.46 180.728 1409.42C180.728 1413.38 181.616 1416.94 183.728 1420.66H179.36ZM211.884 1416H207.516L207.468 1407.1L203.148 1414.34H201.036L196.74 1407.34V1416H192.348V1399.2H196.26L202.164 1408.9L207.924 1399.2H211.836L211.884 1416ZM225.638 1416L222.59 1411.54H219.998V1416H215.246V1399.2H222.926C227.51 1399.2 230.39 1401.58 230.39 1405.42C230.39 1407.89 229.19 1409.71 227.102 1410.72L230.726 1416H225.638ZM225.59 1405.42C225.59 1403.86 224.606 1402.94 222.638 1402.94H219.998V1407.86H222.638C224.606 1407.86 225.59 1406.95 225.59 1405.42ZM242.636 1420.66H238.268C240.38 1416.94 241.268 1413.38 241.268 1409.42C241.268 1405.46 240.38 1401.91 238.268 1398.19H242.636C244.628 1401.07 245.732 1405.03 245.732 1409.42C245.732 1413.82 244.628 1417.78 242.636 1420.66Z" fill="#213441"/>
<path d="M627.685 1387H623.317L623.269 1378.1L618.949 1385.34H616.837L612.541 1378.34V1387H608.149V1370.2H612.061L617.965 1379.9L623.725 1370.2H627.637L627.685 1387ZM633.111 1372.55C631.431 1372.55 630.327 1371.5 630.327 1370.13C630.327 1368.76 631.431 1367.7 633.111 1367.7C634.791 1367.7 635.895 1368.69 635.895 1370.06C635.895 1371.5 634.791 1372.55 633.111 1372.55ZM630.831 1387V1373.99H635.391V1387H630.831ZM646.827 1373.78C649.875 1373.78 652.203 1375.53 652.203 1379.56V1387H647.643V1380.3C647.643 1378.43 646.827 1377.64 645.507 1377.64C644.043 1377.64 642.915 1378.55 642.915 1380.71V1387H638.355V1373.99H642.699V1375.41C643.731 1374.33 645.195 1373.78 646.827 1373.78ZM657.346 1372.55C655.666 1372.55 654.562 1371.5 654.562 1370.13C654.562 1368.76 655.666 1367.7 657.346 1367.7C659.026 1367.7 660.13 1368.69 660.13 1370.06C660.13 1371.5 659.026 1372.55 657.346 1372.55ZM655.066 1387V1373.99H659.626V1387H655.066ZM671.061 1373.78C674.109 1373.78 676.437 1375.53 676.437 1379.56V1387H671.877V1380.3C671.877 1378.43 671.061 1377.64 669.741 1377.64C668.277 1377.64 667.149 1378.55 667.149 1380.71V1387H662.589V1373.99H666.933V1375.41C667.965 1374.33 669.429 1373.78 671.061 1373.78ZM689.135 1373.99H693.479V1384.62C693.479 1389.54 690.695 1391.87 685.847 1391.87C683.351 1391.87 680.975 1391.3 679.391 1390.17L681.047 1386.98C682.127 1387.84 683.903 1388.37 685.439 1388.37C687.887 1388.37 688.919 1387.26 688.919 1385.22V1384.79C688.031 1385.82 686.711 1386.33 685.055 1386.33C681.599 1386.33 678.671 1383.88 678.671 1380.04C678.671 1376.22 681.599 1373.78 685.055 1373.78C686.855 1373.78 688.247 1374.35 689.135 1375.58V1373.99ZM686.135 1382.7C687.767 1382.7 688.967 1381.62 688.967 1380.04C688.967 1378.46 687.767 1377.4 686.135 1377.4C684.503 1377.4 683.279 1378.46 683.279 1380.04C683.279 1381.62 684.503 1382.7 686.135 1382.7ZM714.002 1387L710.954 1382.54H708.362V1387H703.61V1370.2H711.29C715.874 1370.2 718.754 1372.58 718.754 1376.42C718.754 1378.89 717.554 1380.71 715.466 1381.72L719.09 1387H714.002ZM713.954 1376.42C713.954 1374.86 712.97 1373.94 711.002 1373.94H708.362V1378.86H711.002C712.97 1378.86 713.954 1377.95 713.954 1376.42ZM734.455 1380.52C734.455 1380.86 734.407 1381.29 734.383 1381.65H724.927C725.311 1382.97 726.439 1383.74 728.119 1383.74C729.391 1383.74 730.231 1383.38 731.119 1382.61L733.519 1385.1C732.271 1386.5 730.447 1387.22 727.975 1387.22C723.343 1387.22 720.343 1384.36 720.343 1380.47C720.343 1376.56 723.391 1373.78 727.495 1373.78C731.335 1373.78 734.455 1376.22 734.455 1380.52ZM727.519 1377.02C726.103 1377.02 725.119 1377.88 724.855 1379.25H730.183C729.943 1377.88 728.935 1377.02 727.519 1377.02ZM753.867 1373.99H757.875L753.243 1387H748.827L746.379 1379.92L743.835 1387H739.419L734.787 1373.99H739.107L741.771 1381.86L744.531 1373.99H748.419L751.107 1381.94L753.867 1373.99ZM764.367 1373.78C768.591 1373.78 771.015 1375.65 771.015 1379.78V1387H766.767V1385.32C766.119 1386.57 764.823 1387.22 762.927 1387.22C759.807 1387.22 758.079 1385.46 758.079 1383.21C758.079 1380.81 759.831 1379.32 763.863 1379.32H766.455C766.383 1378 765.495 1377.26 763.695 1377.26C762.447 1377.26 761.055 1377.69 760.167 1378.38L758.631 1375.29C760.119 1374.3 762.327 1373.78 764.367 1373.78ZM764.199 1384.34C765.207 1384.34 766.095 1383.86 766.455 1382.82V1381.7H764.487C763.023 1381.7 762.495 1382.22 762.495 1383.02C762.495 1383.78 763.119 1384.34 764.199 1384.34ZM778.238 1375.55C779.174 1374.38 780.686 1373.78 782.606 1373.78V1377.88C782.198 1377.83 781.91 1377.81 781.574 1377.81C779.726 1377.81 778.454 1378.74 778.454 1381.02V1387H773.894V1373.99H778.238V1375.55ZM793.634 1369.19H798.194V1387H793.85V1385.7C792.986 1386.74 791.714 1387.22 790.034 1387.22C786.482 1387.22 783.626 1384.62 783.626 1380.47C783.626 1376.34 786.482 1373.78 790.034 1373.78C791.546 1373.78 792.77 1374.21 793.634 1375.12V1369.19ZM790.994 1383.59C792.53 1383.59 793.706 1382.46 793.706 1380.47C793.706 1378.5 792.53 1377.4 790.994 1377.4C789.434 1377.4 788.258 1378.5 788.258 1380.47C788.258 1382.46 789.434 1383.59 790.994 1383.59ZM821.24 1378.24C823.136 1378.91 824.312 1380.35 824.312 1382.39C824.312 1385.3 821.912 1387 817.4 1387H808.328V1370.2H816.92C821.336 1370.2 823.496 1372 823.496 1374.59C823.496 1376.2 822.68 1377.5 821.24 1378.24ZM816.296 1373.63H813.032V1376.87H816.296C817.88 1376.87 818.696 1376.32 818.696 1375.24C818.696 1374.18 817.88 1373.63 816.296 1373.63ZM817.016 1383.57C818.648 1383.57 819.512 1383.02 819.512 1381.86C819.512 1380.71 818.648 1380.16 817.016 1380.16H813.032V1383.57H817.016ZM833.086 1387.22C828.838 1387.22 825.742 1384.41 825.742 1380.47C825.742 1376.56 828.838 1373.78 833.086 1373.78C837.382 1373.78 840.43 1376.56 840.43 1380.47C840.43 1384.41 837.382 1387.22 833.086 1387.22ZM833.086 1383.59C834.646 1383.59 835.822 1382.46 835.822 1380.47C835.822 1378.5 834.646 1377.4 833.086 1377.4C831.55 1377.4 830.35 1378.5 830.35 1380.47C830.35 1382.46 831.55 1383.59 833.086 1383.59ZM851.014 1373.78C854.062 1373.78 856.39 1375.53 856.39 1379.56V1387H851.83V1380.3C851.83 1378.43 851.014 1377.64 849.694 1377.64C848.23 1377.64 847.102 1378.55 847.102 1380.71V1387H842.542V1373.99H846.886V1375.41C847.918 1374.33 849.382 1373.78 851.014 1373.78ZM868.373 1373.99H872.933V1387H868.589V1385.61C867.605 1386.69 866.213 1387.22 864.725 1387.22C861.533 1387.22 859.205 1385.39 859.205 1381.26V1373.99H863.765V1380.52C863.765 1382.54 864.557 1383.33 865.925 1383.33C867.269 1383.33 868.373 1382.44 868.373 1380.26V1373.99ZM880.598 1387.22C878.39 1387.22 876.11 1386.66 874.838 1385.87L876.206 1382.75C877.406 1383.5 879.158 1383.95 880.742 1383.95C882.278 1383.95 882.782 1383.62 882.782 1383.06C882.782 1381.31 875.102 1383.3 875.102 1378.1C875.102 1375.65 877.358 1373.78 881.438 1373.78C883.262 1373.78 885.278 1374.16 886.574 1374.88L885.206 1377.98C883.91 1377.26 882.614 1377.02 881.462 1377.02C879.926 1377.02 879.374 1377.45 879.374 1377.93C879.374 1379.73 887.03 1377.78 887.03 1382.94C887.03 1385.34 884.822 1387.22 880.598 1387.22ZM706.513 1420.66C704.521 1417.78 703.417 1413.82 703.417 1409.42C703.417 1405.03 704.521 1401.07 706.513 1398.19H710.881C708.769 1401.91 707.881 1405.46 707.881 1409.42C707.881 1413.38 708.769 1416.94 710.881 1420.66H706.513ZM739.036 1416H734.668L734.62 1407.1L730.3 1414.34H728.188L723.892 1407.34V1416H719.5V1399.2H723.412L729.316 1408.9L735.076 1399.2H738.988L739.036 1416ZM752.791 1416L749.743 1411.54H747.151V1416H742.399V1399.2H750.079C754.663 1399.2 757.543 1401.58 757.543 1405.42C757.543 1407.89 756.343 1409.71 754.255 1410.72L757.879 1416H752.791ZM752.743 1405.42C752.743 1403.86 751.759 1402.94 749.791 1402.94H747.151V1407.86H749.791C751.759 1407.86 752.743 1406.95 752.743 1405.42ZM767.844 1399.2C772.428 1399.2 775.308 1401.58 775.308 1405.42C775.308 1409.23 772.428 1411.61 767.844 1411.61H764.916V1416H760.164V1399.2H767.844ZM767.556 1407.86C769.524 1407.86 770.508 1406.95 770.508 1405.42C770.508 1403.86 769.524 1402.94 767.556 1402.94H764.916V1407.86H767.556ZM787.484 1420.66H783.116C785.228 1416.94 786.116 1413.38 786.116 1409.42C786.116 1405.46 785.228 1401.91 783.116 1398.19H787.484C789.476 1401.07 790.58 1405.03 790.58 1409.42C790.58 1413.82 789.476 1417.78 787.484 1420.66Z" fill="#213441"/>
<path d="M718.658 842.24C720.554 842.912 721.73 844.352 721.73 846.392C721.73 849.296 719.33 851 714.818 851H705.746V834.2H714.338C718.754 834.2 720.914 836 720.914 838.592C720.914 840.2 720.098 841.496 718.658 842.24ZM713.714 837.632H710.45V840.872H713.714C715.298 840.872 716.114 840.32 716.114 839.24C716.114 838.184 715.298 837.632 713.714 837.632ZM714.434 847.568C716.066 847.568 716.93 847.016 716.93 845.864C716.93 844.712 716.066 844.16 714.434 844.16H710.45V847.568H714.434ZM726.256 836.552C724.576 836.552 723.472 835.496 723.472 834.128C723.472 832.76 724.576 831.704 726.256 831.704C727.936 831.704 729.04 832.688 729.04 834.056C729.04 835.496 727.936 836.552 726.256 836.552ZM723.976 851V837.992H728.536V851H723.976ZM739.347 847.28L740.475 850.472C739.683 850.976 738.507 851.216 737.307 851.216C733.971 851.216 732.027 849.584 732.027 846.248V841.88H730.131V838.472H732.027V835.088H736.587V838.472H739.563V841.88H736.587V846.2C736.587 847.16 737.139 847.688 737.955 847.688C738.459 847.688 738.963 847.544 739.347 847.28ZM748.507 851.216C744.139 851.216 741.043 848.432 741.043 844.472C741.043 840.56 744.139 837.776 748.507 837.776C751.459 837.776 753.715 839.096 754.603 841.352L751.075 843.152C750.451 841.928 749.539 841.4 748.483 841.4C746.899 841.4 745.651 842.504 745.651 844.472C745.651 846.488 746.899 847.592 748.483 847.592C749.539 847.592 750.451 847.064 751.075 845.84L754.603 847.64C753.715 849.896 751.459 851.216 748.507 851.216ZM762.707 851.216C758.459 851.216 755.363 848.408 755.363 844.472C755.363 840.56 758.459 837.776 762.707 837.776C767.003 837.776 770.051 840.56 770.051 844.472C770.051 848.408 767.003 851.216 762.707 851.216ZM762.707 847.592C764.267 847.592 765.443 846.464 765.443 844.472C765.443 842.504 764.267 841.4 762.707 841.4C761.171 841.4 759.971 842.504 759.971 844.472C759.971 846.464 761.171 847.592 762.707 847.592ZM774.443 836.552C772.763 836.552 771.659 835.496 771.659 834.128C771.659 832.76 772.763 831.704 774.443 831.704C776.123 831.704 777.227 832.688 777.227 834.056C777.227 835.496 776.123 836.552 774.443 836.552ZM772.163 851V837.992H776.723V851H772.163ZM788.159 837.776C791.207 837.776 793.535 839.528 793.535 843.56V851H788.975V844.304C788.975 842.432 788.159 841.64 786.839 841.64C785.375 841.64 784.247 842.552 784.247 844.712V851H779.687V837.992H784.031V839.408C785.063 838.328 786.527 837.776 788.159 837.776Z" fill="#213441"/>
<path d="M813.965 281.2H818.621V298H814.709L807.293 289.048V298H802.637V281.2H806.549L813.965 290.152V281.2ZM835.149 284.872H826.725V288.568H834.141V292.24H826.725V298H821.973V281.2H835.149V284.872ZM841.065 298V284.968H835.905V281.2H850.953V284.968H845.817V298H841.065Z" fill="#213441"/>
<path d="M176.904 861L175.584 857.736H168.48L167.16 861H162.312L169.728 844.2H174.408L181.848 861H176.904ZM169.872 854.232H174.192L172.032 848.856L169.872 854.232ZM182.98 861V843.192H187.54V861H182.98ZM199.64 857.28L200.768 860.472C199.976 860.976 198.8 861.216 197.6 861.216C194.264 861.216 192.32 859.584 192.32 856.248V851.88H190.424V848.472H192.32V845.088H196.88V848.472H199.856V851.88H196.88V856.2C196.88 857.16 197.432 857.688 198.248 857.688C198.752 857.688 199.256 857.544 199.64 857.28ZM208.8 861.216C204.432 861.216 201.336 858.432 201.336 854.472C201.336 850.56 204.432 847.776 208.8 847.776C211.752 847.776 214.008 849.096 214.896 851.352L211.368 853.152C210.744 851.928 209.832 851.4 208.776 851.4C207.192 851.4 205.944 852.504 205.944 854.472C205.944 856.488 207.192 857.592 208.776 857.592C209.832 857.592 210.744 857.064 211.368 855.84L214.896 857.64C214.008 859.896 211.752 861.216 208.8 861.216ZM223 861.216C218.752 861.216 215.656 858.408 215.656 854.472C215.656 850.56 218.752 847.776 223 847.776C227.296 847.776 230.344 850.56 230.344 854.472C230.344 858.408 227.296 861.216 223 861.216ZM223 857.592C224.56 857.592 225.736 856.464 225.736 854.472C225.736 852.504 224.56 851.4 223 851.4C221.464 851.4 220.264 852.504 220.264 854.472C220.264 856.464 221.464 857.592 223 857.592ZM234.736 846.552C233.056 846.552 231.952 845.496 231.952 844.128C231.952 842.76 233.056 841.704 234.736 841.704C236.416 841.704 237.52 842.688 237.52 844.056C237.52 845.496 236.416 846.552 234.736 846.552ZM232.456 861V847.992H237.016V861H232.456ZM248.452 847.776C251.5 847.776 253.828 849.528 253.828 853.56V861H249.268V854.304C249.268 852.432 248.452 851.64 247.132 851.64C245.668 851.64 244.54 852.552 244.54 854.712V861H239.98V847.992H244.324V849.408C245.356 848.328 246.82 847.776 248.452 847.776ZM261.419 861.216C259.211 861.216 256.931 860.664 255.659 859.872L257.027 856.752C258.227 857.496 259.979 857.952 261.563 857.952C263.099 857.952 263.603 857.616 263.603 857.064C263.603 855.312 255.923 857.304 255.923 852.096C255.923 849.648 258.179 847.776 262.259 847.776C264.083 847.776 266.099 848.16 267.395 848.88L266.027 851.976C264.731 851.256 263.435 851.016 262.283 851.016C260.747 851.016 260.195 851.448 260.195 851.928C260.195 853.728 267.851 851.784 267.851 856.944C267.851 859.344 265.643 861.216 261.419 861.216Z" fill="#213441"/>
<path d="M423.287 1109.34C420.527 1109.34 417.791 1108.59 416.207 1107.49L417.767 1103.98C419.255 1104.97 421.367 1105.64 423.311 1105.64C425.279 1105.64 426.047 1105.09 426.047 1104.27C426.047 1101.61 416.495 1103.55 416.495 1097.31C416.495 1094.31 418.943 1091.86 423.935 1091.86C426.119 1091.86 428.375 1092.37 430.031 1093.33L428.567 1096.86C426.959 1095.99 425.375 1095.56 423.911 1095.56C421.919 1095.56 421.199 1096.23 421.199 1097.07C421.199 1099.64 430.727 1097.72 430.727 1103.91C430.727 1106.84 428.279 1109.34 423.287 1109.34ZM450.016 1095.99H454.024L449.392 1109H444.976L442.528 1101.92L439.984 1109H435.568L430.936 1095.99H435.256L437.92 1103.86L440.68 1095.99H444.568L447.256 1103.94L450.016 1095.99ZM460.516 1095.78C464.74 1095.78 467.164 1097.65 467.164 1101.78V1109H462.916V1107.32C462.268 1108.57 460.972 1109.22 459.076 1109.22C455.956 1109.22 454.228 1107.46 454.228 1105.21C454.228 1102.81 455.98 1101.32 460.012 1101.32H462.604C462.532 1100 461.644 1099.26 459.844 1099.26C458.596 1099.26 457.204 1099.69 456.316 1100.38L454.78 1097.29C456.268 1096.3 458.476 1095.78 460.516 1095.78ZM460.348 1106.34C461.356 1106.34 462.244 1105.86 462.604 1104.82V1103.7H460.636C459.172 1103.7 458.644 1104.22 458.644 1105.02C458.644 1105.78 459.268 1106.34 460.348 1106.34ZM478.226 1095.78C481.754 1095.78 484.61 1098.37 484.61 1102.5C484.61 1106.62 481.754 1109.22 478.226 1109.22C476.714 1109.22 475.49 1108.76 474.602 1107.85V1113.66H470.042V1095.99H474.386V1097.29C475.25 1096.26 476.522 1095.78 478.226 1095.78ZM477.266 1105.59C478.802 1105.59 480.002 1104.46 480.002 1102.5C480.002 1100.53 478.802 1099.4 477.266 1099.4C475.73 1099.4 474.53 1100.53 474.53 1102.5C474.53 1104.46 475.73 1105.59 477.266 1105.59ZM494.914 1095.78C498.442 1095.78 501.298 1098.37 501.298 1102.5C501.298 1106.62 498.442 1109.22 494.914 1109.22C493.402 1109.22 492.178 1108.76 491.29 1107.85V1113.66H486.73V1095.99H491.074V1097.29C491.938 1096.26 493.21 1095.78 494.914 1095.78ZM493.954 1105.59C495.49 1105.59 496.69 1104.46 496.69 1102.5C496.69 1100.53 495.49 1099.4 493.954 1099.4C492.418 1099.4 491.218 1100.53 491.218 1102.5C491.218 1104.46 492.418 1105.59 493.954 1105.59ZM505.697 1094.55C504.017 1094.55 502.913 1093.5 502.913 1092.13C502.913 1090.76 504.017 1089.7 505.697 1089.7C507.377 1089.7 508.481 1090.69 508.481 1092.06C508.481 1093.5 507.377 1094.55 505.697 1094.55ZM503.417 1109V1095.99H507.977V1109H503.417ZM519.413 1095.78C522.461 1095.78 524.789 1097.53 524.789 1101.56V1109H520.229V1102.3C520.229 1100.43 519.413 1099.64 518.093 1099.64C516.629 1099.64 515.501 1100.55 515.501 1102.71V1109H510.941V1095.99H515.285V1097.41C516.317 1096.33 517.781 1095.78 519.413 1095.78ZM537.487 1095.99H541.831V1106.62C541.831 1111.54 539.047 1113.87 534.199 1113.87C531.703 1113.87 529.327 1113.3 527.743 1112.17L529.399 1108.98C530.479 1109.84 532.255 1110.37 533.791 1110.37C536.239 1110.37 537.271 1109.26 537.271 1107.22V1106.79C536.383 1107.82 535.063 1108.33 533.407 1108.33C529.951 1108.33 527.023 1105.88 527.023 1102.04C527.023 1098.22 529.951 1095.78 533.407 1095.78C535.207 1095.78 536.599 1096.35 537.487 1097.58V1095.99ZM534.487 1104.7C536.119 1104.7 537.319 1103.62 537.319 1102.04C537.319 1100.46 536.119 1099.4 534.487 1099.4C532.855 1099.4 531.631 1100.46 531.631 1102.04C531.631 1103.62 532.855 1104.7 534.487 1104.7ZM446.059 1138V1121.2H450.811V1134.23H458.827V1138H446.059ZM466.223 1124.78C470.447 1124.78 472.871 1126.65 472.871 1130.78V1138H468.623V1136.32C467.975 1137.57 466.679 1138.22 464.783 1138.22C461.663 1138.22 459.935 1136.46 459.935 1134.21C459.935 1131.81 461.687 1130.32 465.719 1130.32H468.311C468.239 1129 467.351 1128.26 465.551 1128.26C464.303 1128.26 462.911 1128.69 462.023 1129.38L460.487 1126.29C461.975 1125.3 464.183 1124.78 466.223 1124.78ZM466.055 1135.34C467.063 1135.34 467.951 1134.86 468.311 1133.82V1132.7H466.343C464.879 1132.7 464.351 1133.22 464.351 1134.02C464.351 1134.78 464.975 1135.34 466.055 1135.34ZM484.875 1124.99H489.219L483.603 1138.53C482.235 1141.89 480.315 1142.87 477.747 1142.87C476.379 1142.87 474.843 1142.42 473.979 1141.7L475.563 1138.5C476.091 1138.98 476.859 1139.27 477.579 1139.27C478.467 1139.27 478.971 1138.94 479.355 1138.17L473.787 1124.99H478.467L481.659 1132.94L484.875 1124.99ZM503.342 1131.52C503.342 1131.86 503.294 1132.29 503.27 1132.65H493.814C494.198 1133.97 495.326 1134.74 497.006 1134.74C498.278 1134.74 499.118 1134.38 500.006 1133.61L502.406 1136.1C501.158 1137.5 499.334 1138.22 496.862 1138.22C492.23 1138.22 489.23 1135.36 489.23 1131.47C489.23 1127.56 492.278 1124.78 496.382 1124.78C500.222 1124.78 503.342 1127.22 503.342 1131.52ZM496.406 1128.02C494.99 1128.02 494.006 1128.88 493.742 1130.25H499.07C498.83 1128.88 497.822 1128.02 496.406 1128.02ZM509.788 1126.55C510.724 1125.38 512.236 1124.78 514.156 1124.78V1128.88C513.748 1128.83 513.46 1128.81 513.124 1128.81C511.276 1128.81 510.004 1129.74 510.004 1132.02V1138H505.444V1124.99H509.788V1126.55Z" fill="#213441"/>
<path d="M457.478 597H453.11L453.062 588.096L448.742 595.344H446.63L442.334 588.336V597H437.942V580.2H441.854L447.758 589.896L453.518 580.2H457.43L457.478 597ZM462.904 582.552C461.224 582.552 460.12 581.496 460.12 580.128C460.12 578.76 461.224 577.704 462.904 577.704C464.584 577.704 465.688 578.688 465.688 580.056C465.688 581.496 464.584 582.552 462.904 582.552ZM460.624 597V583.992H465.184V597H460.624ZM476.62 583.776C479.668 583.776 481.996 585.528 481.996 589.56V597H477.436V590.304C477.436 588.432 476.62 587.64 475.3 587.64C473.836 587.64 472.708 588.552 472.708 590.712V597H468.148V583.992H472.492V585.408C473.524 584.328 474.988 583.776 476.62 583.776ZM487.139 582.552C485.459 582.552 484.355 581.496 484.355 580.128C484.355 578.76 485.459 577.704 487.139 577.704C488.819 577.704 489.923 578.688 489.923 580.056C489.923 581.496 488.819 582.552 487.139 582.552ZM484.859 597V583.992H489.419V597H484.859ZM500.854 583.776C503.902 583.776 506.23 585.528 506.23 589.56V597H501.67V590.304C501.67 588.432 500.854 587.64 499.534 587.64C498.07 587.64 496.942 588.552 496.942 590.712V597H492.382V583.992H496.726V585.408C497.758 584.328 499.222 583.776 500.854 583.776ZM518.928 583.992H523.272V594.624C523.272 599.544 520.488 601.872 515.64 601.872C513.144 601.872 510.768 601.296 509.184 600.168L510.84 596.976C511.92 597.84 513.696 598.368 515.232 598.368C517.68 598.368 518.712 597.264 518.712 595.224V594.792C517.824 595.824 516.504 596.328 514.848 596.328C511.392 596.328 508.464 593.88 508.464 590.04C508.464 586.224 511.392 583.776 514.848 583.776C516.648 583.776 518.04 584.352 518.928 585.576V583.992ZM515.928 592.704C517.56 592.704 518.76 591.624 518.76 590.04C518.76 588.456 517.56 587.4 515.928 587.4C514.296 587.4 513.072 588.456 513.072 590.04C513.072 591.624 514.296 592.704 515.928 592.704Z" fill="#213441"/>
<path d="M215.144 1340.82C271.712 1340.82 317.57 1294.96 317.57 1238.38C317.57 1181.8 271.712 1135.94 215.144 1135.94C158.576 1135.94 112.719 1181.8 112.719 1238.38C112.719 1294.96 158.576 1340.82 215.144 1340.82Z" fill="url(#paint0_linear_529_738)"/>
<path d="M749.865 1340.82C806.433 1340.82 852.29 1294.96 852.29 1238.38C852.29 1181.8 806.433 1135.94 749.865 1135.94C693.297 1135.94 647.439 1181.8 647.439 1238.38C647.439 1294.96 693.297 1340.82 749.865 1340.82Z" fill="url(#paint1_linear_529_738)"/>
<path d="M215.144 821.085C271.712 821.085 317.57 775.22 317.57 718.644C317.57 662.067 271.712 616.203 215.144 616.203C158.576 616.203 112.719 662.067 112.719 718.644C112.719 775.22 158.576 821.085 215.144 821.085Z" fill="url(#paint2_linear_529_738)"/>
<path d="M483.258 1075.68C539.826 1075.68 585.683 1029.82 585.683 973.239C585.683 916.662 539.826 870.798 483.258 870.798C426.69 870.798 380.832 916.662 380.832 973.239C380.832 1029.82 426.69 1075.68 483.258 1075.68Z" fill="url(#paint3_linear_529_738)"/>
<path d="M483.258 566.489C539.826 566.489 585.683 520.625 585.683 464.048C585.683 407.472 539.826 361.607 483.258 361.607C426.69 361.607 380.832 407.472 380.832 464.048C380.832 520.625 426.69 566.489 483.258 566.489Z" fill="url(#paint4_linear_529_738)"/>
<path d="M749.865 821.085C806.433 821.085 852.29 775.22 852.29 718.644C852.29 662.067 806.433 616.203 749.865 616.203C693.297 616.203 647.439 662.067 647.439 718.644C647.439 775.22 693.297 821.085 749.865 821.085Z" fill="url(#paint5_linear_529_738)"/>
<path d="M1167.1 566.489C1223.67 566.489 1269.52 520.625 1269.52 464.048C1269.52 407.472 1223.67 361.607 1167.1 361.607C1110.53 361.607 1064.67 407.472 1064.67 464.048C1064.67 520.625 1110.53 566.489 1167.1 566.489Z" fill="url(#paint6_linear_529_738)"/>
<path d="M825.179 262.179C881.747 262.179 927.605 216.315 927.605 159.739C927.605 103.162 881.747 57.2979 825.179 57.2979C768.611 57.2979 722.754 103.162 722.754 159.739C722.754 216.315 768.611 262.179 825.179 262.179Z" fill="url(#paint7_linear_529_738)"/>
<path d="M707.435 159.738H505.867C493.441 159.738 483.273 169.907 483.273 182.336V339.401" stroke="#342F50" stroke-width="2" stroke-linecap="round" stroke-linejoin="round"/>
<path d="M473.422 331.417L475.184 329.775L483.273 338.482L491.361 329.775L493.124 331.417L483.273 342.023L473.422 331.417Z" fill="#342F50"/>
<path d="M943.707 160.492H1145.26C1157.69 160.492 1167.85 170.661 1167.85 183.089V340.155" stroke="#342F50" stroke-width="2" stroke-linecap="round" stroke-linejoin="round"/>
<path d="M1158 332.171L1159.76 330.529L1167.85 339.236L1175.94 330.529L1177.7 332.171L1167.85 342.777L1158 332.171Z" fill="#342F50"/>
<path d="M334.139 1238.38H626.157" stroke="#342F50" stroke-width="2" stroke-linecap="round" stroke-linejoin="round"/>
<path d="M618.173 1248.23L616.531 1246.47L625.237 1238.38L616.531 1230.29L618.173 1228.51L628.777 1238.38L618.173 1248.23Z" fill="#342F50"/>
<path d="M867.715 1238.38H1144.5C1156.93 1238.38 1167.1 1228.21 1167.1 1215.78V683.588" stroke="#342F50" stroke-width="2" stroke-linecap="round" stroke-linejoin="round"/>
<path d="M1176.95 691.572L1175.19 693.214L1167.1 684.522L1159.01 693.214L1157.25 691.572L1167.1 680.981L1176.95 691.572Z" fill="#342F50"/>
<path d="M749.866 881.841V950.642C749.866 963.07 739.699 973.239 727.272 973.239H602.178" stroke="#342F50" stroke-width="2" stroke-linecap="round" stroke-linejoin="round"/>
<path d="M610.176 963.372L611.818 965.134L603.112 973.239L611.818 981.329L610.176 983.091L599.572 973.239L610.176 963.372Z" fill="#342F50"/>
<path d="M365.981 973.238H237.738C225.312 973.238 215.145 983.407 215.145 995.836V1114.03" stroke="#342F50" stroke-width="2" stroke-linecap="round" stroke-linejoin="round"/>
<path d="M205.293 1106.05L207.055 1104.41L215.144 1113.12L223.232 1104.41L224.995 1106.05L215.144 1116.64L205.293 1106.05Z" fill="#342F50"/>
<path d="M329.047 718.643H631.518" stroke="#342F50" stroke-width="2" stroke-linecap="round" stroke-linejoin="round"/>
<path d="M623.534 728.495L621.893 726.733L630.599 718.643L621.893 710.553L623.534 708.775L634.138 718.643L623.534 728.495Z" fill="#342F50"/>
<path d="M365.982 464.048H237.754C225.327 464.048 215.16 474.217 215.16 486.645V595.549" stroke="#342F50" stroke-width="2" stroke-linecap="round" stroke-linejoin="round"/>
<path d="M205.309 587.549L207.071 585.907L215.16 594.615L223.248 585.907L225.01 587.549L215.16 598.155L205.309 587.549Z" fill="#342F50"/>
<path d="M595.354 464.726H727.272C739.698 464.726 749.865 474.894 749.865 487.323V595.533" stroke="#342F50" stroke-width="2" stroke-linecap="round" stroke-linejoin="round"/>
<path d="M740.014 587.549L741.776 585.907L749.865 594.614L757.953 585.907L759.715 587.549L749.865 598.154L740.014 587.549Z" fill="#342F50"/>
<path d="M560 709H382V735H560V709Z" fill="white"/>
<path d="M392.107 720.365H398.032V722H390.157V711.5H397.822V713.135H392.107V715.865H397.177V717.47H392.107V720.365ZM407.094 722H404.979L402.924 719.225L400.854 722H398.784L401.904 717.935L398.919 713.99H401.004L402.969 716.615L404.934 713.99H406.959L403.959 717.905L407.094 722ZM411.889 722.105C409.354 722.105 407.554 720.395 407.554 717.995C407.554 715.595 409.354 713.9 411.889 713.9C413.449 713.9 414.694 714.545 415.309 715.76L413.869 716.6C413.389 715.835 412.669 715.49 411.874 715.49C410.494 715.49 409.444 716.45 409.444 717.995C409.444 719.555 410.494 720.5 411.874 720.5C412.669 720.5 413.389 720.155 413.869 719.39L415.309 720.23C414.694 721.43 413.449 722.105 411.889 722.105ZM421.402 713.9C423.322 713.9 424.747 714.995 424.747 717.41V722H422.872V717.65C422.872 716.225 422.167 715.535 420.967 715.535C419.632 715.535 418.732 716.345 418.732 717.95V722H416.857V710.87H418.732V714.92C419.347 714.26 420.292 713.9 421.402 713.9ZM430.186 713.9C432.496 713.9 433.831 714.995 433.831 717.305V722H432.061V721.025C431.611 721.715 430.741 722.105 429.541 722.105C427.711 722.105 426.556 721.1 426.556 719.705C426.556 718.37 427.456 717.32 429.886 717.32H431.956V717.2C431.956 716.105 431.296 715.46 429.961 715.46C429.061 715.46 428.131 715.76 427.531 716.255L426.796 714.89C427.651 714.23 428.896 713.9 430.186 713.9ZM429.931 720.74C430.846 720.74 431.641 720.32 431.956 719.495V718.565H430.021C428.746 718.565 428.401 719.045 428.401 719.63C428.401 720.305 428.971 720.74 429.931 720.74ZM440.782 713.9C442.702 713.9 444.127 714.995 444.127 717.41V722H442.252V717.65C442.252 716.225 441.547 715.535 440.347 715.535C439.012 715.535 438.112 716.345 438.112 717.95V722H436.237V713.99H438.022V715.025C438.637 714.29 439.612 713.9 440.782 713.9ZM452.744 713.99H454.529V720.785C454.529 723.695 453.014 725.015 450.209 725.015C448.709 725.015 447.224 724.625 446.309 723.875L447.149 722.465C447.854 723.05 448.994 723.425 450.104 723.425C451.874 723.425 452.654 722.615 452.654 720.995V720.575C451.994 721.295 451.049 721.64 449.969 721.64C447.674 721.64 445.919 720.08 445.919 717.755C445.919 715.43 447.674 713.9 449.969 713.9C451.094 713.9 452.084 714.26 452.744 715.055V713.99ZM450.254 720.05C451.664 720.05 452.684 719.12 452.684 717.755C452.684 716.405 451.664 715.49 450.254 715.49C448.829 715.49 447.809 716.405 447.809 717.755C447.809 719.12 448.829 720.05 450.254 720.05ZM464.524 718.04C464.524 718.19 464.509 718.415 464.494 718.595H458.209C458.434 719.765 459.409 720.515 460.804 720.515C461.704 720.515 462.409 720.23 462.979 719.645L463.984 720.8C463.264 721.655 462.139 722.105 460.759 722.105C458.074 722.105 456.334 720.38 456.334 717.995C456.334 715.61 458.089 713.9 460.474 713.9C462.814 713.9 464.524 715.535 464.524 718.04ZM460.474 715.4C459.259 715.4 458.374 716.18 458.194 717.35H462.739C462.589 716.195 461.704 715.4 460.474 715.4ZM473.53 713.9C475.84 713.9 477.175 714.995 477.175 717.305V722H475.405V721.025C474.955 721.715 474.085 722.105 472.885 722.105C471.055 722.105 469.9 721.1 469.9 719.705C469.9 718.37 470.8 717.32 473.23 717.32H475.3V717.2C475.3 716.105 474.64 715.46 473.305 715.46C472.405 715.46 471.475 715.76 470.875 716.255L470.14 714.89C470.995 714.23 472.24 713.9 473.53 713.9ZM473.275 720.74C474.19 720.74 474.985 720.32 475.3 719.495V718.565H473.365C472.09 718.565 471.745 719.045 471.745 719.63C471.745 720.305 472.315 720.74 473.275 720.74ZM479.582 722V710.87H481.457V722H479.582ZM488.603 720.23L489.128 721.565C488.678 721.925 488.003 722.105 487.328 722.105C485.573 722.105 484.568 721.175 484.568 719.405V715.55H483.248V714.05H484.568V712.22H486.443V714.05H488.588V715.55H486.443V719.36C486.443 720.14 486.833 720.56 487.553 720.56C487.943 720.56 488.318 720.455 488.603 720.23ZM493.145 722.105C491.81 722.105 490.475 721.715 489.755 721.205L490.475 719.78C491.18 720.245 492.26 720.575 493.265 720.575C494.45 720.575 494.945 720.245 494.945 719.69C494.945 718.16 489.995 719.6 489.995 716.405C489.995 714.89 491.36 713.9 493.52 713.9C494.585 713.9 495.8 714.155 496.52 714.59L495.8 716.015C495.035 715.565 494.27 715.415 493.505 715.415C492.365 715.415 491.825 715.79 491.825 716.315C491.825 717.935 496.775 716.495 496.775 719.63C496.775 721.13 495.395 722.105 493.145 722.105ZM506.826 720.23L507.351 721.565C506.901 721.925 506.226 722.105 505.551 722.105C503.796 722.105 502.791 721.175 502.791 719.405V715.55H501.471V714.05H502.791V712.22H504.666V714.05H506.811V715.55H504.666V719.36C504.666 720.14 505.056 720.56 505.776 720.56C506.166 720.56 506.541 720.455 506.826 720.23ZM512.229 722.105C509.769 722.105 507.969 720.395 507.969 717.995C507.969 715.595 509.769 713.9 512.229 713.9C514.719 713.9 516.504 715.595 516.504 717.995C516.504 720.395 514.719 722.105 512.229 722.105ZM512.229 720.5C513.594 720.5 514.614 719.525 514.614 717.995C514.614 716.465 513.594 715.49 512.229 715.49C510.879 715.49 509.859 716.465 509.859 717.995C509.859 719.525 510.879 720.5 512.229 720.5ZM530.063 716.54C531.188 716.9 531.953 717.785 531.953 719.15C531.953 720.95 530.543 722 527.843 722H522.623V711.5H527.543C530.063 711.5 531.413 712.565 531.413 714.23C531.413 715.31 530.873 716.105 530.063 716.54ZM527.333 713.03H524.573V715.925H527.333C528.683 715.925 529.448 715.445 529.448 714.485C529.448 713.51 528.683 713.03 527.333 713.03ZM527.723 720.47C529.193 720.47 529.988 720.005 529.988 718.955C529.988 717.905 529.193 717.44 527.723 717.44H524.573V720.47H527.723ZM536.018 722V713.15H532.538V711.5H541.448V713.15H537.968V722H536.018ZM547.624 722.15C544.414 722.15 542.014 719.885 542.014 716.75C542.014 713.615 544.414 711.35 547.639 711.35C549.349 711.35 550.819 711.965 551.794 713.105L550.534 714.29C549.769 713.465 548.824 713.06 547.729 713.06C545.554 713.06 543.979 714.59 543.979 716.75C543.979 718.91 545.554 720.44 547.729 720.44C548.824 720.44 549.769 720.035 550.534 719.195L551.794 720.395C550.819 721.535 549.349 722.15 547.624 722.15Z" fill="#213441"/>
<path d="M866.586 162.134C867.52 164.755 870.397 166.141 873.033 165.207C875.653 164.273 877.039 161.396 876.105 158.759C875.171 156.138 872.295 154.752 869.659 155.686C868.228 156.198 867.083 157.328 866.586 158.759H856.178V144.312L860.244 140.245H863.227C864.161 142.881 867.038 144.252 869.674 143.318C872.31 142.384 873.68 139.506 872.746 136.87C871.813 134.234 868.936 132.863 866.3 133.797C864.869 134.309 863.724 135.439 863.227 136.87H859.552C859.1 136.87 858.678 137.051 858.362 137.367L854.189 141.54L844.399 136.358V126.777H849.761C850.695 129.413 853.572 130.784 856.208 129.85C858.844 128.916 860.214 126.038 859.28 123.402C858.347 120.766 855.47 119.395 852.834 120.329C851.403 120.841 850.258 121.971 849.761 123.402H842.727C841.793 123.402 841.04 124.155 841.04 125.089V134.565L827.574 127.439V119.726C830.195 118.792 831.58 115.915 830.647 113.279C829.713 110.642 826.836 109.271 824.2 110.205C821.564 111.139 820.193 114.017 821.127 116.653C821.639 118.084 822.769 119.229 824.2 119.726V127.439L810.734 134.565V125.089C810.734 124.155 809.981 123.402 809.047 123.402H802.013C801.079 120.766 798.202 119.395 795.566 120.329C792.93 121.263 791.559 124.14 792.493 126.777C793.427 129.413 796.304 130.784 798.94 129.85C800.371 129.338 801.515 128.208 802.013 126.777H807.375V136.358L797.584 141.54L793.412 137.367C793.096 137.051 792.674 136.87 792.222 136.87H788.547C787.613 134.234 784.736 132.863 782.1 133.797C779.479 134.731 778.093 137.608 779.027 140.245C779.961 142.881 782.838 144.252 785.474 143.318C786.905 142.806 788.05 141.676 788.547 140.245H791.529L795.596 144.312V158.759H785.188C784.254 156.138 781.377 154.752 778.741 155.686C776.105 156.62 774.734 159.497 775.668 162.134C776.602 164.755 779.479 166.141 782.115 165.207C783.546 164.695 784.691 163.565 785.188 162.134H795.596V176.581L791.529 180.648H788.547C787.613 178.012 784.736 176.641 782.1 177.575C779.479 178.509 778.093 181.387 779.027 184.023C779.961 186.644 782.838 188.03 785.474 187.096C786.905 186.584 788.05 185.454 788.547 184.023H792.222C792.674 184.023 793.096 183.842 793.412 183.526L797.584 179.353L807.375 184.535V194.116H802.013C801.079 191.495 798.202 190.109 795.566 191.043C792.945 191.977 791.559 194.854 792.493 197.491C793.427 200.127 796.304 201.498 798.94 200.564C800.371 200.052 801.515 198.922 802.013 197.491H809.047C809.981 197.491 810.734 196.738 810.734 195.804V186.328L824.2 193.453V201.167C821.579 202.101 820.193 204.978 821.127 207.614C822.061 210.251 824.938 211.622 827.574 210.688C830.195 209.754 831.58 206.876 830.647 204.24C830.134 202.809 829.005 201.664 827.574 201.167V193.453L841.04 186.328V195.804C841.04 196.738 841.793 197.491 842.727 197.491H849.761C850.695 200.127 853.572 201.498 856.208 200.564C858.829 199.63 860.214 196.753 859.28 194.116C858.347 191.495 855.47 190.109 852.834 191.043C851.403 191.555 850.258 192.685 849.761 194.116H844.399V184.535L854.189 179.353L858.362 183.526C858.678 183.842 859.1 184.023 859.552 184.023H863.227C864.161 186.644 867.038 188.03 869.674 187.096C872.295 186.162 873.68 183.285 872.746 180.648C871.813 178.012 868.936 176.641 866.3 177.575C864.869 178.087 863.724 179.217 863.227 180.648H860.244L856.178 176.581V162.134H866.586ZM871.315 158.759C872.249 158.759 873.002 159.512 873.002 160.446C873.002 161.38 872.249 162.134 871.315 162.134C870.382 162.134 869.628 161.38 869.628 160.446C869.644 159.512 870.397 158.759 871.315 158.759ZM867.957 136.885C868.89 136.885 869.644 137.638 869.644 138.572C869.644 139.506 868.89 140.26 867.957 140.26C867.023 140.26 866.27 139.506 866.27 138.572C866.27 137.638 867.023 136.885 867.957 136.885ZM854.491 123.417C855.424 123.417 856.178 124.17 856.178 125.104C856.178 126.038 855.424 126.792 854.491 126.792C853.557 126.792 852.804 126.038 852.804 125.104C852.804 124.17 853.572 123.417 854.491 123.417ZM797.283 126.792C796.349 126.792 795.596 126.038 795.596 125.104C795.596 124.17 796.349 123.417 797.283 123.417C798.217 123.417 798.97 124.17 798.97 125.104C798.97 126.038 798.217 126.792 797.283 126.792ZM783.832 140.26C782.898 140.26 782.145 139.506 782.145 138.572C782.145 137.638 782.898 136.885 783.832 136.885C784.766 136.885 785.519 137.638 785.519 138.572C785.519 139.506 784.751 140.26 783.832 140.26ZM780.458 162.134C779.524 162.134 778.771 161.38 778.771 160.446C778.771 159.512 779.524 158.759 780.458 158.759C781.392 158.759 782.145 159.512 782.145 160.446C782.145 161.38 781.392 162.134 780.458 162.134ZM783.832 184.008C782.898 184.008 782.145 183.255 782.145 182.321C782.145 181.387 782.898 180.633 783.832 180.633C784.766 180.633 785.519 181.387 785.519 182.321C785.504 183.255 784.751 184.008 783.832 184.008ZM797.283 197.476C796.349 197.476 795.596 196.722 795.596 195.788C795.596 194.854 796.349 194.101 797.283 194.101C798.217 194.101 798.97 194.854 798.97 195.788C798.97 196.722 798.217 197.476 797.283 197.476ZM854.491 194.101C855.424 194.101 856.178 194.854 856.178 195.788C856.178 196.722 855.424 197.476 854.491 197.476C853.557 197.476 852.804 196.722 852.804 195.788C852.819 194.854 853.572 194.101 854.491 194.101ZM867.957 180.648C868.89 180.648 869.644 181.402 869.644 182.336C869.644 183.27 868.89 184.023 867.957 184.023C867.023 184.023 866.27 183.27 866.27 182.336C866.27 181.402 867.023 180.648 867.957 180.648ZM825.887 113.324C826.821 113.324 827.574 114.077 827.574 115.011C827.574 115.945 826.821 116.698 825.887 116.698C824.953 116.698 824.2 115.945 824.2 115.011C824.215 114.077 824.968 113.324 825.887 113.324ZM825.887 207.569C824.953 207.569 824.2 206.816 824.2 205.882C824.2 204.948 824.953 204.195 825.887 204.195C826.821 204.195 827.574 204.948 827.574 205.882C827.574 206.816 826.821 207.569 825.887 207.569ZM852.819 176.264L825.902 190.516L798.985 176.264V144.628L825.902 130.377L852.819 144.628V176.264Z" fill="white"/>
<path d="M825.134 133.691L801.576 145.472C801.004 145.758 800.643 146.346 800.643 146.979V173.899C800.643 174.547 801.004 175.135 801.576 175.421L825.134 187.202C825.601 187.443 826.159 187.443 826.641 187.202L850.198 175.421C850.771 175.135 851.132 174.547 851.132 173.899V146.979C851.132 146.346 850.771 145.758 850.198 145.472L826.641 133.691C826.174 133.465 825.616 133.465 825.134 133.691ZM847.773 148.018V172.86L825.903 183.797L804.032 172.86V148.018L825.903 137.081L847.773 148.018Z" fill="white"/>
<path d="M814.108 160.055L810.569 152.975C810.162 152.131 809.153 151.784 808.324 152.191C807.737 152.477 807.36 153.08 807.375 153.728V168.868H810.734V160.853L814.274 167.934C814.696 168.762 815.705 169.109 816.534 168.687C817.106 168.401 817.467 167.813 817.467 167.181V152.04H814.108V160.055Z" fill="white"/>
<path d="M820.84 153.712V168.853H824.199V162.119H829.245V158.759H824.199V155.4H830.932V152.04H822.512C821.593 152.025 820.84 152.793 820.84 153.712Z" fill="white"/>
<path d="M837.666 168.868H841.04V155.4H844.399V152.025H834.307V155.4H837.666V168.868Z" fill="white"/>
<path d="M1167.48 438.257L1189.06 450.731C1189.38 450.896 1189.54 451.243 1189.54 451.589V476.537C1189.54 476.928 1189.3 477.275 1188.95 477.411L1167.45 489.839C1167.13 490.005 1166.77 490.005 1166.47 489.839L1144.85 477.365C1144.53 477.2 1144.37 476.853 1144.37 476.507V451.559C1144.37 451.168 1144.61 450.821 1144.96 450.686L1166.5 438.227C1166.8 438.061 1167.16 438.061 1167.48 438.257ZM1187.61 452.132L1166.98 440.216L1146.34 452.132V475.994L1166.98 487.911L1187.61 475.994V452.132ZM1136.4 492.973L1129.97 496.678C1129.65 496.844 1129.29 496.844 1128.99 496.678L1122.59 492.973V499.827L1129.49 503.819L1136.39 499.827V492.973H1136.4ZM1123.55 491.285L1129.47 494.72L1135.42 491.285L1129.47 487.85L1123.55 491.285ZM1129.98 485.907L1137.17 490.05L1145.54 481.599C1146.45 480.695 1147.83 482.066 1146.93 482.969L1138.33 491.617V500.369C1138.33 500.761 1138.09 501.107 1137.77 501.273L1129.97 505.778C1129.65 505.943 1129.29 505.943 1128.99 505.778L1121.13 501.228C1120.81 501.062 1120.65 500.716 1120.65 500.369V491.285C1120.65 490.894 1120.89 490.547 1121.23 490.411L1129.04 485.907C1129.31 485.711 1129.7 485.726 1129.98 485.907ZM1136.4 429.399L1129.97 433.105C1129.65 433.271 1129.29 433.271 1128.99 433.105L1122.59 429.399V436.253L1129.49 440.246L1136.39 436.253V429.399H1136.4ZM1123.55 427.712L1129.47 431.147L1135.42 427.712L1129.47 424.277L1123.55 427.712ZM1129.98 422.334L1137.85 426.883C1138.16 427.049 1138.33 427.395 1138.33 427.742V436.494L1146.97 445.217C1147.88 446.121 1146.49 447.477 1145.6 446.588L1137.17 438.061L1129.95 442.234C1129.64 442.43 1129.28 442.4 1128.98 442.234L1121.11 437.7C1120.8 437.534 1120.63 437.187 1120.63 436.841V427.757C1120.63 427.365 1120.87 427.019 1121.22 426.853L1129.02 422.349C1129.31 422.138 1129.7 422.153 1129.98 422.334ZM1211.37 492.973L1204.94 496.678C1204.62 496.844 1204.26 496.844 1203.96 496.678L1197.56 492.973V499.827L1204.45 503.819L1211.35 499.827V492.973H1211.37ZM1198.52 491.285L1204.44 494.72L1210.39 491.285L1204.44 487.85L1198.52 491.285ZM1204.95 485.907L1212.81 490.442C1213.13 490.607 1213.3 490.954 1213.3 491.3V500.384C1213.3 500.776 1213.07 501.123 1212.74 501.288L1204.94 505.793C1204.62 505.958 1204.26 505.958 1203.96 505.793L1196.09 501.243C1195.78 501.077 1195.61 500.731 1195.61 500.384V491.632L1186.82 482.759C1185.91 481.855 1187.3 480.499 1188.19 481.388L1196.79 490.035L1203.97 485.862C1204.3 485.711 1204.66 485.726 1204.95 485.907ZM1211.37 429.399L1204.97 433.105C1204.65 433.271 1204.29 433.271 1203.99 433.105L1197.59 429.399V436.253L1204.48 440.246L1211.38 436.253V429.399H1211.37ZM1198.52 427.712L1204.44 431.147L1210.39 427.712L1204.44 424.277L1198.52 427.712ZM1204.95 422.334L1212.81 426.883C1213.13 427.049 1213.3 427.395 1213.3 427.742V436.826C1213.3 437.218 1213.07 437.564 1212.74 437.7L1204.94 442.204C1204.62 442.4 1204.26 442.37 1203.96 442.204L1196.77 438.061L1188.49 446.422C1187.58 447.326 1186.2 445.955 1187.1 445.051L1195.61 436.494V427.742C1195.61 427.35 1195.84 427.004 1196.17 426.838L1203.97 422.334C1204.3 422.138 1204.66 422.153 1204.95 422.334ZM1166.15 505.085L1166.1 492.973C1166.1 491.707 1168.05 491.677 1168.05 492.973L1168.09 505.16C1171.33 506.019 1172.48 510.086 1170.1 512.496C1167.32 515.223 1162.59 513.28 1162.59 509.378C1162.58 507.239 1164.1 505.461 1166.15 505.085ZM1168.09 422.966L1168.05 435.545C1168.05 436.841 1166.1 436.811 1166.1 435.545L1166.15 423.027C1162.75 422.364 1161.4 418.131 1163.89 415.615C1166.65 412.888 1171.38 414.831 1171.38 418.733C1171.36 420.722 1169.99 422.454 1168.09 422.966ZM1169.4 509.363C1169.4 507.194 1166.77 506.124 1165.26 507.631C1163.72 509.167 1164.82 511.773 1166.99 511.773C1168.3 511.803 1169.4 510.704 1169.4 509.363ZM1168.7 420.42C1170.23 418.884 1169.13 416.278 1166.96 416.278C1164.79 416.278 1163.72 418.884 1165.23 420.42C1166.19 421.369 1167.75 421.369 1168.7 420.42ZM1207.99 464.877L1193.99 464.922C1192.72 464.922 1192.72 462.978 1193.99 462.978L1208.07 462.933C1208.93 459.694 1212.99 458.549 1215.4 460.93C1217.11 462.632 1217.11 465.419 1215.4 467.121C1212.89 469.622 1208.66 468.281 1207.99 464.877ZM1125.89 462.948L1139.55 462.993C1140.81 462.993 1140.81 464.937 1139.55 464.937L1125.93 464.892C1125.27 468.296 1121.01 469.637 1118.52 467.151C1115.8 464.379 1117.74 459.649 1121.64 459.649C1123.67 459.664 1125.38 461.02 1125.89 462.948ZM1212.32 461.608C1210.15 461.608 1209.08 464.244 1210.58 465.75C1211.53 466.699 1213.07 466.699 1214.02 465.75C1215.52 464.244 1214.46 461.608 1212.32 461.608ZM1123.36 462.316C1121.82 460.779 1119.21 461.879 1119.21 464.048C1119.21 466.217 1121.85 467.287 1123.36 465.78C1124.31 464.801 1124.31 463.295 1123.36 462.316ZM1178.4 454.12C1177.57 454.467 1176.74 454.783 1175.86 455.069C1176.74 457.404 1177.28 460.131 1177.37 463.069H1182.07C1181.86 459.664 1180.52 456.531 1178.4 454.12ZM1174.01 455.612C1172.04 456.094 1170.02 456.395 1167.94 456.47V463.069H1175.44C1175.35 460.312 1174.84 457.751 1174.01 455.612ZM1166 456.44C1163.94 456.365 1161.9 456.094 1159.93 455.582C1159.1 457.751 1158.59 460.312 1158.5 463.039H1166V456.44ZM1158.08 455.069C1157.22 454.783 1156.37 454.467 1155.55 454.12C1153.45 456.531 1152.08 459.649 1151.87 463.069H1156.55C1156.65 460.146 1157.2 457.42 1158.08 455.069ZM1157.04 452.614C1157.62 452.855 1158.23 453.081 1158.86 453.277C1159.4 452.177 1160.05 451.138 1160.83 450.203C1159.42 450.836 1158.15 451.635 1157.04 452.614ZM1160.76 453.804C1162.44 454.196 1164.22 454.437 1166 454.512V448.998C1163.83 449.45 1162.02 451.379 1160.76 453.804ZM1167.94 454.497C1169.75 454.422 1171.5 454.211 1173.18 453.789C1171.92 451.348 1170.1 449.45 1167.94 448.983V454.497ZM1175.11 453.277C1175.74 453.081 1176.33 452.87 1176.93 452.614C1175.82 451.635 1174.54 450.806 1173.15 450.203C1173.92 451.122 1174.57 452.177 1175.11 453.277ZM1155.55 473.961C1156.37 473.614 1157.2 473.298 1158.08 473.012C1157.2 470.677 1156.66 467.95 1156.57 465.012H1151.87C1152.08 468.432 1153.42 471.55 1155.55 473.961ZM1159.96 472.469C1161.9 471.987 1163.95 471.686 1166.03 471.611V465.012H1158.53C1158.59 467.769 1159.13 470.33 1159.96 472.469ZM1167.94 471.641C1170.01 471.716 1172.04 471.987 1174.01 472.499C1174.84 470.33 1175.35 467.799 1175.44 465.042H1167.94V471.641ZM1175.9 473.012C1176.75 473.298 1177.6 473.614 1178.43 473.961C1180.55 471.55 1181.89 468.432 1182.1 465.012H1177.42C1177.3 467.935 1176.77 470.677 1175.9 473.012ZM1176.9 475.467C1176.32 475.226 1175.71 475.03 1175.08 474.804C1174.54 475.904 1173.89 476.944 1173.11 477.878C1174.52 477.245 1175.79 476.446 1176.9 475.467ZM1173.21 474.307C1171.53 473.916 1169.75 473.674 1167.97 473.599V479.113C1170.11 478.646 1171.92 476.718 1173.21 474.307ZM1166 473.599C1164.19 473.674 1162.44 473.885 1160.76 474.307C1162.02 476.748 1163.85 478.646 1166 479.113V473.599ZM1158.83 474.819C1158.23 475.015 1157.61 475.226 1157.01 475.482C1158.12 476.461 1159.4 477.29 1160.79 477.893C1160.03 476.959 1159.39 475.904 1158.83 474.819ZM1166.98 446.934C1171.6 446.859 1176.05 448.908 1179.06 451.951C1185.73 458.625 1185.73 469.441 1179.06 476.13C1172.39 482.804 1161.57 482.804 1154.88 476.13C1148.21 469.456 1148.21 458.64 1154.88 451.951C1157.99 448.863 1162.25 446.965 1166.98 446.934Z" fill="white"/>
<path fill-rule="evenodd" clip-rule="evenodd" d="M442.514 440.125V438.197H444.517C444.171 439.101 443.433 439.809 442.514 440.125ZM438.567 438.197H440.345V440.05C439.516 439.703 438.869 439.04 438.567 438.197ZM440.345 434.174V436.027H438.567C438.869 435.184 439.516 434.506 440.345 434.174ZM444.517 436.027H442.514V434.099C443.433 434.4 444.171 435.108 444.517 436.027ZM441.535 431.749C438.582 431.749 436.188 434.144 436.188 437.097C436.188 440.05 438.582 442.445 441.535 442.445C444.487 442.445 446.882 440.05 446.882 437.097C446.882 434.144 444.487 431.749 441.535 431.749Z" fill="white"/>
<path fill-rule="evenodd" clip-rule="evenodd" d="M465.304 440.125V438.197H467.337C466.991 439.116 466.253 439.839 465.304 440.125ZM461.388 438.197H463.135V440.035C462.322 439.703 461.689 439.025 461.388 438.197ZM463.135 434.174V436.012H461.388C461.689 435.199 462.322 434.521 463.135 434.174ZM467.337 436.027H465.304V434.099C466.253 434.385 466.991 435.093 467.337 436.027ZM464.355 431.749C461.403 431.749 459.008 434.144 459.008 437.097C459.008 440.05 461.403 442.445 464.355 442.445C467.307 442.445 469.702 440.05 469.702 437.097C469.702 434.144 467.307 431.749 464.355 431.749Z" fill="white"/>
<path fill-rule="evenodd" clip-rule="evenodd" d="M442.514 466.82V464.892H444.517C444.171 465.811 443.433 466.519 442.514 466.82ZM438.567 464.892H440.345V466.745C439.516 466.413 438.869 465.735 438.567 464.892ZM440.345 460.869V462.722H438.567C438.869 461.879 439.516 461.201 440.345 460.869ZM444.517 462.722H442.514V460.794C443.433 461.095 444.171 461.803 444.517 462.722ZM441.535 458.459C438.582 458.459 436.188 460.854 436.188 463.807C436.188 466.76 438.582 469.155 441.535 469.155C444.487 469.155 446.882 466.76 446.882 463.807C446.882 460.854 444.487 458.459 441.535 458.459Z" fill="white"/>
<path fill-rule="evenodd" clip-rule="evenodd" d="M465.304 466.835V464.907H467.337C466.991 465.826 466.253 466.534 465.304 466.835ZM461.388 464.892H463.135V466.73C462.322 466.398 461.689 465.72 461.388 464.892ZM463.135 460.884V462.722H461.388C461.689 461.894 462.322 461.216 463.135 460.884ZM467.337 462.722H465.304V460.794C466.253 461.08 466.991 461.803 467.337 462.722ZM464.355 458.459C461.403 458.459 459.008 460.854 459.008 463.807C459.008 466.76 461.403 469.155 464.355 469.155C467.307 469.155 469.702 466.76 469.702 463.807C469.702 460.854 467.307 458.459 464.355 458.459Z" fill="white"/>
<path fill-rule="evenodd" clip-rule="evenodd" d="M442.514 495.067V493.138H444.517C444.171 494.057 443.433 494.765 442.514 495.067ZM438.567 493.138H440.345V494.991C439.516 494.66 438.869 493.982 438.567 493.138ZM440.345 489.116V490.969H438.567C438.869 490.125 439.516 489.447 440.345 489.116ZM444.517 490.969H442.514V489.041C443.433 489.342 444.171 490.065 444.517 490.969ZM441.535 486.706C438.582 486.706 436.188 489.101 436.188 492.054C436.188 495.006 438.582 497.402 441.535 497.402C444.487 497.402 446.882 495.006 446.882 492.054C446.882 489.101 444.487 486.706 441.535 486.706Z" fill="white"/>
<path fill-rule="evenodd" clip-rule="evenodd" d="M465.304 495.082V493.153H467.337C466.991 494.072 466.253 494.78 465.304 495.082ZM461.388 493.138H463.135V494.976C462.322 494.645 461.689 493.967 461.388 493.138ZM463.135 489.131V490.969H461.388C461.689 490.14 462.322 489.462 463.135 489.131ZM467.337 490.969H465.304V489.041C466.253 489.327 466.991 490.05 467.337 490.969ZM464.355 486.706C461.403 486.706 459.008 489.101 459.008 492.054C459.008 495.006 461.403 497.402 464.355 497.402C467.307 497.402 469.702 495.006 469.702 492.054C469.717 489.101 467.307 486.706 464.355 486.706Z" fill="white"/>
<path fill-rule="evenodd" clip-rule="evenodd" d="M500.792 434.175V436.027H499.015C499.316 435.184 499.964 434.506 500.792 434.175ZM504.964 436.027H502.961V434.099C503.88 434.4 504.618 435.109 504.964 436.027ZM502.961 440.125V438.197H504.964C504.618 439.101 503.88 439.809 502.961 440.125ZM499.015 438.197H500.792V440.05C499.964 439.718 499.316 439.04 499.015 438.197ZM501.982 442.46C504.934 442.46 507.329 440.065 507.329 437.112C507.329 434.159 504.934 431.764 501.982 431.764C499.03 431.764 496.635 434.159 496.635 437.112C496.635 440.065 499.03 442.46 501.982 442.46Z" fill="white"/>
<path fill-rule="evenodd" clip-rule="evenodd" d="M523.58 434.175V436.012H521.833C522.134 435.199 522.767 434.521 523.58 434.175ZM527.783 436.027H525.749V434.099C526.698 434.385 527.436 435.093 527.783 436.027ZM525.749 440.125V438.197H527.783C527.436 439.116 526.698 439.839 525.749 440.125ZM521.833 438.197H523.58V440.035C522.767 439.703 522.134 439.025 521.833 438.197ZM524.8 442.46C527.753 442.46 530.148 440.065 530.148 437.112C530.148 434.159 527.753 431.764 524.8 431.764C521.848 431.764 519.453 434.159 519.453 437.112C519.453 440.065 521.848 442.46 524.8 442.46Z" fill="white"/>
<path fill-rule="evenodd" clip-rule="evenodd" d="M493.606 457.043L495.203 455.657H509.211L509.904 456.666V461.095H512.073V456.757H515.327V461.095H517.496V456.711L517.782 455.657H531.79L533.793 457.043V470.586L531.79 471.957H517.902L517.3 470.872H517.496V466.534H515.327V470.872H512.073V466.534H509.904V470.526L509.106 471.957H495.218L493.621 470.586V457.043H493.606ZM493.606 485.289L495.203 483.903H509.211L509.904 484.913V489.342H512.073V485.003H515.327V489.342H517.496V484.958L517.782 483.903H531.79L533.793 485.289V498.833L531.79 500.203H517.902L517.3 499.119H517.496V494.78H515.327V499.119H512.073V494.78H509.904V498.772L509.106 500.203H495.218L493.621 498.833V485.289H493.606ZM472.971 498.833L471.359 500.203H457.471L456.869 499.119H456.688V494.78H454.519V499.119H451.265V494.78H449.096V498.772L448.675 500.203H434.787L432.799 498.833V485.289L434.787 483.903H448.795L449.096 484.913V489.342H451.265V485.003H454.519V489.342H456.688V484.958L457.366 483.903H471.374L472.986 485.289V498.833H472.971ZM472.971 470.571L471.359 471.942H457.471L456.869 470.857H456.688V466.519H454.519V470.857H451.265V466.519H449.096V470.511L448.675 471.942H434.787L432.799 470.571V457.028L434.787 455.642H448.795L449.096 456.651V461.08H451.265V456.741H454.519V461.08H456.688V456.696L457.366 455.642H471.374L472.986 457.028V470.571H472.971ZM472.971 443.876L471.359 445.865H457.471L456.869 443.695H456.688V439.357H454.519V443.695H451.265V439.357H449.096V443.816L448.675 445.88H434.787L432.799 443.891V430.348L434.787 428.495H448.795L449.096 429.971V433.933H451.265V429.595H454.519V433.933H456.688V430.016L457.366 428.51H471.374L472.986 430.363V443.876H472.971ZM493.606 430.333L495.203 428.48H509.211L509.904 429.956V433.918H512.073V429.58H515.327V433.918H517.496V430.001L517.782 428.495H531.79L533.793 430.348V443.891L531.79 445.88H517.902L517.3 443.71H517.496V439.372H515.327V443.71H512.073V439.372H509.904V443.831L509.106 445.895H495.218L493.621 443.906V430.333H493.606ZM494.314 448.049H510.627L511.23 445.88H515.794L516.396 448.049H532.709L535.977 444.78V429.444L532.709 426.311H516.351L515.824 427.395H511.199L510.672 426.311H494.314L491.437 429.429V435.003H484.915V463.249H480.577V435.003H475.14V429.429L472.248 426.311H455.89L455.362 427.395H450.738L450.211 426.311H433.853L430.6 429.429V444.765L433.853 448.034H450.166L450.768 445.865H455.332L455.935 448.034H472.248L475.14 444.765V437.172H478.393V463.249H475.14V456.139L472.248 453.472H455.89L455.362 454.557H450.738L450.211 453.472H433.853L430.6 456.139V471.475L433.853 474.111H450.166L450.768 473.027H455.332L455.935 474.111H472.248L475.14 471.475V465.419H478.393V490.411H475.14V484.385L472.248 481.719H455.89L455.362 482.804H450.738L450.211 481.719H433.853L430.6 484.385V499.721L433.853 502.358H450.166L450.768 501.273H455.332L455.935 502.358H472.248L475.14 499.721V492.581H480.577V465.419H484.915V492.581H491.437V499.721L494.314 502.358H510.627L511.23 501.273H515.794L516.396 502.358H532.709L535.977 499.721V484.385L532.709 481.719H516.351L515.824 482.804H511.199L510.672 481.719H494.314L491.437 484.385V490.411H487.099V465.419H491.437V471.475L494.314 474.111H510.627L511.23 473.027H515.794L516.396 474.111H532.709L535.977 471.475V456.139L532.709 453.472H516.351L515.824 454.557H511.199L510.672 453.472H494.314L491.437 456.139V463.249H487.099V437.172H491.437V444.765L494.314 448.049Z" fill="white"/>
<path fill-rule="evenodd" clip-rule="evenodd" d="M500.792 460.869V462.722H499.015C499.316 461.879 499.964 461.201 500.792 460.869ZM504.964 462.722H502.961V460.794C503.88 461.095 504.618 461.803 504.964 462.722ZM502.961 466.82V464.892H504.964C504.618 465.811 503.88 466.519 502.961 466.82ZM499.015 464.892H500.792V466.745C499.964 466.413 499.316 465.735 499.015 464.892ZM501.982 469.155C504.934 469.155 507.329 466.76 507.329 463.807C507.329 460.854 504.934 458.459 501.982 458.459C499.03 458.459 496.635 460.854 496.635 463.807C496.635 466.76 499.03 469.155 501.982 469.155Z" fill="white"/>
<path fill-rule="evenodd" clip-rule="evenodd" d="M523.58 460.884V462.722H521.833C522.134 461.894 522.767 461.216 523.58 460.884ZM527.783 462.722H525.749V460.794C526.698 461.08 527.436 461.803 527.783 462.722ZM525.749 466.835V464.907H527.783C527.436 465.826 526.698 466.534 525.749 466.835ZM521.833 464.892H523.58V466.73C522.767 466.398 522.134 465.72 521.833 464.892ZM524.8 469.155C527.753 469.155 530.148 466.76 530.148 463.807C530.148 460.854 527.753 458.459 524.8 458.459C521.848 458.459 519.453 460.854 519.453 463.807C519.453 466.76 521.848 469.155 524.8 469.155Z" fill="white"/>
<path fill-rule="evenodd" clip-rule="evenodd" d="M500.792 489.116V490.969H499.015C499.316 490.125 499.964 489.462 500.792 489.116ZM504.964 490.969H502.961V489.04C503.88 489.357 504.618 490.065 504.964 490.969ZM502.961 495.066V493.138H504.964C504.618 494.057 503.88 494.765 502.961 495.066ZM499.015 493.138H500.792V494.991C499.964 494.659 499.316 493.981 499.015 493.138ZM501.982 497.416C504.934 497.416 507.329 495.021 507.329 492.068C507.329 489.116 504.934 486.72 501.982 486.72C499.03 486.72 496.635 489.116 496.635 492.068C496.635 495.021 499.03 497.416 501.982 497.416Z" fill="white"/>
<path fill-rule="evenodd" clip-rule="evenodd" d="M523.58 489.131V490.969H521.833C522.134 490.14 522.767 489.462 523.58 489.131ZM527.783 490.969H525.749V489.04C526.698 489.326 527.436 490.05 527.783 490.969ZM525.749 495.081V493.153H527.783C527.436 494.072 526.698 494.78 525.749 495.081ZM521.833 493.138H523.58V494.976C522.767 494.644 522.134 493.966 521.833 493.138ZM524.8 497.416C527.753 497.416 530.148 495.021 530.148 492.068C530.148 489.116 527.753 486.72 524.8 486.72C521.848 486.72 519.453 489.116 519.453 492.068C519.453 495.021 521.848 497.416 524.8 497.416Z" fill="white"/>
<path d="M251.129 694.931C252.665 694.931 253.916 693.681 253.916 692.144V683.768C253.916 682.232 252.665 680.981 251.129 680.981H242.754C241.218 680.981 239.968 682.232 239.968 683.768C239.968 685.305 241.218 686.555 242.754 686.555H244.396L224.031 706.923C223.504 707.45 223.218 708.158 223.218 708.897V711.94C219.091 711.714 215.898 711.684 214.843 711.684C213.789 711.684 210.596 711.714 206.468 711.94V708.897C206.468 708.158 206.167 707.45 205.655 706.923L185.29 686.555H186.932C188.469 686.555 189.719 685.305 189.719 683.768C189.719 682.232 188.469 680.981 186.932 680.981H178.557C177.021 680.981 175.771 682.232 175.771 683.768V692.144C175.771 693.681 177.021 694.931 178.557 694.931C180.094 694.931 181.344 693.681 181.344 692.144V690.502L200.88 710.041V712.331C189.598 713.371 175.756 716.022 175.756 722.847V731.223C175.756 732.85 176.554 734.221 177.895 735.411C176.494 736.646 175.756 738.047 175.756 739.599V747.975C175.756 758.821 210.837 759.138 214.843 759.138C218.85 759.138 253.931 758.821 253.931 747.975V739.599C253.931 738.047 253.193 736.646 251.792 735.411C253.132 734.221 253.931 732.85 253.931 731.223V722.847C253.931 716.022 240.088 713.371 228.806 712.331V710.041L248.342 690.502V692.144C248.342 693.681 249.593 694.931 251.129 694.931ZM248.342 731.042C247.996 731.539 247.047 732.126 245.556 732.729V730.289C246.55 729.957 247.484 729.596 248.342 729.189V731.042ZM240.043 734.386C238.386 734.778 236.503 735.139 234.394 735.456V732.729C236.277 732.473 238.16 732.142 239.983 731.765V734.025C239.968 734.145 240.028 734.266 240.043 734.386ZM228.806 736.149C227.059 736.33 225.191 736.465 223.218 736.571V734.01C223.218 733.919 223.173 733.844 223.173 733.769C224.92 733.678 226.818 733.543 228.806 733.362V736.149ZM217.645 734.025V736.781C216.726 736.797 215.807 736.812 214.858 736.812C213.909 736.812 212.991 736.797 212.072 736.781V734.025C212.072 734.01 212.072 734.01 212.072 733.995C213.397 734.025 214.376 734.025 214.873 734.025C215.37 734.025 216.35 734.025 217.675 733.995C217.645 733.995 217.645 734.01 217.645 734.025ZM206.468 734.025V736.586C204.51 736.48 202.643 736.33 200.88 736.164V733.377C202.868 733.558 204.766 733.693 206.514 733.784C206.514 733.859 206.468 733.934 206.468 734.025ZM195.307 735.456C193.183 735.124 191.27 734.763 189.598 734.371C189.644 734.175 189.719 733.995 189.719 733.784V731.765C191.526 732.142 193.409 732.458 195.307 732.729V735.456ZM184.146 732.729C182.655 732.126 181.691 731.539 181.359 731.042V729.204C182.218 729.596 183.152 729.972 184.146 730.304V732.729ZM181.344 747.794V745.956C182.203 746.348 183.137 746.724 184.131 747.056V749.496C182.639 748.879 181.691 748.291 181.344 747.794ZM206.468 753.323C204.51 753.217 202.643 753.067 200.88 752.901V750.114C202.868 750.295 204.766 750.43 206.514 750.521C206.499 750.611 206.468 750.686 206.468 750.762V753.323ZM195.307 752.208C193.183 751.877 191.27 751.515 189.598 751.123C189.644 750.927 189.719 750.747 189.719 750.536V748.517C191.526 748.894 193.409 749.21 195.307 749.481V752.208ZM212.057 753.534V750.777C212.057 750.762 212.057 750.762 212.057 750.747C213.382 750.777 214.361 750.777 214.858 750.777C215.355 750.777 216.334 750.777 217.66 750.747C217.66 750.762 217.66 750.762 217.66 750.777V753.534C216.741 753.549 215.822 753.564 214.873 753.564C213.894 753.564 212.975 753.549 212.057 753.534ZM239.968 748.517V750.777C239.968 750.912 240.028 751.018 240.043 751.138C238.386 751.53 236.503 751.892 234.394 752.208V749.481C236.277 749.21 238.16 748.894 239.968 748.517ZM228.806 752.901C227.059 753.082 225.191 753.217 223.218 753.323V750.762C223.218 750.671 223.173 750.596 223.173 750.521C224.92 750.43 226.818 750.295 228.806 750.114V752.901ZM245.556 749.481V747.041C246.55 746.709 247.484 746.348 248.342 745.941V747.779C248.011 748.291 247.047 748.879 245.556 749.481ZM247.002 738.815C247.619 739.162 247.981 739.433 248.177 739.614C246.113 741.753 234.138 745.173 214.858 745.173C195.578 745.173 183.603 741.753 181.54 739.614C181.736 739.433 182.097 739.147 182.715 738.815L183.453 738.409C194.012 742.235 212.057 742.386 214.858 742.386C217.66 742.386 235.705 742.22 246.264 738.409L247.002 738.815ZM248.192 722.862C246.188 725.001 234.184 728.451 214.843 728.451C195.503 728.451 183.498 725.001 181.495 722.862C182.956 721.295 189.779 719.05 200.88 717.935V722.862C200.88 724.398 202.13 725.649 203.667 725.649C205.203 725.649 206.453 724.398 206.453 722.862V717.514C209.074 717.363 211.846 717.273 214.828 717.273C217.811 717.273 220.582 717.363 223.203 717.514V722.862C223.203 724.398 224.453 725.649 225.99 725.649C227.526 725.649 228.776 724.398 228.776 722.862V717.935C239.907 719.035 246.731 721.295 248.192 722.862Z" fill="white"/>
<path d="M781.754 686.616C764.191 669.05 735.617 669.05 718.054 686.616C709.544 695.127 704.859 706.441 704.859 718.478C704.859 730.514 709.544 741.828 718.054 750.34C726.836 759.123 738.374 763.521 749.912 763.521C761.449 763.521 772.987 759.123 781.769 750.34C790.279 741.828 794.964 730.514 794.964 718.478C794.949 706.441 790.264 695.127 781.754 686.616ZM779.042 747.628C762.971 763.702 736.822 763.702 720.765 747.628C712.978 739.84 708.7 729.49 708.7 718.478C708.7 707.465 712.993 697.116 720.765 689.327C728.794 681.298 739.353 677.275 749.912 677.275C760.47 677.275 771.014 681.298 779.058 689.327C786.845 697.116 791.123 707.465 791.123 718.478C791.108 729.49 786.83 739.84 779.042 747.628ZM760.606 717.559C762.097 716.082 762.926 714.094 762.926 711.985C762.926 708.203 760.184 704.377 754.942 703.91V701.213C754.942 700.159 754.084 699.3 753.029 699.3C751.975 699.3 751.117 700.159 751.117 701.213V703.85H744.926V701.213C744.926 700.159 744.067 699.3 743.013 699.3C741.958 699.3 741.1 700.159 741.1 701.213V703.85H738.464C737.41 703.85 736.551 704.708 736.551 705.763C736.551 706.818 737.41 707.676 738.464 707.676H741.1V729.234H738.464C737.41 729.234 736.551 730.093 736.551 731.147C736.551 732.202 737.41 733.06 738.464 733.06H741.1V735.697C741.1 736.751 741.958 737.61 743.013 737.61C744.067 737.61 744.926 736.751 744.926 735.697V733.06H751.117V735.697C751.117 736.751 751.975 737.61 753.029 737.61C754.084 737.61 754.942 736.751 754.942 735.697V733.06H755.68C759.085 733.06 761.148 731.629 762.293 730.439C763.754 728.903 764.567 726.854 764.567 724.654C764.537 721.912 763.197 719.141 760.606 717.559ZM753.843 707.691C757.458 707.691 759.085 709.846 759.085 711.985C759.085 714.124 757.473 716.278 753.843 716.278H744.896V707.706H753.843V707.691ZM759.491 727.818C758.603 728.752 757.262 729.249 755.65 729.249H753.029C753.014 729.249 753.014 729.249 752.999 729.249C752.984 729.249 752.984 729.249 752.969 729.249H744.881V720.09H753.828H755.635C759.13 720.09 760.681 722.395 760.681 724.669C760.711 725.89 760.275 727.004 759.491 727.818ZM774.132 694.238C767.655 687.761 759.054 684.205 749.896 684.205C740.738 684.205 732.138 687.776 725.661 694.238C719.184 700.716 715.629 709.318 715.629 718.478C715.629 727.637 719.199 736.239 725.661 742.717C732.333 749.391 741.115 752.735 749.896 752.735C758.663 752.735 767.444 749.391 774.132 742.717C780.609 736.239 784.164 727.637 784.164 718.478C784.164 709.318 780.594 700.716 774.132 694.238ZM771.421 739.99C759.552 751.861 740.256 751.861 728.387 739.99C722.633 734.235 719.47 726.598 719.47 718.463C719.47 710.328 722.633 702.69 728.387 696.935C734.141 691.18 741.778 688.017 749.912 688.017C758.045 688.017 765.682 691.18 771.436 696.935C777.19 702.69 780.353 710.328 780.353 718.463C780.338 726.598 777.16 734.251 771.421 739.99Z" fill="white"/>
<path d="M510.371 965.526L483.379 952.028C483.153 951.907 482.882 951.907 482.656 952.028L455.663 965.526C455.257 965.722 455.106 966.219 455.302 966.611C455.377 966.761 455.513 966.897 455.663 966.972L463.918 971.07L455.663 975.213C455.272 975.424 455.106 975.906 455.317 976.297C455.392 976.448 455.513 976.569 455.663 976.644L463.918 980.787L455.663 984.899C455.272 985.11 455.106 985.592 455.317 985.984C455.392 986.135 455.513 986.255 455.663 986.331C484.388 1000.69 482.731 999.919 483.017 999.919C483.303 999.919 481.511 1000.73 510.371 986.331C510.762 986.12 510.928 985.637 510.717 985.246C510.642 985.095 510.521 984.975 510.371 984.899L502.116 980.787L510.371 976.659C510.762 976.448 510.928 975.966 510.717 975.574C510.642 975.424 510.521 975.303 510.371 975.228L502.116 971.085L510.371 966.957C510.762 966.746 510.913 966.249 510.702 965.857C510.627 965.707 510.506 965.601 510.371 965.526ZM508.187 985.653L483.002 998.217L457.817 985.653L465.695 981.706L482.625 990.142C482.851 990.262 483.123 990.262 483.349 990.142L500.279 981.675L508.187 985.653ZM508.187 975.936C489.404 985.321 510.521 974.791 483.002 988.53C455.889 974.987 476.525 985.291 457.817 975.936L465.695 972.004L473.196 975.755L469.144 977.774C468.738 977.97 468.587 978.452 468.783 978.858C468.858 979.009 468.994 979.145 469.144 979.22L482.641 985.969C482.867 986.089 483.138 986.089 483.364 985.969L496.86 979.22C497.266 979.024 497.417 978.527 497.221 978.135C497.146 977.985 497.01 977.849 496.86 977.774L492.808 975.74L500.309 971.989L508.187 975.936ZM475.004 976.659C483.273 980.802 482.746 980.546 483.002 980.546C483.273 980.546 482.671 980.802 490.985 976.644L494.691 978.497L483.002 984.327L471.313 978.497L475.004 976.659ZM483.017 978.828L457.833 966.219L483.017 953.655L508.202 966.219L483.017 978.828Z" fill="white"/>
<path d="M482.642 956.547L464.703 965.511C464.296 965.706 464.145 966.204 464.341 966.595C464.416 966.746 464.552 966.882 464.703 966.957C484.073 976.628 482.717 976.011 483.004 976.011C483.29 976.011 482.19 976.523 501.305 966.957C501.696 966.746 501.862 966.264 501.651 965.872C501.576 965.721 501.455 965.601 501.305 965.526L483.365 956.562C483.154 956.442 482.883 956.442 482.642 956.547ZM499.136 966.219L483.004 974.308L475.834 970.738L491.966 962.648L499.136 966.219ZM490.173 961.759L474.041 969.849L466.887 966.219L483.019 958.174C491.167 962.257 490.098 961.684 490.173 961.759Z" fill="white"/>
<path d="M521.051 945.038C521.503 945.038 521.864 944.676 521.864 944.224V937.882C521.864 937.43 521.503 937.068 521.051 937.068H514.709C514.257 937.068 513.896 937.43 513.896 937.882V940.247H486.979V937.882C486.979 937.43 486.618 937.068 486.166 937.068H479.824C479.373 937.068 479.011 937.43 479.011 937.882V940.247H452.124V937.882C452.124 937.43 451.763 937.068 451.311 937.068H444.97C444.518 937.068 444.156 937.43 444.156 937.882V944.224C444.156 944.676 444.518 945.038 444.97 945.038H447.334V971.959H444.97C444.518 971.959 444.156 972.32 444.156 972.772V979.114C444.156 979.566 444.518 979.928 444.97 979.928H447.334V1006.85H444.97C444.518 1006.85 444.156 1007.21 444.156 1007.66V1014C444.156 1014.46 444.518 1014.82 444.97 1014.82H451.311C451.763 1014.82 452.124 1014.46 452.124 1014V1011.64H479.041V1014C479.041 1014.46 479.403 1014.82 479.855 1014.82H486.196C486.648 1014.82 487.009 1014.46 487.009 1014V1011.64H513.926V1014C513.926 1014.46 514.288 1014.82 514.739 1014.82H521.081C521.533 1014.82 521.894 1014.46 521.894 1014V1007.66C521.894 1007.21 521.533 1006.85 521.081 1006.85H518.716V979.928H521.081C521.533 979.928 521.894 979.566 521.894 979.114V972.772C521.894 972.32 521.533 971.959 521.081 971.959H518.716V945.038H521.051ZM480.653 938.695H485.382V943.411H480.653V938.695ZM445.783 943.411V938.695H450.498V943.411H445.783ZM445.783 978.301V973.57H450.498V978.301H445.783ZM450.498 1013.16H445.783V1008.45H450.498V1013.16ZM485.367 1013.16H480.638V1008.45H485.367V1013.16ZM513.911 1007.63V1009.98H486.994V1007.63C486.994 1007.18 486.633 1006.82 486.181 1006.82H479.839C479.388 1006.82 479.026 1007.18 479.026 1007.63V1009.98H452.124V1007.63C452.124 1007.18 451.763 1006.82 451.311 1006.82H448.961V979.898H451.311C451.763 979.898 452.124 979.536 452.124 979.084V972.742C452.124 972.29 451.763 971.928 451.311 971.928H448.961V945.008H451.311C451.763 945.008 452.124 944.646 452.124 944.194V941.844H479.041V944.194C479.041 944.646 479.403 945.008 479.855 945.008H486.196C486.648 945.008 487.009 944.646 487.009 944.194V941.844H513.926V944.194C513.926 944.646 514.288 945.008 514.739 945.008H517.089V971.928H514.739C514.288 971.928 513.926 972.29 513.926 972.742V979.084C513.926 979.536 514.288 979.898 514.739 979.898H517.089V1006.82H514.739C514.273 1006.83 513.911 1007.2 513.911 1007.63ZM520.237 1008.45V1013.16H515.523V1008.45H520.237ZM520.237 973.57V978.301H515.523V973.57H520.237ZM515.523 943.411V938.695H520.237V943.411H515.523Z" fill="white"/>
<path fill-rule="evenodd" clip-rule="evenodd" d="M218.745 1229.49C217.947 1228.98 216.998 1228.74 216.109 1228.74C214.964 1228.74 213.94 1227.91 213.955 1226.84C213.955 1226.13 214.302 1225.59 214.874 1225.27C215.22 1225.05 215.627 1224.94 216.094 1224.93C217.133 1224.97 218.037 1225.26 218.82 1225.8C219.423 1226.21 220.251 1226.06 220.658 1225.45C221.065 1224.85 220.914 1224.02 220.312 1223.62C219.438 1223.01 218.459 1222.62 217.405 1222.43V1221.63C217.405 1220.89 216.817 1220.3 216.079 1220.3C215.341 1220.3 214.754 1220.89 214.754 1221.63V1222.47C212.78 1223.01 211.274 1224.73 211.304 1226.87C211.334 1229.49 213.579 1231.39 216.124 1231.39C217.148 1231.39 218.248 1232.17 218.248 1233.29C218.203 1234.01 217.917 1234.49 217.344 1234.84C216.139 1235.58 214.422 1235.03 213.292 1234.3C212.675 1233.89 211.862 1234.07 211.455 1234.69C211.048 1235.31 211.229 1236.12 211.846 1236.53C212.765 1237.13 213.744 1237.52 214.754 1237.7V1238.5C214.754 1239.24 215.341 1239.83 216.079 1239.83C216.817 1239.83 217.405 1239.24 217.405 1238.5V1237.67C221.291 1236.63 222.209 1231.72 218.745 1229.49ZM251.657 1261.87C251.657 1261.85 251.657 1261.82 251.657 1261.81C251.506 1261.64 251.31 1261.5 251.084 1261.44C250.768 1261.35 250.437 1261.38 250.151 1261.53L242.348 1265.75C237.844 1268.46 232.904 1270.77 226.864 1270.77C223.565 1270.77 219.95 1270.09 215.883 1268.4C214.618 1267.88 214.889 1265.99 216.26 1265.86L231.232 1264.37C233.175 1264.17 232.859 1261.91 231.352 1261.9L219.679 1261.82C219.363 1261.82 218.911 1261.64 218.61 1261.53C217.043 1261.01 216.26 1260.74 212.705 1260.74C208.081 1260.74 201.965 1262.17 199.751 1264.82C199.51 1265.12 199.134 1265.29 198.742 1265.3L196.151 1265.33V1275.91H204.375C206.68 1275.91 208.096 1276.01 210.446 1276.34C217.841 1277.4 226.231 1278.29 232.407 1275.48L251.235 1263.76C251.612 1263.51 251.672 1263.1 251.657 1261.87ZM193.5 1262.69C193.5 1262.03 192.958 1261.49 192.295 1261.49H179.055C178.392 1261.49 177.85 1262.03 177.85 1262.69V1278.54C177.85 1279.2 178.392 1279.75 179.055 1279.75H192.295C192.958 1279.75 193.5 1279.2 193.5 1278.54V1262.69ZM235.103 1264.13L243.824 1259.14C244.291 1258.87 245.059 1258.94 245.3 1259.11C245.315 1259.3 245.361 1259.49 245.451 1259.67C245.767 1260.25 245.541 1261.01 244.954 1261.34L236.835 1265.72C232.588 1267.71 228.28 1268.66 223.249 1267.83L231.488 1267.02C233.296 1266.81 234.681 1265.66 235.103 1264.13ZM252.636 1265.99L233.582 1277.83C226.517 1281.03 217.585 1280.02 210.069 1278.95C207.87 1278.63 206.529 1278.54 204.375 1278.54H196.151C196.151 1280.68 194.419 1282.41 192.295 1282.41H179.055C176.931 1282.41 175.199 1280.68 175.199 1278.56V1262.71C175.199 1260.58 176.931 1258.85 179.055 1258.85H192.295C194.404 1258.85 196.136 1260.57 196.151 1262.68L198.14 1262.66C201.679 1259.08 209.12 1258.1 212.705 1258.1C216.531 1258.1 217.6 1258.4 219.453 1259.03C219.589 1259.08 219.739 1259.12 219.89 1259.18L231.352 1259.26C232.814 1259.27 234.094 1260.09 234.742 1261.28L242.484 1256.85C243.704 1256.16 245.436 1256.14 246.611 1256.82C247.349 1257.24 247.801 1257.9 247.906 1258.69C248.042 1258.99 248.117 1259.29 248.177 1259.59L248.87 1259.21C250.753 1258.19 253.118 1258.91 254.127 1260.78C254.323 1261.14 254.293 1261.46 254.293 1261.84C254.323 1263.13 254.338 1264.92 252.636 1265.99ZM227.12 1230.06C227.12 1236.16 222.164 1241.12 216.064 1241.12C209.964 1241.12 205.008 1236.16 205.008 1230.06C205.008 1223.96 209.964 1219.01 216.064 1219.01C222.164 1219.01 227.12 1223.96 227.12 1230.06ZM229.771 1230.06C229.771 1237.63 223.625 1243.77 216.064 1243.77C208.503 1243.77 202.357 1237.63 202.357 1230.06C202.357 1222.5 208.503 1216.35 216.064 1216.35C223.625 1216.35 229.771 1222.5 229.771 1230.06ZM233.913 1233.26C233.476 1233.39 233.16 1233.75 233.039 1234.19C232.588 1235.95 232.03 1237.35 231.111 1238.94C230.84 1239.4 230.66 1239.84 230.946 1240.41L232.844 1244.15L230.163 1246.83L226.427 1244.93C226.02 1244.72 225.538 1244.74 225.147 1244.98C223.58 1245.9 222.194 1246.51 220.417 1246.97C219.89 1247.1 219.453 1247.28 219.257 1247.9L217.962 1251.89H214.166L212.871 1247.9C212.735 1247.46 212.374 1247.13 211.937 1247.03C210.205 1246.57 208.744 1246.02 207.192 1245.1C206.725 1244.83 206.288 1244.65 205.716 1244.93L201.98 1246.83L199.299 1244.15L201.197 1240.41C201.408 1240.01 201.393 1239.52 201.152 1239.13C200.233 1237.58 199.601 1236.15 199.164 1234.4C199.028 1233.87 198.847 1233.44 198.23 1233.24L194.238 1231.95V1228.15L198.23 1226.85C198.667 1226.72 198.983 1226.36 199.104 1225.92C199.54 1224.2 200.128 1222.7 201.032 1221.18C201.303 1220.71 201.483 1220.27 201.197 1219.7L199.299 1215.96L201.98 1213.28L205.716 1215.18C206.123 1215.39 206.605 1215.38 206.996 1215.13C208.533 1214.23 209.994 1213.58 211.726 1213.15C212.253 1213.01 212.69 1212.83 212.886 1212.21L214.181 1208.22H217.977L219.272 1212.21C219.408 1212.65 219.769 1212.98 220.206 1213.09C221.968 1213.54 223.384 1214.09 224.951 1215.01C225.418 1215.29 225.855 1215.47 226.427 1215.18L230.163 1213.28L232.844 1215.96L230.946 1219.7C230.735 1220.11 230.75 1220.59 230.991 1220.98C231.91 1222.53 232.527 1223.95 232.979 1225.71C233.115 1226.24 233.296 1226.67 233.913 1226.87L237.905 1228.17V1231.96L233.913 1233.26ZM235.419 1235.56C234.998 1237.05 234.395 1238.5 233.627 1239.87L235.645 1243.82C235.901 1244.33 235.811 1244.95 235.404 1245.35L231.352 1249.41C230.946 1249.81 230.328 1249.92 229.816 1249.65L225.87 1247.63C224.514 1248.38 223.068 1248.99 221.562 1249.41L220.191 1253.62C220.01 1254.17 219.498 1254.54 218.926 1254.54H213.202C212.63 1254.54 212.118 1254.18 211.937 1253.62L210.566 1249.41C209.075 1248.99 207.629 1248.38 206.258 1247.63L202.312 1249.65C201.8 1249.9 201.182 1249.81 200.775 1249.41L196.724 1245.35C196.317 1244.95 196.227 1244.33 196.483 1243.82L198.501 1239.87C197.733 1238.51 197.145 1237.07 196.724 1235.56L192.506 1234.19C191.964 1234.01 191.587 1233.5 191.587 1232.93V1227.2C191.587 1226.63 191.949 1226.12 192.506 1225.94L196.724 1224.56C197.145 1223.07 197.748 1221.63 198.501 1220.26L196.483 1216.31C196.227 1215.8 196.317 1215.18 196.724 1214.77L200.775 1210.72C201.182 1210.31 201.8 1210.21 202.312 1210.48L206.258 1212.5C207.629 1211.73 209.06 1211.14 210.566 1210.72L211.937 1206.5C212.118 1205.96 212.63 1205.58 213.202 1205.58H218.926C219.498 1205.58 220.01 1205.94 220.191 1206.5L221.562 1210.72C223.053 1211.14 224.499 1211.74 225.87 1212.5L229.816 1210.48C230.328 1210.22 230.946 1210.31 231.352 1210.72L235.404 1214.77C235.811 1215.18 235.901 1215.8 235.645 1216.31L233.627 1220.26C234.395 1221.61 234.983 1223.06 235.419 1224.56L239.637 1225.94C240.179 1226.12 240.556 1226.63 240.556 1227.2V1232.93C240.556 1233.5 240.194 1234.01 239.637 1234.19L235.419 1235.56ZM175.591 1246.03C175.817 1245.34 176.555 1244.95 177.248 1245.16L184.056 1247.3C181.465 1242.24 180.095 1236.62 180.095 1230.88C180.095 1211.05 196.227 1194.9 216.064 1194.9C235.901 1194.9 252.033 1211.04 252.033 1230.88C252.033 1237.49 250.226 1243.95 246.792 1249.59C246.415 1250.22 245.602 1250.42 244.969 1250.02C244.336 1249.65 244.141 1248.83 244.532 1248.2C247.71 1243 249.382 1237.01 249.382 1230.88C249.382 1212.51 234.44 1197.55 216.064 1197.55C197.688 1197.55 182.746 1212.5 182.746 1230.88C182.746 1236.21 184.011 1241.44 186.436 1246.12L188.605 1239.24C188.831 1238.55 189.569 1238.15 190.262 1238.38C190.955 1238.61 191.346 1239.34 191.12 1240.04L188.002 1249.93C187.776 1250.64 187.023 1251.02 186.346 1250.79L176.449 1247.67C175.757 1247.48 175.38 1246.74 175.591 1246.03Z" fill="white"/>
<path d="M741.882 1263.45C734.11 1260.89 728.115 1254.51 726.067 1246.57H723.807C722.602 1246.57 721.879 1245.22 722.557 1244.22L754.188 1197.52C755.017 1196.29 756.945 1196.89 756.945 1198.37V1217.65C764.717 1220.21 770.712 1226.58 772.761 1234.52H775.02C776.225 1234.52 776.948 1235.88 776.27 1236.87L744.639 1283.57C743.81 1284.81 741.882 1284.21 741.882 1282.73V1263.45ZM741.882 1246.57H729.2C731.067 1252.84 735.782 1257.92 741.882 1260.25V1246.57ZM756.945 1220.84V1234.52H769.628C767.76 1228.24 763.045 1223.16 756.945 1220.84ZM744.895 1277.82L772.173 1237.54H755.439C754.61 1237.54 753.932 1236.86 753.932 1236.03V1203.28L726.654 1243.56H743.388C744.217 1243.56 744.895 1244.24 744.895 1245.07V1277.82ZM701.213 1242.06C700.385 1242.06 699.707 1241.38 699.707 1240.55C699.707 1239.72 700.385 1239.04 701.213 1239.04H710.251C711.079 1239.04 711.757 1239.72 711.757 1240.55C711.757 1241.38 711.079 1242.06 710.251 1242.06H701.213ZM788.576 1242.06C787.748 1242.06 787.07 1241.38 787.07 1240.55C787.07 1239.72 787.748 1239.04 788.576 1239.04H797.614C798.442 1239.04 799.12 1239.72 799.12 1240.55C799.12 1241.38 798.442 1242.06 797.614 1242.06H788.576ZM713.459 1208.4L720.388 1214.22C721.924 1215.51 719.996 1217.82 718.445 1216.52L711.516 1210.71C709.995 1209.42 711.923 1207.1 713.459 1208.4ZM780.382 1264.56L787.311 1270.38C788.847 1271.67 786.919 1273.98 785.368 1272.68L778.439 1266.87C776.918 1265.59 778.846 1263.28 780.382 1264.56ZM713.459 1272.68C712.827 1273.21 711.878 1273.13 711.335 1272.5C710.808 1271.87 710.883 1270.92 711.516 1270.38L718.445 1264.56C719.078 1264.03 720.026 1264.11 720.569 1264.74C721.111 1265.38 721.021 1266.32 720.388 1266.87L713.459 1272.68ZM780.382 1216.52C779.75 1217.05 778.801 1216.97 778.258 1216.34C777.716 1215.71 777.806 1214.76 778.439 1214.22L785.368 1208.4C786 1207.87 786.949 1207.95 787.492 1208.58C788.019 1209.21 787.944 1210.16 787.311 1210.71L780.382 1216.52Z" fill="white"/>
<path d="M1125.08 576.2H1129.73V593H1125.82L1118.41 584.048V593H1113.75V576.2H1117.66L1125.08 585.152V576.2ZM1146.17 586.52C1146.17 586.856 1146.12 587.288 1146.09 587.648H1136.64C1137.02 588.968 1138.15 589.736 1139.83 589.736C1141.1 589.736 1141.94 589.376 1142.83 588.608L1145.23 591.104C1143.98 592.496 1142.16 593.216 1139.69 593.216C1135.05 593.216 1132.05 590.36 1132.05 586.472C1132.05 582.56 1135.1 579.776 1139.21 579.776C1143.05 579.776 1146.17 582.224 1146.17 586.52ZM1139.23 583.016C1137.81 583.016 1136.83 583.88 1136.57 585.248H1141.89C1141.65 583.88 1140.65 583.016 1139.23 583.016ZM1156.12 589.28L1157.24 592.472C1156.45 592.976 1155.28 593.216 1154.08 593.216C1150.74 593.216 1148.8 591.584 1148.8 588.248V583.88H1146.9V580.472H1148.8V577.088H1153.36V580.472H1156.33V583.88H1153.36V588.2C1153.36 589.16 1153.91 589.688 1154.72 589.688C1155.23 589.688 1155.73 589.544 1156.12 589.28ZM1176.31 579.992H1180.32L1175.69 593H1171.27L1168.82 585.92L1166.28 593H1161.86L1157.23 579.992H1161.55L1164.22 587.864L1166.98 579.992H1170.86L1173.55 587.936L1176.31 579.992ZM1187.89 593.216C1183.64 593.216 1180.55 590.408 1180.55 586.472C1180.55 582.56 1183.64 579.776 1187.89 579.776C1192.19 579.776 1195.23 582.56 1195.23 586.472C1195.23 590.408 1192.19 593.216 1187.89 593.216ZM1187.89 589.592C1189.45 589.592 1190.63 588.464 1190.63 586.472C1190.63 584.504 1189.45 583.4 1187.89 583.4C1186.35 583.4 1185.15 584.504 1185.15 586.472C1185.15 588.464 1186.35 589.592 1187.89 589.592ZM1201.69 581.552C1202.63 580.376 1204.14 579.776 1206.06 579.776V583.88C1205.65 583.832 1205.36 583.808 1205.03 583.808C1203.18 583.808 1201.91 584.744 1201.91 587.024V593H1197.35V579.992H1201.69V581.552ZM1217.49 593L1213.84 588.44L1212.5 589.808V593H1207.94V575.192H1212.5V584.528L1217.16 579.992H1222.56L1217.16 585.56L1223.01 593H1217.49ZM1144.95 624.656C1142.96 621.776 1141.86 617.816 1141.86 613.424C1141.86 609.032 1142.96 605.072 1144.95 602.192H1149.32C1147.21 605.912 1146.32 609.464 1146.32 613.424C1146.32 617.384 1147.21 620.936 1149.32 624.656H1144.95ZM1159.33 620.336C1154.01 620.336 1150.09 616.712 1150.09 611.6C1150.09 606.488 1154.01 602.864 1159.33 602.864C1162.43 602.864 1164.93 603.992 1166.56 606.032L1163.53 608.768C1162.48 607.496 1161.18 606.8 1159.57 606.8C1156.81 606.8 1154.89 608.72 1154.89 611.6C1154.89 614.48 1156.81 616.4 1159.57 616.4C1161.18 616.4 1162.48 615.704 1163.53 614.432L1166.56 617.168C1164.93 619.208 1162.43 620.336 1159.33 620.336ZM1180.97 603.2H1185.67L1178.47 620H1173.79L1166.61 603.2H1171.75L1176.31 614.144L1180.97 603.2ZM1190.04 624.656H1185.67C1187.79 620.936 1188.67 617.384 1188.67 613.424C1188.67 609.464 1187.79 605.912 1185.67 602.192H1190.04C1192.03 605.072 1193.14 609.032 1193.14 613.424C1193.14 617.816 1192.03 621.776 1190.04 624.656Z" fill="#213441"/>
<path d="M823.293 50.2071C823.683 50.5976 824.317 50.5976 824.707 50.2071L831.071 43.8431C831.462 43.4526 831.462 42.8195 831.071 42.4289C830.681 42.0384 830.047 42.0384 829.657 42.4289L824 48.0858L818.343 42.4289C817.953 42.0384 817.319 42.0384 816.929 42.4289C816.538 42.8195 816.538 43.4526 816.929 43.8431L823.293 50.2071ZM87.5 1241H21V1243H87.5V1241ZM2 1222V21.5H0V1222H2ZM21 2.5H804V0.5H21V2.5ZM823 21.5V49.5H825V21.5H823ZM804 2.5C814.493 2.5 823 11.0066 823 21.5H825C825 9.90202 815.598 0.5 804 0.5V2.5ZM2 21.5C2 11.0066 10.5066 2.5 21 2.5V0.5C9.40202 0.5 0 9.90201 0 21.5H2ZM21 1241C10.5066 1241 2 1232.49 2 1222H0C0 1233.6 9.40202 1243 21 1243V1241Z" fill="#342F50"/>
<defs>
<linearGradient id="paint0_linear_529_738" x1="142.72" y1="1165.94" x2="287.593" y2="1310.79" gradientUnits="userSpaceOnUse">
<stop stop-color="#8FFEDB"/>
<stop offset="0.0188" stop-color="#77D4BB"/>
<stop offset="0.0409" stop-color="#5FAB9B"/>
<stop offset="0.065" stop-color="#4A877E"/>
<stop offset="0.0908" stop-color="#386867"/>
<stop offset="0.1189" stop-color="#2A4F53"/>
<stop offset="0.1502" stop-color="#1F3C44"/>
<stop offset="0.1865" stop-color="#172E3A"/>
<stop offset="0.2323" stop-color="#122634"/>
<stop offset="0.3184" stop-color="#112432"/>
<stop offset="0.6704" stop-color="#11202F"/>
<stop offset="1" stop-color="#101528"/>
</linearGradient>
<linearGradient id="paint1_linear_529_738" x1="677.44" y1="1165.94" x2="822.314" y2="1310.79" gradientUnits="userSpaceOnUse">
<stop stop-color="#8FFEDB"/>
<stop offset="0.0188" stop-color="#77D4BB"/>
<stop offset="0.0409" stop-color="#5FAB9B"/>
<stop offset="0.065" stop-color="#4A877E"/>
<stop offset="0.0908" stop-color="#386867"/>
<stop offset="0.1189" stop-color="#2A4F53"/>
<stop offset="0.1502" stop-color="#1F3C44"/>
<stop offset="0.1865" stop-color="#172E3A"/>
<stop offset="0.2323" stop-color="#122634"/>
<stop offset="0.3184" stop-color="#112432"/>
<stop offset="0.6704" stop-color="#11202F"/>
<stop offset="1" stop-color="#101528"/>
</linearGradient>
<linearGradient id="paint2_linear_529_738" x1="142.72" y1="646.202" x2="287.593" y2="791.054" gradientUnits="userSpaceOnUse">
<stop stop-color="#8FFEDB"/>
<stop offset="0.0188" stop-color="#77D4BB"/>
<stop offset="0.0409" stop-color="#5FAB9B"/>
<stop offset="0.065" stop-color="#4A877E"/>
<stop offset="0.0908" stop-color="#386867"/>
<stop offset="0.1189" stop-color="#2A4F53"/>
<stop offset="0.1502" stop-color="#1F3C44"/>
<stop offset="0.1865" stop-color="#172E3A"/>
<stop offset="0.2323" stop-color="#122634"/>
<stop offset="0.3184" stop-color="#112432"/>
<stop offset="0.6704" stop-color="#11202F"/>
<stop offset="1" stop-color="#101528"/>
</linearGradient>
<linearGradient id="paint3_linear_529_738" x1="410.833" y1="900.797" x2="555.706" y2="1045.65" gradientUnits="userSpaceOnUse">
<stop stop-color="#8FFEDB"/>
<stop offset="0.0188" stop-color="#77D4BB"/>
<stop offset="0.0409" stop-color="#5FAB9B"/>
<stop offset="0.065" stop-color="#4A877E"/>
<stop offset="0.0908" stop-color="#386867"/>
<stop offset="0.1189" stop-color="#2A4F53"/>
<stop offset="0.1502" stop-color="#1F3C44"/>
<stop offset="0.1865" stop-color="#172E3A"/>
<stop offset="0.2323" stop-color="#122634"/>
<stop offset="0.3184" stop-color="#112432"/>
<stop offset="0.6704" stop-color="#11202F"/>
<stop offset="1" stop-color="#101528"/>
</linearGradient>
<linearGradient id="paint4_linear_529_738" x1="410.833" y1="391.607" x2="555.706" y2="536.458" gradientUnits="userSpaceOnUse">
<stop stop-color="#8FFEDB"/>
<stop offset="0.0188" stop-color="#77D4BB"/>
<stop offset="0.0409" stop-color="#5FAB9B"/>
<stop offset="0.065" stop-color="#4A877E"/>
<stop offset="0.0908" stop-color="#386867"/>
<stop offset="0.1189" stop-color="#2A4F53"/>
<stop offset="0.1502" stop-color="#1F3C44"/>
<stop offset="0.1865" stop-color="#172E3A"/>
<stop offset="0.2323" stop-color="#122634"/>
<stop offset="0.3184" stop-color="#112432"/>
<stop offset="0.6704" stop-color="#11202F"/>
<stop offset="1" stop-color="#101528"/>
</linearGradient>
<linearGradient id="paint5_linear_529_738" x1="677.44" y1="646.202" x2="822.314" y2="791.054" gradientUnits="userSpaceOnUse">
<stop stop-color="#8FFEDB"/>
<stop offset="0.0188" stop-color="#77D4BB"/>
<stop offset="0.0409" stop-color="#5FAB9B"/>
<stop offset="0.065" stop-color="#4A877E"/>
<stop offset="0.0908" stop-color="#386867"/>
<stop offset="0.1189" stop-color="#2A4F53"/>
<stop offset="0.1502" stop-color="#1F3C44"/>
<stop offset="0.1865" stop-color="#172E3A"/>
<stop offset="0.2323" stop-color="#122634"/>
<stop offset="0.3184" stop-color="#112432"/>
<stop offset="0.6704" stop-color="#11202F"/>
<stop offset="1" stop-color="#101528"/>
</linearGradient>
<linearGradient id="paint6_linear_529_738" x1="1094.67" y1="391.607" x2="1239.55" y2="536.458" gradientUnits="userSpaceOnUse">
<stop stop-color="#8FFEDB"/>
<stop offset="0.0188" stop-color="#77D4BB"/>
<stop offset="0.0409" stop-color="#5FAB9B"/>
<stop offset="0.065" stop-color="#4A877E"/>
<stop offset="0.0908" stop-color="#386867"/>
<stop offset="0.1189" stop-color="#2A4F53"/>
<stop offset="0.1502" stop-color="#1F3C44"/>
<stop offset="0.1865" stop-color="#172E3A"/>
<stop offset="0.2323" stop-color="#122634"/>
<stop offset="0.3184" stop-color="#112432"/>
<stop offset="0.6704" stop-color="#11202F"/>
<stop offset="1" stop-color="#101528"/>
</linearGradient>
<linearGradient id="paint7_linear_529_738" x1="752.755" y1="87.2972" x2="897.628" y2="232.149" gradientUnits="userSpaceOnUse">
<stop stop-color="#8FFEDB"/>
<stop offset="0.0188" stop-color="#77D4BB"/>
<stop offset="0.0409" stop-color="#5FAB9B"/>
<stop offset="0.065" stop-color="#4A877E"/>
<stop offset="0.0908" stop-color="#386867"/>
<stop offset="0.1189" stop-color="#2A4F53"/>
<stop offset="0.1502" stop-color="#1F3C44"/>
<stop offset="0.1865" stop-color="#172E3A"/>
<stop offset="0.2323" stop-color="#122634"/>
<stop offset="0.3184" stop-color="#112432"/>
<stop offset="0.6704" stop-color="#11202F"/>
<stop offset="1" stop-color="#101528"/>
</linearGradient>
</defs>
</svg>
