<svg width="117" height="117" viewBox="0 0 117 117" fill="none" xmlns="http://www.w3.org/2000/svg">
<g clip-path="url(#clip0_676_2458)">
<path d="M105.03 60.1001C105.486 61.3898 106.384 62.4766 107.564 63.1685C108.744 63.8605 110.131 64.113 111.479 63.8814C112.828 63.6499 114.051 62.9492 114.933 61.9032C115.814 60.8572 116.298 59.5332 116.298 58.1651C116.298 56.7971 115.814 55.4731 114.933 54.4271C114.051 53.381 112.828 52.6803 111.479 52.4488C110.131 52.2172 108.744 52.4697 107.564 53.1617C106.384 53.8536 105.486 54.9405 105.03 56.2301H93.0301V39.5901L97.7101 34.9101H101.14C101.598 36.2017 102.497 37.2901 103.679 37.9828C104.861 38.6756 106.25 38.9283 107.601 38.6961C108.951 38.464 110.176 37.7621 111.059 36.7143C111.942 35.6665 112.427 34.3404 112.427 32.9701C112.427 31.5999 111.942 30.2737 111.059 29.226C110.176 28.1782 108.951 27.4762 107.601 27.2441C106.25 27.012 104.861 27.2646 103.679 27.9574C102.497 28.6502 101.598 29.7385 101.14 31.0301H96.9001C96.3872 31.0374 95.8968 31.2415 95.5301 31.6001L90.7301 36.4001L79.4601 30.4001V19.4001H85.6301C86.0876 20.6917 86.9869 21.7801 88.1692 22.4728C89.3514 23.1656 90.7404 23.4183 92.0909 23.1862C93.4413 22.954 94.6662 22.2521 95.5493 21.2043C96.4323 20.1565 96.9166 18.8304 96.9166 17.4601C96.9166 16.0899 96.4323 14.7637 95.5493 13.7159C94.6662 12.6682 93.4413 11.9662 92.0909 11.7341C90.7404 11.502 89.3514 11.7546 88.1692 12.4474C86.9869 13.1402 86.0876 14.2285 85.6301 15.5201H77.5201C77.2658 15.5201 77.014 15.5704 76.7792 15.668C76.5444 15.7656 76.3312 15.9087 76.1518 16.0889C75.9725 16.2692 75.8305 16.4832 75.7341 16.7185C75.6377 16.9538 75.5888 17.2058 75.5901 17.4601V28.3701L60.0801 20.1701V11.3001C61.3753 10.8435 62.4674 9.94358 63.1631 8.75946C63.8588 7.57535 64.1133 6.18335 63.8817 4.82965C63.6501 3.47596 62.9472 2.24778 61.8974 1.36234C60.8476 0.476887 59.5184 -0.00878906 58.1451 -0.00878906C56.7717 -0.00878906 55.4426 0.476887 54.3928 1.36234C53.3429 2.24778 52.6401 3.47596 52.4084 4.82965C52.1768 6.18335 52.4314 7.57535 53.1271 8.75946C53.8228 9.94358 54.9148 10.8435 56.2101 11.3001V20.1801L40.7001 28.3901V17.4701C40.7001 16.9556 40.4957 16.4621 40.1319 16.0983C39.768 15.7345 39.2746 15.5301 38.7601 15.5301H30.6501C30.1925 14.2385 29.2932 13.1502 28.111 12.4574C26.9288 11.7646 25.5398 11.512 24.1893 11.7441C22.8389 11.9762 21.6139 12.6782 20.7309 13.726C19.8478 14.7737 19.3635 16.0999 19.3635 17.4701C19.3635 18.8404 19.8478 20.1665 20.7309 21.2143C21.6139 22.2621 22.8389 22.964 24.1893 23.1961C25.5398 23.4283 26.9288 23.1756 28.111 22.4828C29.2932 21.7901 30.1925 20.7017 30.6501 19.4101H36.8201V30.4101L25.5601 36.4101L20.7501 31.6101C20.387 31.2461 19.8942 31.0411 19.3801 31.0401H15.1501C14.6925 29.7485 13.7932 28.6602 12.611 27.9674C11.4288 27.2746 10.0398 27.022 8.68932 27.2541C7.33887 27.4862 6.11392 28.1882 5.23088 29.2359C4.34784 30.2837 3.86354 31.6099 3.86354 32.9801C3.86354 34.3504 4.34784 35.6765 5.23088 36.7243C6.11392 37.7721 7.33887 38.474 8.68932 38.7061C10.0398 38.9383 11.4288 38.6856 12.611 37.9928C13.7932 37.3 14.6925 36.2117 15.1501 34.9201H18.5801L23.2601 39.6001V56.2401H11.2601C10.8035 54.9449 9.90354 53.8528 8.71942 53.1571C7.53531 52.4614 6.14331 52.2069 4.78961 52.4385C3.43592 52.6701 2.20773 53.373 1.32228 54.4228C0.436832 55.4726 -0.0488281 56.8017 -0.0488281 58.1751C-0.0488281 59.5485 0.436832 60.8776 1.32228 61.9274C2.20773 62.9772 3.43592 63.6801 4.78961 63.9117C6.14331 64.1434 7.53531 63.8888 8.71942 63.1931C9.90354 62.4974 10.8035 61.4053 11.2601 60.1101H23.2601V76.7501L18.5801 81.4301H15.1501C14.6925 80.1385 13.7932 79.0502 12.611 78.3574C11.4288 77.6646 10.0398 77.412 8.68932 77.6441C7.33887 77.8762 6.11392 78.5781 5.23088 79.6259C4.34784 80.6737 3.86354 81.9999 3.86354 83.3701C3.86354 84.7404 4.34784 86.0665 5.23088 87.1143C6.11392 88.1621 7.33887 88.864 8.68932 89.0961C10.0398 89.3283 11.4288 89.0757 12.611 88.3829C13.7932 87.6901 14.6925 86.6017 15.1501 85.3101H19.3801C19.8942 85.3092 20.387 85.1041 20.7501 84.7401L25.5601 79.9401L36.8201 85.9401V96.9401H30.6501C30.1935 95.6449 29.2935 94.5528 28.1094 93.8571C26.9253 93.1614 25.5333 92.9069 24.1796 93.1385C22.8259 93.3701 21.5977 94.073 20.7123 95.1228C19.8268 96.1726 19.3412 97.5018 19.3412 98.8751C19.3412 100.248 19.8268 101.578 20.7123 102.627C21.5977 103.677 22.8259 104.38 24.1796 104.612C25.5333 104.843 26.9253 104.589 28.1094 103.893C29.2935 103.197 30.1935 102.105 30.6501 100.81H38.7601C39.0144 100.811 39.2664 100.762 39.5017 100.666C39.7371 100.57 39.951 100.428 40.1313 100.248C40.3116 100.069 40.4546 99.8558 40.5522 99.621C40.6498 99.3862 40.7001 99.1344 40.7001 98.8801V88.0001L56.2101 96.2001V105C54.9204 105.457 53.8336 106.354 53.1417 107.534C52.4497 108.714 52.1972 110.101 52.4288 111.449C52.6603 112.798 53.361 114.021 54.407 114.903C55.453 115.784 56.777 116.268 58.1451 116.268C59.5131 116.268 60.8371 115.784 61.8831 114.903C62.9292 114.021 63.6299 112.798 63.8614 111.449C64.0929 110.101 63.8405 108.714 63.1485 107.534C62.4566 106.354 61.3697 105.457 60.0801 105V96.1201L75.5901 87.9101V98.8401C75.5888 99.094 75.6378 99.3455 75.7343 99.5803C75.8308 99.815 75.9729 100.028 76.1524 100.208C76.3319 100.387 76.5452 100.529 76.7799 100.626C77.0147 100.722 77.2663 100.771 77.5201 100.77H85.6301C86.0867 102.065 86.9866 103.157 88.1707 103.853C89.3549 104.549 90.7469 104.803 92.1006 104.572C93.4543 104.34 94.6824 103.637 95.5679 102.587C96.4533 101.538 96.939 100.209 96.939 98.8351C96.939 97.4618 96.4533 96.1326 95.5679 95.0828C94.6824 94.033 93.4543 93.3301 92.1006 93.0985C90.7469 92.8669 89.3549 93.1214 88.1707 93.8171C86.9866 94.5128 86.0867 95.6049 85.6301 96.9001H79.4601V85.9001L90.7301 79.9001L95.5301 84.7001C95.8968 85.0588 96.3872 85.2628 96.9001 85.2701H101.14C101.598 86.5617 102.497 87.6501 103.679 88.3428C104.861 89.0356 106.25 89.2883 107.601 89.0562C108.951 88.824 110.176 88.1221 111.059 87.0743C111.942 86.0265 112.427 84.7004 112.427 83.3301C112.427 81.9599 111.942 80.6337 111.059 79.5859C110.176 78.5382 108.951 77.8362 107.601 77.6041C106.25 77.3719 104.861 77.6246 103.679 78.3174C102.497 79.0102 101.598 80.0985 101.14 81.3901H97.7101L93.0301 76.7101V60.1001H105.03ZM110.49 56.2301C110.874 56.2301 111.249 56.3439 111.568 56.5571C111.887 56.7702 112.136 57.0732 112.282 57.4277C112.429 57.7822 112.468 58.1723 112.393 58.5486C112.318 58.9249 112.133 59.2706 111.862 59.5419C111.591 59.8132 111.245 59.998 110.869 60.0728C110.492 60.1477 110.102 60.1093 109.748 59.9625C109.393 59.8156 109.09 59.567 108.877 59.2479C108.664 58.9289 108.55 58.5538 108.55 58.1701C108.55 57.6556 108.754 57.1622 109.118 56.7983C109.482 56.4345 109.976 56.2301 110.49 56.2301ZM106.61 31.0001C106.994 30.9981 107.37 31.1102 107.691 31.3222C108.011 31.5342 108.261 31.8365 108.41 32.1908C108.558 32.5451 108.598 32.9355 108.524 33.3124C108.45 33.6894 108.266 34.036 107.995 34.3083C107.724 34.5806 107.379 34.7664 107.002 34.8421C106.626 34.9177 106.235 34.8799 105.88 34.7334C105.525 34.5869 105.221 34.3382 105.008 34.019C104.794 33.6997 104.68 33.3242 104.68 32.9401C104.68 32.4273 104.883 31.9354 105.245 31.5719C105.606 31.2083 106.097 31.0028 106.61 31.0001ZM91.1101 15.5001C91.4938 15.5001 91.8689 15.6139 92.1879 15.8271C92.5069 16.0402 92.7556 16.3432 92.9024 16.6977C93.0492 17.0522 93.0877 17.4423 93.0128 17.8186C92.938 18.1949 92.7532 18.5406 92.4819 18.8119C92.2106 19.0832 91.8649 19.268 91.4886 19.3428C91.1122 19.4177 90.7222 19.3793 90.3677 19.2325C90.0132 19.0856 89.7102 18.8369 89.497 18.5179C89.2839 18.1989 89.1701 17.8238 89.1701 17.4401C89.178 16.9308 89.3858 16.445 89.7488 16.0877C90.1118 15.7303 90.6007 15.5301 91.1101 15.5301V15.5001ZM25.2201 19.3801C24.836 19.3821 24.4599 19.27 24.1396 19.058C23.8192 18.8461 23.569 18.5438 23.4206 18.1895C23.2723 17.8352 23.2324 17.4448 23.3062 17.0678C23.3799 16.6908 23.5639 16.3442 23.8348 16.0719C24.1057 15.7996 24.4513 15.6138 24.8279 15.5382C25.2045 15.4625 25.5951 15.5003 25.9502 15.6469C26.3052 15.7934 26.6088 16.0421 26.8224 16.3613C27.036 16.6805 27.1501 17.056 27.1501 17.4401C27.1541 17.6966 27.1071 17.9512 27.012 18.1894C26.917 18.4276 26.7756 18.6446 26.5961 18.8278C26.4166 19.011 26.2026 19.1568 25.9664 19.2567C25.7302 19.3567 25.4765 19.4088 25.2201 19.4101V19.3801ZM9.71008 34.8801C9.32387 34.8799 8.9465 34.7645 8.6263 34.5486C8.3061 34.3326 8.05764 34.026 7.91273 33.668C7.76783 33.31 7.73308 32.9169 7.81293 32.539C7.89278 32.1612 8.08358 31.8157 8.36093 31.547C8.63828 31.2782 8.98955 31.0983 9.36974 31.0304C9.74992 30.9624 10.1417 31.0095 10.495 31.1656C10.8483 31.3217 11.1469 31.5796 11.3527 31.9065C11.5585 32.2333 11.662 32.6141 11.6501 33.0001C11.6422 33.5094 11.4343 33.9952 11.0714 34.3526C10.7084 34.7099 10.2194 34.9102 9.71008 34.9101V34.8801ZM5.84009 60.0701C5.45555 60.0721 5.07909 59.9598 4.75853 59.7473C4.43797 59.5349 4.18778 59.2321 4.0397 58.8772C3.89163 58.5223 3.85236 58.1314 3.9269 57.7541C4.00143 57.3769 4.18641 57.0303 4.45833 56.7584C4.73024 56.4864 5.07683 56.3015 5.45409 56.2269C5.83134 56.1524 6.22222 56.1917 6.57712 56.3397C6.93201 56.4878 7.23489 56.738 7.4473 57.0586C7.6597 57.3791 7.77206 57.7556 7.77008 58.1401C7.77406 58.3961 7.72708 58.6503 7.63187 58.8879C7.53666 59.1255 7.39513 59.3419 7.21552 59.5243C7.0359 59.7067 6.8218 59.8515 6.58566 59.9504C6.34953 60.0492 6.09608 60.1002 5.84009 60.1001V60.0701ZM9.71008 85.2701C9.32639 85.2701 8.95131 85.1563 8.63228 84.9432C8.31325 84.73 8.06459 84.427 7.91776 84.0725C7.77092 83.718 7.7325 83.328 7.80736 82.9517C7.88221 82.5753 8.06699 82.2296 8.3383 81.9583C8.60962 81.687 8.95528 81.5022 9.3316 81.4274C9.70793 81.3525 10.098 81.3909 10.4525 81.5378C10.807 81.6846 11.11 81.9333 11.3231 82.2523C11.5363 82.5714 11.6501 82.9464 11.6501 83.3301C11.6541 83.5874 11.6068 83.8429 11.5111 84.0817C11.4154 84.3206 11.2731 84.538 11.0926 84.7213C10.912 84.9046 10.6968 85.0503 10.4595 85.1497C10.2221 85.249 9.96739 85.3001 9.71008 85.3001V85.2701ZM25.2201 100.77C24.8355 100.772 24.4591 100.66 24.1385 100.447C23.818 100.235 23.5678 99.932 23.4197 99.5771C23.2716 99.2223 23.2324 98.8314 23.3069 98.4541C23.3814 98.0769 23.5664 97.7303 23.8383 97.4584C24.1102 97.1865 24.4568 97.0015 24.8341 96.9269C25.2113 96.8524 25.6022 96.8917 25.9571 97.0397C26.312 97.1878 26.6149 97.438 26.8273 97.7585C27.0397 98.0791 27.1521 98.4556 27.1501 98.8401C27.1541 99.0961 27.1071 99.3503 27.0119 99.5879C26.9167 99.8255 26.7751 100.042 26.5955 100.224C26.4159 100.407 26.2018 100.552 25.9657 100.65C25.7295 100.749 25.4761 100.8 25.2201 100.8V100.77ZM91.1101 96.9001C91.4938 96.9001 91.8689 97.0139 92.1879 97.2271C92.5069 97.4402 92.7556 97.7432 92.9024 98.0977C93.0492 98.4522 93.0877 98.8422 93.0128 99.2186C92.938 99.5949 92.7532 99.9406 92.4819 100.212C92.2106 100.483 91.8649 100.668 91.4886 100.743C91.1122 100.818 90.7222 100.779 90.3677 100.632C90.0132 100.486 89.7102 100.237 89.497 99.9179C89.2839 99.5989 89.1701 99.2238 89.1701 98.8401C89.178 98.3308 89.3858 97.845 89.7488 97.4877C90.1118 97.1303 90.6007 96.9301 91.1101 96.9301V96.9001ZM106.61 81.3901C106.994 81.3882 107.37 81.5003 107.691 81.7122C108.011 81.9242 108.261 82.2264 108.41 82.5807C108.558 82.9351 108.598 83.3255 108.524 83.7025C108.45 84.0794 108.266 84.426 107.995 84.6984C107.724 84.9707 107.379 85.1564 107.002 85.2321C106.626 85.3077 106.235 85.27 105.88 85.1234C105.525 84.9769 105.221 84.7282 105.008 84.4089C104.794 84.0897 104.68 83.7143 104.68 83.3301C104.688 82.8226 104.894 82.3383 105.255 81.9812C105.616 81.6241 106.102 81.4227 106.61 81.4201V81.3901ZM58.1601 3.90012C58.5442 3.89814 58.9203 4.01024 59.2406 4.2222C59.5609 4.43416 59.8111 4.73645 59.9595 5.09076C60.1079 5.44507 60.1477 5.83545 60.074 6.21243C60.0003 6.58941 59.8163 6.93603 59.5454 7.20834C59.2745 7.48066 58.9288 7.66643 58.5522 7.7421C58.1757 7.81777 57.7851 7.77993 57.43 7.63339C57.0749 7.48686 56.7714 7.23819 56.5577 6.91895C56.3441 6.5997 56.2301 6.22424 56.2301 5.84012C56.2301 5.32733 56.4331 4.8354 56.7948 4.47186C57.1564 4.10833 57.6473 3.90276 58.1601 3.90012ZM58.1601 112.43C57.7764 112.43 57.4013 112.316 57.0823 112.103C56.7632 111.89 56.5146 111.587 56.3678 111.233C56.2209 110.878 56.1825 110.488 56.2574 110.112C56.3322 109.735 56.517 109.39 56.7883 109.118C57.0596 108.847 57.4053 108.662 57.7816 108.587C58.1579 108.513 58.548 108.551 58.9025 108.698C59.257 108.845 59.56 109.093 59.7731 109.412C59.9863 109.731 60.1001 110.106 60.1001 110.49C60.1014 110.745 60.0521 110.998 59.9551 111.234C59.8581 111.47 59.7152 111.684 59.5348 111.865C59.3544 112.045 59.14 112.188 58.9041 112.285C58.6681 112.382 58.4152 112.431 58.1601 112.43ZM89.1601 76.4301L58.1601 92.8501L27.1601 76.4301V40.0001L58.1601 23.5801L89.1601 40.0001V76.4301Z" fill="#72BBC4"/>
<path d="M57.3506 27.3598L30.2106 40.9298C29.8938 41.0961 29.6275 41.3443 29.4393 41.6486C29.2511 41.9529 29.1479 42.3021 29.1406 42.6598V73.6598C29.1444 74.0209 29.2458 74.3743 29.4342 74.6824C29.6226 74.9905 29.8909 75.2419 30.2106 75.4098L57.3506 88.9998C57.6206 89.1293 57.9162 89.1965 58.2156 89.1965C58.5151 89.1965 58.8107 89.1293 59.0806 88.9998L86.2106 75.4398C86.5354 75.2782 86.8081 75.0283 86.9974 74.7187C87.1866 74.4092 87.2848 74.0526 87.2806 73.6898V42.6898C87.281 42.3304 87.1811 41.978 86.9921 41.6724C86.803 41.3667 86.5324 41.1199 86.2106 40.9598L59.0806 27.3898C58.8129 27.2556 58.5185 27.1832 58.219 27.178C57.9196 27.1728 57.6228 27.235 57.3506 27.3598ZM83.3506 43.8598V72.4698L58.1506 85.0698L32.9606 72.4698V43.8598L58.1506 31.2598L83.3506 43.8598Z" fill="#72BBC4"/>
<path d="M44.6 57.7102L40.53 49.5502C40.3393 49.1516 40.0182 48.83 39.6199 48.6386C39.2216 48.4472 38.7699 48.3976 38.3395 48.4979C37.9091 48.5982 37.5259 48.8424 37.2532 49.1902C36.9805 49.5379 36.8347 49.9683 36.84 50.4102V67.8602H40.72V58.6202L44.8 66.7902C44.997 67.1785 45.3188 67.4891 45.7138 67.6723C46.1088 67.8555 46.5539 67.9005 46.9775 67.8001C47.4011 67.6996 47.7786 67.4596 48.0493 67.1187C48.3201 66.7777 48.4682 66.3556 48.47 65.9202V48.4802H44.6V57.7102Z" fill="#72BBC4"/>
<path d="M52.3496 50.4105V67.8605H56.2296V60.1005H62.0396V56.2305H56.2296V52.3505H63.9796V48.4805H54.2896C54.0353 48.4792 53.7833 48.5281 53.548 48.6245C53.3126 48.7209 53.0987 48.8629 52.9184 49.0422C52.7381 49.2216 52.5951 49.4348 52.4975 49.6696C52.3999 49.9044 52.3496 50.1562 52.3496 50.4105Z" fill="#72BBC4"/>
<path d="M71.7294 67.8605H75.6094V52.3505H79.4794V48.4805H67.8594V52.3505H71.7294V67.8605Z" fill="#72BBC4"/>
</g>
<defs>
<clipPath id="clip0_676_2458">
<rect width="116.33" height="116.33" fill="white"/>
</clipPath>
</defs>
</svg>
