<svg width="242" height="255" viewBox="0 0 242 255" fill="none" xmlns="http://www.w3.org/2000/svg">
<path d="M121.01 241.661C187.68 241.661 241.726 187.597 241.726 120.904C241.726 54.2122 187.68 0.147461 121.01 0.147461C54.3397 0.147461 0.292969 54.2122 0.292969 120.904C0.292969 187.597 54.3397 241.661 121.01 241.661Z" fill="url(#paint0_linear_527_555)"/>
<path d="M120.834 254.409C127.338 254.409 132.611 249.134 132.611 242.628C132.611 236.121 127.338 230.847 120.834 230.847C114.329 230.847 109.057 236.121 109.057 242.628C109.057 249.134 114.329 254.409 120.834 254.409Z" fill="#71BBC4"/>
<path fill-rule="evenodd" clip-rule="evenodd" d="M66.5399 152.337C62.7476 153.68 60.0153 157.309 60.0153 161.562C60.0153 166.958 64.3964 171.34 69.7903 171.34C75.1843 171.34 79.5655 166.958 79.5655 161.562C79.5655 157.309 76.8449 153.68 73.0409 152.337V145.257H82.816C84.6179 145.257 86.0783 143.796 86.0783 141.993C86.0783 140.191 84.6179 138.73 82.816 138.73H73.0409C69.437 138.73 66.5163 141.652 66.5163 145.257V152.337H66.5399ZM174.101 93.0897H133.352C131.55 93.0897 130.09 94.5505 130.09 96.353C130.09 98.1555 131.55 99.6164 133.352 99.6164H174.101V106.143H169.909C159.863 106.143 151.289 116.181 151.289 128.963C151.289 141.746 159.874 151.783 169.909 151.783H174.101V155.047C174.101 156.849 172.641 158.31 170.839 158.31H128.465C126.663 158.31 125.202 156.849 125.202 155.047V151.783C125.202 149.981 123.742 148.52 121.94 148.52C120.138 148.52 118.678 149.981 118.678 151.783V155.047C118.678 160.443 123.059 164.825 128.453 164.825H170.827C176.221 164.825 180.602 160.443 180.602 155.047V151.783H190.378C192.179 151.783 193.64 150.323 193.64 148.52V109.395C193.64 107.592 192.179 106.131 190.378 106.131H180.602V91.4521C180.602 85.1492 175.491 80.0361 169.19 80.0361H130.078C123.777 80.0361 118.666 85.1492 118.666 91.4521V96.3413C118.666 98.1438 120.126 99.6046 121.928 99.6046C123.73 99.6046 125.191 98.1438 125.191 96.3413V91.4521C125.191 88.7542 127.381 86.5629 130.078 86.5629H169.19C171.887 86.5629 174.078 88.7542 174.078 91.4521C174.101 91.4521 174.101 93.0897 174.101 93.0897ZM69.8021 164.825C68.0002 164.825 66.5399 163.364 66.5399 161.562C66.5399 159.759 68.0002 158.298 69.8021 158.298C71.6041 158.298 73.0645 159.759 73.0645 161.562C73.0645 163.364 71.6041 164.825 69.8021 164.825ZM110.587 103.339C109.562 102.715 108.267 102.715 107.23 103.339L90.9305 113.118C89.9412 113.707 89.3406 114.767 89.3406 115.91V135.478C89.3406 136.621 89.9412 137.681 90.9305 138.27L107.23 148.049C108.255 148.673 109.55 148.673 110.587 148.049L126.886 138.27C127.876 137.681 128.476 136.621 128.476 135.478V115.91C128.476 114.767 127.876 113.707 126.886 113.118L110.587 103.339ZM187.151 145.257H169.92C162.995 145.257 157.813 137.764 157.813 128.952C157.813 120.139 162.995 112.646 169.92 112.646H187.151V145.257ZM108.914 109.925L121.952 117.748V133.629L108.914 141.451L95.877 133.629V117.759L108.914 109.925ZM174.101 119.173C168.707 119.173 164.326 123.556 164.326 128.952C164.326 134.347 168.707 138.73 174.101 138.73C179.495 138.73 183.877 134.347 183.877 128.952C183.877 123.556 179.507 119.173 174.101 119.173ZM69.2486 128.952H82.8396C84.6415 128.952 86.1019 127.491 86.1019 125.688C86.1019 123.886 84.6415 122.425 82.8396 122.425H69.2486C67.906 118.631 64.2786 115.898 60.027 115.898C54.6331 115.898 50.252 120.281 50.252 125.676C50.252 131.072 54.6331 135.455 60.027 135.455C64.2786 135.478 67.906 132.757 69.2486 128.952ZM174.101 125.688C175.903 125.688 177.364 127.149 177.364 128.952C177.364 130.754 175.903 132.215 174.101 132.215C172.299 132.215 170.839 130.754 170.839 128.952C170.839 127.149 172.311 125.688 174.101 125.688ZM60.027 122.437C61.829 122.437 63.2894 123.897 63.2894 125.7C63.2894 127.502 61.829 128.963 60.027 128.963C58.2251 128.963 56.7647 127.502 56.7647 125.7C56.7647 123.897 58.2251 122.437 60.027 122.437ZM66.5399 99.0509V106.131C66.5399 109.736 69.4606 112.658 73.0645 112.658H82.8396C84.6415 112.658 86.1019 111.197 86.1019 109.395C86.1019 107.592 84.6415 106.131 82.8396 106.131H73.0645V99.0509C76.8567 97.7079 79.589 94.0793 79.589 89.8263C79.589 84.4305 75.2079 80.0479 69.8139 80.0479C64.42 80.0479 60.0388 84.4305 60.0388 89.8263C60.0271 94.0793 62.7476 97.7079 66.5399 99.0509ZM69.8021 86.5629C71.6041 86.5629 73.0645 88.0238 73.0645 89.8263C73.0645 91.6288 71.6041 93.0897 69.8021 93.0897C68.0002 93.0897 66.5399 91.6288 66.5399 89.8263C66.5399 88.0238 68.0002 86.5629 69.8021 86.5629Z" fill="#213441"/>
<defs>
<linearGradient id="paint0_linear_527_555" x1="35.6495" y1="35.5203" x2="206.426" y2="206.239" gradientUnits="userSpaceOnUse">
<stop stop-color="#71BBC4"/>
<stop offset="0.1392" stop-color="#ADD8DD"/>
<stop offset="0.2601" stop-color="#D9EDEF"/>
<stop offset="0.3534" stop-color="#F5FAFB"/>
<stop offset="0.4078" stop-color="white"/>
<stop offset="1" stop-color="white"/>
</linearGradient>
</defs>
</svg>
