<svg width="242" height="255" viewBox="0 0 242 255" fill="none" xmlns="http://www.w3.org/2000/svg">
<path d="M120.898 241.661C187.568 241.661 241.615 187.597 241.615 120.904C241.615 54.2122 187.568 0.147461 120.898 0.147461C54.2283 0.147461 0.181641 54.2122 0.181641 120.904C0.181641 187.597 54.2283 241.661 120.898 241.661Z" fill="url(#paint0_linear_901_11)"/>
<path d="M115.598 254.621C122.102 254.621 127.375 249.346 127.375 242.84C127.375 236.333 122.102 231.059 115.598 231.059C109.093 231.059 103.82 236.333 103.82 242.84C103.82 249.346 109.093 254.621 115.598 254.621Z" fill="#71BBC4"/>
<path d="M76.5693 115.485C77.8648 118.843 81.292 127.373 83.8358 131.19C84.036 131.484 84.2363 131.826 84.46 132.203C86.4975 135.584 90.278 141.887 101.078 141.887C111.877 141.887 115.658 135.596 117.695 132.203C117.919 131.826 118.131 131.484 118.32 131.19C120.863 127.361 124.291 118.843 125.586 115.485C127.741 114.684 129.284 112.599 129.284 110.16V104.14C129.284 101.972 128.059 100.087 126.281 99.1331V96.6237C126.281 89.9437 123.82 74.4162 101.066 74.4162C85.2844 74.4162 75.8509 82.7219 75.8509 96.6237V99.1566C74.0725 100.123 72.8477 102.019 72.8477 104.14V110.16C72.8712 112.599 74.414 114.684 76.5693 115.485ZM78.1945 104.152C78.1945 104.022 78.4183 103.822 78.5361 103.81C80.0082 103.81 81.1977 102.62 81.1977 101.148V96.6355C81.1977 88.9306 84.6485 79.753 101.09 79.753C117.531 79.753 120.981 88.9306 120.981 96.6355V101.148C120.981 102.62 122.171 103.81 123.643 103.81C123.831 103.81 123.984 103.963 123.984 104.152V110.172C123.984 110.361 123.831 110.514 123.643 110.514C122.536 110.514 121.535 111.209 121.146 112.246C121.099 112.363 116.706 124.038 113.903 128.244C113.668 128.598 113.42 129.01 113.138 129.47C111.336 132.462 108.874 136.562 101.078 136.562C93.2812 136.562 90.8197 132.462 89.0178 129.47C88.747 129.01 88.4996 128.598 88.2523 128.244C85.4493 124.038 81.0564 112.363 81.0093 112.246C80.6207 111.209 79.6314 110.514 78.5125 110.514C78.3241 110.514 78.171 110.361 78.171 110.172L78.1945 104.152ZM123.419 140.45H116.895C115.422 140.45 114.233 141.64 114.233 143.112C114.233 144.585 115.422 145.775 116.895 145.775H123.419C126.799 145.775 130.191 147.295 132.264 149.733C133.359 151.029 134.572 153.162 134.113 155.942L132.794 162.963C130.568 173.025 125.61 174.191 122.077 174.191H80.1731C75.2149 174.191 71.6111 170.397 69.4558 162.928L68.125 155.859C67.5597 153.338 68.6314 151.324 69.6325 150.075C71.7171 147.471 75.3327 145.787 78.8423 145.787H85.1902C86.6624 145.787 87.8519 144.597 87.8519 143.124C87.8519 141.651 86.6624 140.461 85.1902 140.461H78.8423C73.7074 140.461 68.5843 142.877 65.4751 146.753C63.0372 149.792 62.1304 153.444 62.9077 156.931L64.2385 164.036C64.2503 164.118 64.2738 164.2 64.2974 164.271C67.8895 176.877 74.9087 179.528 80.1731 179.528H122.088C127.788 179.528 135.185 176.853 138.023 164.036L139.366 156.873C139.978 153.091 138.906 149.333 136.327 146.293C133.218 142.629 128.401 140.45 123.419 140.45ZM177.147 92.2882H161.177V76.3129C161.177 74.8403 159.987 73.6504 158.515 73.6504C157.043 73.6504 155.854 74.8403 155.854 76.3129V92.2882H139.884C138.412 92.2882 137.222 93.4781 137.222 94.9508C137.222 96.4234 138.412 97.6133 139.884 97.6133H155.854V113.589C155.854 115.061 157.043 116.251 158.515 116.251C159.987 116.251 161.177 115.061 161.177 113.589V97.6133H177.147C178.619 97.6133 179.809 96.4234 179.809 94.9508C179.809 93.4781 178.607 92.2882 177.147 92.2882Z" fill="#213441"/>
<defs>
<linearGradient id="paint0_linear_901_11" x1="35.5335" y1="35.5203" x2="206.31" y2="206.239" gradientUnits="userSpaceOnUse">
<stop stop-color="#71BBC4"/>
<stop offset="0.1392" stop-color="#ADD8DD"/>
<stop offset="0.2601" stop-color="#D9EDEF"/>
<stop offset="0.3534" stop-color="#F5FAFB"/>
<stop offset="0.4078" stop-color="white"/>
<stop offset="1" stop-color="white"/>
</linearGradient>
</defs>
</svg>
