<svg width="117" height="117" viewBox="0 0 117 117" fill="none" xmlns="http://www.w3.org/2000/svg">
<g clip-path="url(#clip0_676_2138)">
<path d="M92.4633 49.0627C97.3172 49.0649 102.063 47.6274 106.099 44.9321C110.136 42.2368 113.283 38.4048 115.141 33.9208C117 29.4368 117.487 24.5024 116.54 19.7416C115.594 14.9809 113.257 10.6079 109.825 7.17565C106.392 3.74344 102.019 1.4063 97.2585 0.459886C92.4978 -0.486523 87.5633 0.000330431 83.0794 1.85884C78.5954 3.71734 74.7633 6.86401 72.068 10.9008C69.3727 14.9375 67.9353 19.683 67.9375 24.5369C67.9463 31.0389 70.533 37.272 75.1306 41.8696C79.7282 46.4672 85.9613 49.054 92.4633 49.0627ZM92.4633 3.80802C96.5701 3.80584 100.585 5.02165 104.001 7.30168C107.417 9.58171 110.08 12.8235 111.653 16.6171C113.226 20.4106 113.639 24.5855 112.839 28.6137C112.039 32.6418 110.062 36.3423 107.159 39.247C104.256 42.1517 100.557 44.1302 96.5289 44.9322C92.5012 45.7342 88.326 45.3237 84.5316 43.7526C80.7372 42.1815 77.494 39.5204 75.2121 36.1059C72.9303 32.6913 71.7123 28.6768 71.7123 24.57C71.7051 21.8387 72.2362 19.1328 73.2754 16.607C74.3146 14.0811 75.8415 11.7849 77.7687 9.84947C79.6959 7.91408 81.9856 6.37751 84.507 5.32762C87.0285 4.27772 89.7321 3.73509 92.4633 3.73075V3.80802Z" fill="#55BCC5"/>
<path d="M92.4638 18.8745C92.7121 18.8731 92.9581 18.9209 93.1878 19.0152C93.4174 19.1095 93.6261 19.2485 93.8016 19.4241C93.9772 19.5997 94.1162 19.8083 94.2106 20.038C94.3049 20.2676 94.3527 20.5137 94.3512 20.762H98.1262C98.124 19.5938 97.7599 18.455 97.0838 17.5022C96.4078 16.5495 95.4532 15.8297 94.3512 15.4418V13.2342H90.5764V15.4418C89.3248 15.8902 88.2713 16.7655 87.6013 17.9138C86.9312 19.0621 86.6873 20.4099 86.9127 21.7201C87.1382 23.0304 87.8183 24.2193 88.8336 25.0776C89.8488 25.936 91.1343 26.409 92.4638 26.4133C92.8371 26.4133 93.202 26.524 93.5123 26.7314C93.8227 26.9388 94.0647 27.2336 94.2076 27.5785C94.3505 27.9233 94.3878 28.3028 94.315 28.669C94.2422 29.0351 94.0624 29.3714 93.7984 29.6354C93.5344 29.8993 93.1982 30.0791 92.8321 30.1519C92.4659 30.2248 92.0864 30.1874 91.7415 30.0445C91.3966 29.9017 91.1018 29.6598 90.8944 29.3494C90.687 29.039 90.5764 28.6741 90.5764 28.3007H86.8125C86.8155 29.4672 87.1786 30.6043 87.8523 31.5566C88.526 32.5089 89.4774 33.2298 90.5764 33.6209V35.8285H94.3512V33.6209C95.616 33.1842 96.6844 32.312 97.3654 31.1602C98.0465 30.0084 98.2959 28.652 98.069 27.3333C97.8422 26.0145 97.1539 24.8194 96.1271 23.9614C95.1003 23.1034 93.8019 22.6384 92.4638 22.6494C91.9632 22.6494 91.4831 22.4506 91.1291 22.0966C90.7751 21.7427 90.5764 21.2626 90.5764 20.762C90.5764 20.2614 90.7751 19.7813 91.1291 19.4273C91.4831 19.0734 91.9632 18.8745 92.4638 18.8745Z" fill="#55BCC5"/>
<path d="M92.4641 11.3247C95.9769 11.3247 99.3459 12.7202 101.83 15.2042C104.314 17.6881 105.709 21.0571 105.709 24.57C105.716 27.4992 104.736 30.3454 102.928 32.6496L105.908 34.9676C108.231 32.0002 109.49 28.3386 109.484 24.57C109.481 20.0657 107.691 15.7466 104.506 12.5616C101.321 9.3765 97.0016 7.58586 92.4972 7.58294C88.7286 7.57665 85.067 8.83603 82.0996 11.1592L84.4065 14.1393C86.7024 12.3273 89.5392 11.3364 92.4641 11.3247Z" fill="#55BCC5"/>
<path d="M92.4631 41.5129C96.253 41.5373 99.9401 40.281 102.927 37.9477L100.609 34.9676C98.3005 36.7762 95.4508 37.7559 92.5182 37.7491C89.0053 37.7491 85.6364 36.3536 83.1524 33.8696C80.6685 31.3856 79.2729 28.0166 79.2729 24.5038C79.2643 21.5709 80.2442 18.7207 82.0544 16.4131L79.0743 14.0952C76.7488 17.0656 75.4893 20.7314 75.4981 24.5038C75.4952 29.0081 77.2801 33.3295 80.461 36.5187C83.642 39.7079 87.9587 41.5041 92.4631 41.5129Z" fill="#55BCC5"/>
<path d="M111.338 105.675H107.563V109.45H96.238V105.675H92.4631V109.45H81.1494V105.675H77.3745V109.45H66.0498V105.675H62.2749V109.45H50.9502V105.675H47.1753V109.45H35.8506V105.675H32.0867V109.45H20.762V105.675H16.9871V109.45H11.3247V0H7.54981V7.54981H0V11.3247H7.54981V18.8745H0V22.6494H7.54981V30.1992H0V33.9631H7.54981V41.5129H0V45.2878H7.54981V52.8376H0V56.6125H7.54981V64.1624H0V67.9373H7.54981V75.4871H0V79.262H7.54981V86.8008H0V90.5757H7.54981V98.1255H0V101.9H7.54981V113.225H16.9871V117H20.762V113.225H32.0867V117H35.8506V113.225H47.1753V117H50.9502V113.225H62.2749V117H66.0498V113.225H77.3745V117H81.1494V113.225H92.4631V117H96.238V113.225H107.563V117H111.338V113.225H117V109.45H111.338V105.675Z" fill="#55BCC5"/>
<path d="M113.224 79.262H101.9V86.5138C100.8 86.1251 99.8478 85.4067 99.1722 84.4564C98.4965 83.5062 98.1308 82.3705 98.1247 81.2046V69.8247C98.1213 67.65 97.3685 65.543 95.9934 63.8583C94.6183 62.1735 92.7048 61.0141 90.5749 60.5751V52.8487H79.2612V60.5751C77.1313 61.0141 75.2177 62.1735 73.8426 63.8583C72.4675 65.543 71.7148 67.65 71.7113 69.8247V81.1494C71.7053 82.3154 71.3395 83.451 70.6639 84.4012C69.9883 85.3514 69.0358 86.07 67.9365 86.4586V79.262H56.5676V86.5138C55.4683 86.1251 54.5159 85.4067 53.8402 84.4564C53.1646 83.5062 52.7987 82.3705 52.7926 81.2046V43.4556C52.7908 41.2817 52.0386 39.1751 50.663 37.4918C49.2874 35.8085 47.3728 34.6517 45.2429 34.217V26.4906H33.9181V34.217C31.7902 34.654 29.8782 35.8117 28.5048 37.4948C27.1314 39.1779 26.3807 41.2832 26.3794 43.4556V81.2046C26.3736 82.7036 25.7747 84.1393 24.7138 85.1982C23.6528 86.257 22.216 86.853 20.7171 86.8559H15.0547V90.6309H20.7171C23.2161 90.6279 25.612 89.6339 27.3792 87.8667C29.1463 86.0996 30.1404 83.7037 30.1433 81.2046V43.4556C30.1494 42.2896 30.5151 41.154 31.1908 40.2038C31.8664 39.2535 32.8189 38.535 33.9181 38.1464V45.343H45.2429V38.1464C46.343 38.5337 47.2964 39.2518 47.9723 40.2024C48.6481 41.1529 49.0134 42.2893 49.0178 43.4556V81.2046C49.0217 83.3779 49.7748 85.4835 51.1501 87.1663C52.5253 88.8492 54.4386 90.0065 56.5676 90.4432V98.1696H67.8923V90.4432C70.0204 90.0046 71.9325 88.8468 73.3074 87.1643C74.6823 85.4819 75.4361 83.3774 75.4421 81.2046V69.8247C75.4443 68.6565 75.8084 67.5177 76.4844 66.565C77.1604 65.6122 78.1151 64.8924 79.2171 64.5045V71.7122H90.5307V64.5045C91.6327 64.8924 92.5873 65.6122 93.2634 66.565C93.9394 67.5177 94.3034 68.6565 94.3056 69.8247V81.1494C94.3115 83.3222 95.0654 85.4267 96.4403 87.1091C97.8152 88.7916 99.7274 89.9494 101.855 90.388V98.1144H113.18V90.5646H116.955V86.7897H113.18L113.224 79.262ZM41.479 41.5129H37.7041V30.2213H41.479V41.5129ZM64.1284 94.3506H60.3536V83.0369H64.1284V94.3506ZM86.7779 67.9373H83.0582V56.6125H86.8331L86.7779 67.9373ZM109.416 94.3506H105.641V83.0369H109.416V94.3506Z" fill="#55BCC5"/>
</g>
<defs>
<clipPath id="clip0_676_2138">
<rect width="117" height="117" fill="white"/>
</clipPath>
</defs>
</svg>
